M48
;Layer_Color=9474304
;FILE_FORMAT=2:5
INCH,TZ
;TYPE=PLATED
T1F00S00C0.01181
T2F00S00C0.03150
T3F00S00C0.03937
;TYPE=NON_PLATED
T4F00S00C0.05118
%
T01
X477559Y263386
X483071Y298228
X480020Y311319
X469980Y306693
X462697Y305315
X465650Y300590
Y285138
X462697Y280906
X455905Y273130
X458465Y263386
X431595Y259055
X410728Y263386
X407185Y273622
X429331Y285925
X435433Y292913
X419291Y302854
X403839Y306398
X353543Y286713
X342520Y292815
X344488Y272638
X337795Y267717
X363287Y271260
X371949Y247441
X375394Y244980
X378445Y242913
X382382Y240453
X365846Y236909
X341043Y231890
X331693Y228839
X328248Y224902
X325000Y220768
X322047Y234350
X312598Y234154
X316929Y304331
X320079Y307382
X323327Y306004
X313878Y309154
X465453Y233661
X302165Y233071
X293110Y235433
X282677Y236910
X272539Y229823
X265551Y233858
X268799Y242323
X262697Y248130
X272736Y257480
X268701Y263189
X273721Y276969
X277461Y274016
X282283Y280315
X269291Y286614
X266043Y292815
X262697Y308071
X244587Y289764
X222342Y293898
X233268Y273917
X255709Y271063
X310630Y249606
Y312205
X307382Y314665
X379823Y314961
X373130Y331102
X386319Y335039
X404626Y324705
X411713Y317126
X437402Y312697
T02
X405315Y233366
X343209Y300492
X283957Y313779
X255315Y316437
T03
X477165Y202756
X487165
X497165
X507165
Y212756
X497165Y212756
X487165
X477165Y212756
X470472Y224213
X540650Y233760
X532677Y277461
Y308957
X467165Y212756
X467165Y202756
X457165
Y212756
X447165Y212756
Y202756
X437165
Y212756
X427165
X417165
Y202756
X407165
Y212756
X397165
Y202756
X387165
Y212756
X377165Y212756
X367165Y212756
Y202756
X357165
Y212756
X347165Y212756
Y202756
X337165
X327165
Y212756
X337165
X317165Y212756
Y202756
X377165
X427165
X307165
X297165
Y212756
X307165Y212756
X287165
X277165Y212756
Y202756
X267165
X257165
X247165
X247165Y212756
X237165
X237165Y202756
X227165
Y212756
X217165
Y202756
X207165
Y212756
X201850Y253622
X191850
Y263622
Y273622
Y283622
Y293622
X201850
Y283622
Y273622
Y263622
X257165Y212756
X267165Y212756
X287165Y202756
X310236Y277362
X316260Y331496
X326260
T04
X459786Y239567
Y318307
M30
