G04 Layer_Color=65535*
%FSAX24Y24*%
%MOIN*%
G70*
G01*
G75*
%ADD17C,0.0098*%
%ADD39C,0.0079*%
%ADD40C,0.0059*%
%ADD41C,0.0039*%
%ADD42C,0.0100*%
G36*
X030799Y028467D02*
X030806Y028463D01*
X030811Y028461D01*
X030814Y028457D01*
X030815D01*
X030816Y028456D01*
X030820Y028451D01*
X030823Y028444D01*
X030824Y028440D01*
Y028436D01*
Y028435D01*
Y028434D01*
X030824Y028429D01*
X030821Y028422D01*
X030815Y028415D01*
X030814Y028413D01*
X030809Y028410D01*
X030802Y028406D01*
X030797Y028405D01*
X030792Y028405D01*
X030674D01*
X030668Y028404D01*
X030660Y028402D01*
X030651Y028399D01*
X030642Y028395D01*
X030632Y028389D01*
X030623Y028381D01*
X030622Y028380D01*
X030619Y028377D01*
X030616Y028372D01*
X030611Y028365D01*
X030607Y028357D01*
X030603Y028347D01*
X030600Y028336D01*
X030599Y028324D01*
Y027964D01*
Y027962D01*
Y027958D01*
X030600Y027952D01*
X030602Y027944D01*
X030605Y027935D01*
X030609Y027925D01*
X030615Y027915D01*
X030623Y027906D01*
X030624Y027905D01*
X030628Y027903D01*
X030632Y027899D01*
X030640Y027895D01*
X030648Y027891D01*
X030657Y027887D01*
X030668Y027884D01*
X030680Y027883D01*
X030793D01*
X030799Y027883D01*
X030806Y027879D01*
X030811Y027877D01*
X030814Y027873D01*
X030815D01*
X030816Y027872D01*
X030820Y027867D01*
X030823Y027860D01*
X030824Y027856D01*
Y027852D01*
Y027851D01*
Y027850D01*
X030824Y027845D01*
X030821Y027838D01*
X030815Y027831D01*
X030814Y027829D01*
X030809Y027826D01*
X030802Y027822D01*
X030797Y027822D01*
X030792Y027821D01*
X030674D01*
X030670Y027822D01*
X030665D01*
X030660Y027822D01*
X030646Y027826D01*
X030630Y027831D01*
X030613Y027838D01*
X030597Y027848D01*
X030588Y027854D01*
X030579Y027862D01*
X030578Y027863D01*
X030578Y027863D01*
X030576Y027866D01*
X030573Y027869D01*
X030566Y027878D01*
X030558Y027890D01*
X030549Y027905D01*
X030543Y027923D01*
X030537Y027942D01*
X030537Y027953D01*
X030536Y027964D01*
Y028324D01*
Y028324D01*
Y028326D01*
Y028329D01*
X030537Y028334D01*
Y028338D01*
X030537Y028344D01*
X030541Y028357D01*
X030546Y028374D01*
X030553Y028390D01*
X030563Y028407D01*
X030569Y028416D01*
X030577Y028424D01*
X030578Y028425D01*
X030578Y028426D01*
X030581Y028427D01*
X030584Y028431D01*
X030593Y028437D01*
X030605Y028446D01*
X030620Y028454D01*
X030638Y028461D01*
X030658Y028466D01*
X030669Y028467D01*
X030680Y028467D01*
X030793D01*
X030799Y028467D01*
D02*
G37*
G36*
X031983Y028148D02*
X031989Y028145D01*
X031993Y028142D01*
X031997Y028138D01*
X031999Y028137D01*
X032001Y028132D01*
X032004Y028125D01*
X032006Y028117D01*
Y028116D01*
X032005Y028112D01*
X032004Y028107D01*
X032001Y028101D01*
X032000Y028100D01*
X031998Y028097D01*
X031993Y028093D01*
X031986Y028087D01*
X031977Y028085D01*
X031967Y028080D01*
X031950Y028071D01*
X031949D01*
X031948Y028069D01*
X031944Y028067D01*
X031939Y028065D01*
X031928Y028056D01*
X031917Y028047D01*
X031916Y028046D01*
X031912Y028044D01*
X031907Y028039D01*
X031900Y028033D01*
X031892Y028024D01*
X031884Y028014D01*
X031875Y028002D01*
X031865Y027988D01*
X031864Y027987D01*
X031862Y027984D01*
X031859Y027979D01*
X031856Y027972D01*
X031852Y027963D01*
X031847Y027953D01*
X031843Y027943D01*
X031838Y027931D01*
X031837Y027929D01*
X031836Y027925D01*
X031835Y027920D01*
X031833Y027912D01*
X031828Y027896D01*
X031827Y027888D01*
X031826Y027881D01*
X031957D01*
X031960Y027880D01*
X031966D01*
X031972Y027879D01*
X031986Y027875D01*
X032002Y027871D01*
X032020Y027862D01*
X032037Y027852D01*
X032045Y027845D01*
X032053Y027838D01*
X032054Y027837D01*
X032055Y027836D01*
X032057Y027833D01*
X032060Y027830D01*
X032067Y027821D01*
X032075Y027810D01*
X032082Y027794D01*
X032090Y027777D01*
X032094Y027758D01*
X032096Y027747D01*
Y027736D01*
Y027646D01*
Y027646D01*
Y027644D01*
Y027641D01*
X032095Y027636D01*
Y027631D01*
X032094Y027626D01*
X032091Y027611D01*
X032086Y027595D01*
X032078Y027578D01*
X032068Y027561D01*
X032061Y027553D01*
X032053Y027544D01*
X032052D01*
X032051Y027543D01*
X032049Y027541D01*
X032046Y027538D01*
X032037Y027531D01*
X032025Y027523D01*
X032010Y027516D01*
X031992Y027509D01*
X031973Y027504D01*
X031962Y027503D01*
X031951Y027503D01*
X031900D01*
X031897Y027503D01*
X031886Y027504D01*
X031873Y027508D01*
X031857Y027513D01*
X031841Y027520D01*
X031824Y027530D01*
X031815Y027536D01*
X031806Y027544D01*
X031805Y027544D01*
X031805Y027545D01*
X031803Y027548D01*
X031800Y027551D01*
X031793Y027560D01*
X031785Y027572D01*
X031776Y027587D01*
X031770Y027605D01*
X031764Y027624D01*
X031764Y027635D01*
X031763Y027646D01*
Y027845D01*
Y027846D01*
Y027850D01*
Y027854D01*
X031764Y027861D01*
X031764Y027870D01*
X031765Y027880D01*
X031767Y027892D01*
X031769Y027903D01*
X031772Y027917D01*
X031774Y027931D01*
X031784Y027961D01*
X031789Y027975D01*
X031795Y027991D01*
X031804Y028006D01*
X031812Y028022D01*
X031813Y028023D01*
X031815Y028025D01*
X031817Y028030D01*
X031822Y028036D01*
X031827Y028043D01*
X031834Y028051D01*
X031842Y028060D01*
X031851Y028070D01*
X031861Y028080D01*
X031872Y028090D01*
X031885Y028101D01*
X031898Y028111D01*
X031912Y028121D01*
X031928Y028130D01*
X031945Y028139D01*
X031962Y028147D01*
X031975Y028149D01*
X031978D01*
X031983Y028148D01*
D02*
G37*
G36*
X029337Y029409D02*
X029345Y029405D01*
X029349Y029403D01*
X029353Y029399D01*
X029354D01*
X029355Y029398D01*
X029358Y029393D01*
X029361Y029386D01*
X029363Y029382D01*
Y029378D01*
Y029377D01*
Y029376D01*
X029362Y029371D01*
X029359Y029364D01*
X029354Y029357D01*
X029352Y029355D01*
X029347Y029352D01*
X029340Y029348D01*
X029335Y029348D01*
X029330Y029347D01*
X029212D01*
X029206Y029346D01*
X029199Y029344D01*
X029190Y029341D01*
X029181Y029337D01*
X029171Y029331D01*
X029161Y029323D01*
X029161Y029322D01*
X029158Y029319D01*
X029154Y029314D01*
X029150Y029307D01*
X029145Y029299D01*
X029141Y029289D01*
X029139Y029278D01*
X029138Y029266D01*
Y028906D01*
Y028904D01*
Y028900D01*
X029139Y028894D01*
X029140Y028886D01*
X029143Y028877D01*
X029148Y028867D01*
X029153Y028857D01*
X029161Y028848D01*
X029162Y028847D01*
X029166Y028845D01*
X029171Y028841D01*
X029178Y028837D01*
X029186Y028833D01*
X029195Y028829D01*
X029206Y028826D01*
X029218Y028826D01*
X029332D01*
X029337Y028825D01*
X029345Y028821D01*
X029349Y028819D01*
X029353Y028816D01*
X029354D01*
X029355Y028814D01*
X029358Y028809D01*
X029361Y028802D01*
X029363Y028798D01*
Y028794D01*
Y028793D01*
Y028792D01*
X029362Y028787D01*
X029359Y028780D01*
X029354Y028773D01*
X029352Y028771D01*
X029347Y028768D01*
X029340Y028765D01*
X029335Y028764D01*
X029330Y028763D01*
X029212D01*
X029209Y028764D01*
X029203D01*
X029198Y028765D01*
X029184Y028768D01*
X029169Y028773D01*
X029151Y028780D01*
X029135Y028790D01*
X029126Y028796D01*
X029118Y028804D01*
X029117Y028805D01*
X029116Y028806D01*
X029114Y028808D01*
X029111Y028811D01*
X029104Y028820D01*
X029096Y028832D01*
X029088Y028847D01*
X029081Y028865D01*
X029076Y028884D01*
X029075Y028895D01*
X029074Y028906D01*
Y029266D01*
Y029266D01*
Y029268D01*
Y029271D01*
X029075Y029276D01*
Y029280D01*
X029076Y029286D01*
X029079Y029299D01*
X029084Y029316D01*
X029091Y029332D01*
X029101Y029349D01*
X029108Y029358D01*
X029115Y029366D01*
X029116Y029367D01*
X029117Y029368D01*
X029120Y029369D01*
X029122Y029373D01*
X029131Y029379D01*
X029143Y029388D01*
X029159Y029396D01*
X029176Y029403D01*
X029196Y029408D01*
X029207Y029409D01*
X029218Y029410D01*
X029332D01*
X029337Y029409D01*
D02*
G37*
G36*
X031160Y028467D02*
X031167Y028463D01*
X031171Y028461D01*
X031174Y028457D01*
X031175D01*
X031176Y028456D01*
X031180Y028451D01*
X031183Y028444D01*
X031185Y028440D01*
Y028436D01*
Y028435D01*
Y028434D01*
X031184Y028429D01*
X031182Y028422D01*
X031176Y028415D01*
X031174Y028413D01*
X031170Y028410D01*
X031162Y028406D01*
X031158Y028405D01*
X031152Y028405D01*
X030960D01*
Y028197D01*
X031046D01*
X031050Y028196D01*
X031056D01*
X031061Y028195D01*
X031075Y028191D01*
X031091Y028187D01*
X031109Y028179D01*
X031126Y028169D01*
X031134Y028161D01*
X031142Y028154D01*
X031143Y028153D01*
X031144Y028152D01*
X031149Y028147D01*
X031156Y028138D01*
X031164Y028126D01*
X031172Y028111D01*
X031179Y028094D01*
X031183Y028074D01*
X031185Y028064D01*
Y028053D01*
Y027964D01*
Y027963D01*
Y027961D01*
Y027958D01*
X031184Y027954D01*
Y027949D01*
X031183Y027943D01*
X031180Y027929D01*
X031175Y027914D01*
X031167Y027896D01*
X031157Y027879D01*
X031150Y027871D01*
X031142Y027863D01*
X031141D01*
X031141Y027861D01*
X031138Y027859D01*
X031135Y027856D01*
X031126Y027849D01*
X031114Y027842D01*
X031099Y027834D01*
X031081Y027827D01*
X031062Y027822D01*
X031051Y027822D01*
X031040Y027821D01*
X030925D01*
X030919Y027822D01*
X030912Y027824D01*
X030905Y027829D01*
Y027830D01*
X030904Y027831D01*
X030901Y027835D01*
X030897Y027842D01*
X030896Y027852D01*
Y027853D01*
X030897Y027857D01*
X030899Y027863D01*
X030904Y027871D01*
Y027872D01*
X030906Y027873D01*
X030909Y027877D01*
X030916Y027882D01*
X030922Y027883D01*
X030927Y027883D01*
X031046D01*
X031052Y027884D01*
X031060Y027886D01*
X031070Y027889D01*
X031079Y027894D01*
X031089Y027899D01*
X031098Y027906D01*
X031099Y027907D01*
X031101Y027911D01*
X031105Y027915D01*
X031110Y027923D01*
X031114Y027931D01*
X031118Y027941D01*
X031121Y027952D01*
X031121Y027964D01*
Y028054D01*
Y028056D01*
Y028059D01*
X031121Y028066D01*
X031119Y028073D01*
X031116Y028082D01*
X031111Y028091D01*
X031106Y028101D01*
X031098Y028110D01*
X031097Y028111D01*
X031093Y028114D01*
X031089Y028118D01*
X031081Y028122D01*
X031073Y028127D01*
X031063Y028130D01*
X031052Y028133D01*
X031040Y028134D01*
X030926D01*
X030923Y028135D01*
X030917Y028136D01*
X030912Y028138D01*
X030906Y028141D01*
X030901Y028147D01*
X030897Y028155D01*
X030896Y028165D01*
Y028436D01*
Y028437D01*
X030897Y028441D01*
X030898Y028446D01*
X030900Y028452D01*
X030904Y028457D01*
X030909Y028463D01*
X030917Y028467D01*
X030927Y028467D01*
X031154D01*
X031160Y028467D01*
D02*
G37*
G36*
X041582Y028589D02*
X041589Y028585D01*
X041594Y028583D01*
X041598Y028580D01*
X041599D01*
X041599Y028578D01*
X041603Y028573D01*
X041606Y028566D01*
X041608Y028562D01*
Y028558D01*
Y028557D01*
Y028556D01*
X041607Y028551D01*
X041604Y028544D01*
X041599Y028537D01*
X041597Y028535D01*
X041592Y028532D01*
X041585Y028529D01*
X041580Y028528D01*
X041575Y028527D01*
X041457D01*
X041451Y028526D01*
X041444Y028524D01*
X041435Y028521D01*
X041425Y028517D01*
X041415Y028511D01*
X041406Y028503D01*
X041405Y028502D01*
X041403Y028500D01*
X041399Y028494D01*
X041395Y028488D01*
X041390Y028479D01*
X041386Y028469D01*
X041384Y028459D01*
X041383Y028446D01*
Y028086D01*
Y028084D01*
Y028080D01*
X041384Y028074D01*
X041385Y028066D01*
X041388Y028057D01*
X041393Y028048D01*
X041398Y028038D01*
X041406Y028029D01*
X041407Y028028D01*
X041411Y028025D01*
X041415Y028021D01*
X041423Y028018D01*
X041431Y028013D01*
X041440Y028009D01*
X041451Y028007D01*
X041463Y028006D01*
X041577D01*
X041582Y028005D01*
X041589Y028001D01*
X041594Y027999D01*
X041598Y027996D01*
X041599D01*
X041599Y027994D01*
X041603Y027989D01*
X041606Y027982D01*
X041608Y027978D01*
Y027974D01*
Y027973D01*
Y027972D01*
X041607Y027968D01*
X041604Y027960D01*
X041599Y027953D01*
X041597Y027951D01*
X041592Y027948D01*
X041585Y027945D01*
X041580Y027944D01*
X041575Y027943D01*
X041457D01*
X041454Y027944D01*
X041448D01*
X041443Y027945D01*
X041429Y027948D01*
X041414Y027953D01*
X041396Y027960D01*
X041380Y027970D01*
X041371Y027977D01*
X041363Y027984D01*
X041362Y027985D01*
X041361Y027986D01*
X041359Y027988D01*
X041356Y027991D01*
X041349Y028000D01*
X041341Y028012D01*
X041333Y028028D01*
X041326Y028045D01*
X041321Y028064D01*
X041320Y028075D01*
X041319Y028086D01*
Y028446D01*
Y028447D01*
Y028449D01*
Y028451D01*
X041320Y028456D01*
Y028460D01*
X041321Y028466D01*
X041324Y028479D01*
X041329Y028496D01*
X041336Y028512D01*
X041346Y028530D01*
X041353Y028538D01*
X041360Y028546D01*
X041361Y028547D01*
X041362Y028548D01*
X041364Y028550D01*
X041367Y028553D01*
X041376Y028560D01*
X041388Y028568D01*
X041404Y028576D01*
X041421Y028583D01*
X041441Y028588D01*
X041452Y028589D01*
X041463Y028590D01*
X041577D01*
X041582Y028589D01*
D02*
G37*
G36*
X037125Y026551D02*
X037130D01*
X037135Y026551D01*
X037149Y026547D01*
X037166Y026542D01*
X037183Y026534D01*
X037200Y026524D01*
X037208Y026517D01*
X037217Y026509D01*
X037217Y026509D01*
X037218Y026508D01*
X037224Y026502D01*
X037230Y026493D01*
X037238Y026481D01*
X037247Y026467D01*
X037254Y026449D01*
X037258Y026429D01*
X037259Y026419D01*
X037260Y026408D01*
Y026049D01*
Y026048D01*
Y026046D01*
Y026043D01*
X037259Y026039D01*
Y026034D01*
X037258Y026028D01*
X037255Y026014D01*
X037250Y025998D01*
X037242Y025981D01*
X037232Y025964D01*
X037225Y025956D01*
X037217Y025947D01*
X037217D01*
X037216Y025946D01*
X037213Y025944D01*
X037210Y025941D01*
X037201Y025934D01*
X037189Y025926D01*
X037174Y025919D01*
X037156Y025912D01*
X037136Y025907D01*
X037125Y025906D01*
X037115Y025906D01*
X037064D01*
X037061Y025906D01*
X037055D01*
X037050Y025907D01*
X037036Y025911D01*
X037021Y025916D01*
X037004Y025923D01*
X036987Y025933D01*
X036978Y025939D01*
X036970Y025947D01*
X036969Y025947D01*
X036968Y025948D01*
X036966Y025951D01*
X036963Y025954D01*
X036956Y025963D01*
X036948Y025975D01*
X036940Y025990D01*
X036933Y026008D01*
X036928Y026027D01*
X036927Y026038D01*
X036926Y026049D01*
Y026408D01*
Y026409D01*
Y026411D01*
Y026414D01*
X036927Y026418D01*
Y026423D01*
X036928Y026428D01*
X036931Y026442D01*
X036936Y026458D01*
X036943Y026475D01*
X036953Y026492D01*
X036960Y026500D01*
X036967Y026509D01*
X036968Y026509D01*
X036969Y026510D01*
X036972Y026512D01*
X036974Y026516D01*
X036983Y026522D01*
X036995Y026530D01*
X037011Y026539D01*
X037028Y026546D01*
X037048Y026551D01*
X037059Y026551D01*
X037070Y026552D01*
X037120D01*
X037125Y026551D01*
D02*
G37*
G36*
X031665Y028148D02*
X031672Y028145D01*
X031677Y028143D01*
X031681Y028139D01*
X031682D01*
X031682Y028137D01*
X031686Y028133D01*
X031689Y028126D01*
X031691Y028122D01*
Y028117D01*
Y028117D01*
Y028116D01*
X031690Y028111D01*
X031687Y028104D01*
X031682Y028096D01*
X031680Y028095D01*
X031675Y028092D01*
X031668Y028088D01*
X031663Y028087D01*
X031658Y028086D01*
X031540D01*
X031534Y028086D01*
X031527Y028084D01*
X031518Y028081D01*
X031508Y028076D01*
X031498Y028071D01*
X031489Y028063D01*
X031488Y028062D01*
X031486Y028059D01*
X031482Y028054D01*
X031477Y028047D01*
X031473Y028039D01*
X031469Y028029D01*
X031467Y028018D01*
X031466Y028005D01*
Y027646D01*
Y027644D01*
Y027640D01*
X031467Y027634D01*
X031468Y027626D01*
X031471Y027616D01*
X031476Y027607D01*
X031481Y027597D01*
X031489Y027588D01*
X031490Y027587D01*
X031494Y027585D01*
X031498Y027581D01*
X031506Y027577D01*
X031514Y027573D01*
X031523Y027569D01*
X031534Y027566D01*
X031546Y027565D01*
X031660D01*
X031665Y027564D01*
X031672Y027561D01*
X031677Y027559D01*
X031681Y027555D01*
X031682D01*
X031682Y027554D01*
X031686Y027549D01*
X031689Y027542D01*
X031691Y027538D01*
Y027533D01*
Y027533D01*
Y027532D01*
X031690Y027527D01*
X031687Y027520D01*
X031682Y027513D01*
X031680Y027511D01*
X031675Y027508D01*
X031668Y027504D01*
X031663Y027503D01*
X031658Y027503D01*
X031540D01*
X031537Y027503D01*
X031531D01*
X031526Y027504D01*
X031512Y027508D01*
X031497Y027513D01*
X031479Y027520D01*
X031463Y027530D01*
X031454Y027536D01*
X031446Y027544D01*
X031445Y027544D01*
X031444Y027545D01*
X031442Y027548D01*
X031439Y027551D01*
X031432Y027560D01*
X031424Y027572D01*
X031416Y027587D01*
X031409Y027605D01*
X031404Y027624D01*
X031403Y027635D01*
X031402Y027646D01*
Y028005D01*
Y028006D01*
Y028008D01*
Y028011D01*
X031403Y028015D01*
Y028020D01*
X031404Y028025D01*
X031407Y028039D01*
X031412Y028056D01*
X031419Y028072D01*
X031429Y028089D01*
X031436Y028097D01*
X031443Y028106D01*
X031444Y028107D01*
X031445Y028107D01*
X031447Y028109D01*
X031450Y028113D01*
X031459Y028119D01*
X031471Y028127D01*
X031487Y028136D01*
X031504Y028143D01*
X031524Y028148D01*
X031535Y028148D01*
X031546Y028149D01*
X031660D01*
X031665Y028148D01*
D02*
G37*
G36*
X041989Y028589D02*
X041997Y028586D01*
X042004Y028581D01*
X042005D01*
X042006Y028579D01*
X042009Y028575D01*
X042012Y028569D01*
X042014Y028564D01*
Y028560D01*
X042013Y028551D01*
X041877Y027967D01*
Y027966D01*
X041876Y027963D01*
X041873Y027957D01*
X041866Y027948D01*
X041848Y027943D01*
X041846D01*
X041841Y027944D01*
X041834Y027946D01*
X041825Y027949D01*
X041824D01*
X041824Y027951D01*
X041820Y027956D01*
X041815Y027964D01*
X041814Y027969D01*
X041814Y027975D01*
X041814Y027980D01*
X041944Y028527D01*
X041743D01*
Y028490D01*
Y028490D01*
Y028489D01*
X041743Y028482D01*
X041739Y028475D01*
X041737Y028470D01*
X041733Y028467D01*
X041732Y028466D01*
X041727Y028463D01*
X041720Y028460D01*
X041711Y028459D01*
X041710D01*
X041706Y028460D01*
X041700Y028462D01*
X041691Y028466D01*
X041689Y028468D01*
X041685Y028472D01*
X041681Y028479D01*
X041681Y028485D01*
X041680Y028490D01*
Y028558D01*
Y028560D01*
X041681Y028563D01*
X041681Y028568D01*
X041683Y028574D01*
X041687Y028580D01*
X041692Y028585D01*
X041701Y028589D01*
X041711Y028590D01*
X041984D01*
X041989Y028589D01*
D02*
G37*
G36*
X029562Y029409D02*
X029570Y029406D01*
X029579Y029400D01*
X029580D01*
X029580Y029399D01*
X029584Y029394D01*
X029587Y029388D01*
X029589Y029383D01*
Y029379D01*
X029588Y029372D01*
X029504Y028960D01*
X029615D01*
Y029063D01*
Y029064D01*
Y029065D01*
X029616Y029070D01*
X029619Y029077D01*
X029624Y029084D01*
Y029085D01*
X029626Y029086D01*
X029631Y029090D01*
X029637Y029093D01*
X029642Y029095D01*
X029648D01*
X029653Y029094D01*
X029661Y029092D01*
X029668Y029086D01*
X029669D01*
X029670Y029084D01*
X029673Y029081D01*
X029677Y029073D01*
X029679Y029069D01*
Y029063D01*
Y028960D01*
X029738D01*
X029744Y028959D01*
X029751Y028956D01*
X029755Y028954D01*
X029759Y028950D01*
X029760D01*
X029761Y028949D01*
X029765Y028944D01*
X029767Y028937D01*
X029769Y028933D01*
Y028929D01*
Y028928D01*
Y028927D01*
X029768Y028922D01*
X029765Y028915D01*
X029760Y028908D01*
X029758Y028906D01*
X029754Y028903D01*
X029746Y028899D01*
X029742Y028898D01*
X029736Y028898D01*
X029679D01*
Y028794D01*
Y028793D01*
Y028791D01*
X029678Y028785D01*
X029675Y028778D01*
X029670Y028771D01*
X029668Y028770D01*
X029663Y028767D01*
X029655Y028764D01*
X029646Y028763D01*
X029645D01*
X029642Y028764D01*
X029635Y028765D01*
X029626Y028768D01*
X029624Y028770D01*
X029621Y028775D01*
X029617Y028783D01*
X029616Y028788D01*
X029615Y028794D01*
Y028898D01*
X029464D01*
X029458Y028898D01*
X029450Y028901D01*
X029443Y028906D01*
X029442Y028908D01*
X029439Y028912D01*
X029436Y028919D01*
X029435Y028929D01*
Y028934D01*
X029525Y029382D01*
Y029383D01*
X029526Y029385D01*
X029527Y029390D01*
X029530Y029397D01*
X029537Y029403D01*
X029554Y029410D01*
X029560D01*
X029562Y029409D01*
D02*
G37*
G36*
X020091Y032565D02*
X020096D01*
X020103Y032564D01*
X020116Y032561D01*
X020133Y032556D01*
X020150Y032549D01*
X020167Y032538D01*
X020176Y032531D01*
X020184Y032524D01*
X020185Y032523D01*
X020186Y032522D01*
X020188Y032520D01*
X020190Y032517D01*
X020198Y032508D01*
X020205Y032496D01*
X020212Y032480D01*
X020219Y032463D01*
X020224Y032444D01*
X020226Y032433D01*
Y032422D01*
Y032378D01*
Y032363D01*
Y032353D01*
X020222Y032343D01*
Y032342D01*
Y032341D01*
X020221Y032338D01*
X020220Y032335D01*
X020218Y032326D01*
X020212Y032316D01*
X020211Y032315D01*
X020209Y032311D01*
X020207Y032306D01*
X020203Y032301D01*
X020198Y032295D01*
X020192Y032287D01*
X020185Y032281D01*
X020177Y032275D01*
X020177Y032274D01*
X020181Y032273D01*
X020187Y032269D01*
X020193Y032265D01*
X020200Y032259D01*
X020208Y032251D01*
X020218Y032241D01*
X020226Y032228D01*
X020227Y032226D01*
X020229Y032222D01*
X020233Y032214D01*
X020238Y032205D01*
X020241Y032194D01*
X020245Y032182D01*
X020248Y032167D01*
X020249Y032153D01*
Y032063D01*
Y032062D01*
Y032060D01*
Y032058D01*
X020248Y032053D01*
Y032048D01*
X020247Y032042D01*
X020243Y032028D01*
X020239Y032012D01*
X020230Y031995D01*
X020220Y031978D01*
X020213Y031969D01*
X020206Y031961D01*
X020205D01*
X020204Y031959D01*
X020201Y031958D01*
X020198Y031955D01*
X020189Y031948D01*
X020177Y031940D01*
X020162Y031933D01*
X020145Y031926D01*
X020126Y031921D01*
X020115Y031920D01*
X020104Y031919D01*
X019988D01*
X019983Y031920D01*
X019975Y031923D01*
X019968Y031927D01*
Y031928D01*
X019967Y031929D01*
X019964Y031934D01*
X019961Y031941D01*
X019960Y031950D01*
Y031951D01*
X019961Y031956D01*
X019962Y031961D01*
X019967Y031969D01*
Y031970D01*
X019969Y031971D01*
X019973Y031976D01*
X019980Y031980D01*
X019985Y031981D01*
X019991Y031982D01*
X020109D01*
X020116Y031983D01*
X020124Y031985D01*
X020133Y031988D01*
X020142Y031992D01*
X020152Y031998D01*
X020161Y032005D01*
X020162Y032006D01*
X020165Y032009D01*
X020168Y032014D01*
X020173Y032021D01*
X020177Y032030D01*
X020181Y032040D01*
X020184Y032050D01*
X020185Y032063D01*
Y032153D01*
Y032155D01*
Y032159D01*
X020184Y032165D01*
X020182Y032173D01*
X020179Y032182D01*
X020175Y032191D01*
X020169Y032201D01*
X020161Y032210D01*
X020160Y032211D01*
X020157Y032214D01*
X020152Y032218D01*
X020146Y032223D01*
X020137Y032226D01*
X020127Y032231D01*
X020116Y032234D01*
X020104Y032234D01*
X020078D01*
X020073Y032235D01*
X020065Y032238D01*
X020058Y032243D01*
Y032244D01*
X020057Y032245D01*
X020055Y032249D01*
X020051Y032256D01*
X020050Y032265D01*
Y032266D01*
X020051Y032271D01*
X020053Y032276D01*
X020057Y032285D01*
Y032286D01*
X020059Y032286D01*
X020063Y032291D01*
X020070Y032296D01*
X020075Y032296D01*
X020081Y032297D01*
X020086D01*
X020093Y032298D01*
X020101Y032300D01*
X020110Y032303D01*
X020119Y032307D01*
X020129Y032313D01*
X020138Y032320D01*
X020139Y032321D01*
X020142Y032325D01*
X020146Y032329D01*
X020150Y032337D01*
X020155Y032345D01*
X020158Y032355D01*
X020161Y032366D01*
X020162Y032378D01*
Y032422D01*
Y032424D01*
Y032428D01*
X020161Y032434D01*
X020159Y032442D01*
X020157Y032451D01*
X020152Y032460D01*
X020147Y032470D01*
X020138Y032480D01*
X020137Y032480D01*
X020135Y032483D01*
X020129Y032487D01*
X020123Y032491D01*
X020115Y032496D01*
X020105Y032500D01*
X020094Y032502D01*
X020081Y032503D01*
X019989D01*
X019983Y032504D01*
X019975Y032507D01*
X019968Y032511D01*
Y032512D01*
X019967Y032513D01*
X019964Y032518D01*
X019961Y032525D01*
X019960Y032534D01*
Y032535D01*
X019961Y032540D01*
X019962Y032545D01*
X019967Y032553D01*
Y032554D01*
X019969Y032555D01*
X019973Y032560D01*
X019980Y032564D01*
X019985Y032565D01*
X019991Y032566D01*
X020087D01*
X020091Y032565D01*
D02*
G37*
G36*
X018944Y018992D02*
X018952Y018991D01*
X018961Y018990D01*
X018971Y018987D01*
X018982Y018984D01*
X018984D01*
X018987Y018982D01*
X018993Y018981D01*
X019000Y018978D01*
X019008Y018975D01*
X019017Y018970D01*
X019036Y018960D01*
X019037Y018960D01*
X019038Y018959D01*
X019041Y018956D01*
X019044Y018952D01*
X019045Y018951D01*
X019047Y018948D01*
X019049Y018942D01*
X019051Y018935D01*
Y018934D01*
Y018933D01*
X019050Y018928D01*
X019047Y018919D01*
X019045Y018916D01*
X019041Y018911D01*
X019039Y018909D01*
X019035Y018907D01*
X019027Y018903D01*
X019022Y018902D01*
X019017Y018901D01*
X019001Y018907D01*
X018999Y018908D01*
X018996Y018910D01*
X018988Y018914D01*
X018979Y018919D01*
X018968Y018923D01*
X018956Y018927D01*
X018942Y018930D01*
X018927Y018930D01*
X018855D01*
X018849Y018930D01*
X018841Y018928D01*
X018832Y018924D01*
X018822Y018920D01*
X018812Y018914D01*
X018803Y018906D01*
X018802Y018905D01*
X018800Y018901D01*
X018796Y018897D01*
X018792Y018889D01*
X018789Y018881D01*
X018785Y018871D01*
X018782Y018860D01*
X018782Y018848D01*
X018782Y018833D01*
X018784Y018825D01*
X018786Y018818D01*
Y018817D01*
X018787Y018817D01*
X018791Y018811D01*
X018796Y018803D01*
X018805Y018792D01*
X019008Y018585D01*
X019009Y018584D01*
X019011Y018582D01*
X019015Y018579D01*
X019019Y018574D01*
X019024Y018568D01*
X019028Y018561D01*
X019033Y018552D01*
X019038Y018543D01*
X019041Y018533D01*
X019047Y018514D01*
X019048Y018503D01*
Y018489D01*
Y018489D01*
Y018487D01*
Y018484D01*
X019048Y018479D01*
X019047Y018475D01*
X019046Y018469D01*
X019043Y018455D01*
X019038Y018439D01*
X019029Y018422D01*
X019024Y018414D01*
X019017Y018405D01*
X019010Y018396D01*
X019002Y018387D01*
X019000Y018386D01*
X018996Y018381D01*
X018987Y018375D01*
X018976Y018367D01*
X018963Y018359D01*
X018945Y018353D01*
X018926Y018348D01*
X018915Y018347D01*
X018904Y018346D01*
X018833D01*
X018828Y018347D01*
X018823D01*
X018817Y018348D01*
X018802Y018351D01*
X018786Y018355D01*
X018768Y018361D01*
X018749Y018369D01*
X018731Y018380D01*
X018720Y018391D01*
X018718Y018404D01*
Y018405D01*
Y018406D01*
X018719Y018411D01*
X018721Y018418D01*
X018726Y018426D01*
Y018427D01*
X018728Y018428D01*
X018732Y018432D01*
X018740Y018436D01*
X018744Y018437D01*
X018749Y018438D01*
X018764Y018432D01*
X018766Y018431D01*
X018771Y018428D01*
X018777Y018425D01*
X018786Y018421D01*
X018797Y018417D01*
X018810Y018413D01*
X018823Y018410D01*
X018837Y018409D01*
X018908D01*
X018915Y018410D01*
X018922Y018412D01*
X018931Y018415D01*
X018941Y018419D01*
X018951Y018425D01*
X018960Y018433D01*
X018961Y018434D01*
X018964Y018438D01*
X018968Y018442D01*
X018973Y018449D01*
X018976Y018458D01*
X018981Y018468D01*
X018984Y018478D01*
X018985Y018489D01*
X018983Y018504D01*
Y018505D01*
Y018506D01*
X018981Y018510D01*
Y018511D01*
X018980Y018513D01*
X018978Y018518D01*
Y018519D01*
X018977Y018520D01*
X018976Y018523D01*
X018975Y018527D01*
X018968Y018536D01*
X018960Y018547D01*
X018760Y018747D01*
X018759Y018748D01*
X018757Y018750D01*
X018753Y018755D01*
X018750Y018759D01*
X018745Y018766D01*
X018740Y018775D01*
X018733Y018784D01*
X018728Y018795D01*
Y018796D01*
X018726Y018799D01*
X018725Y018805D01*
X018723Y018811D01*
X018721Y018819D01*
X018720Y018828D01*
X018719Y018838D01*
X018718Y018849D01*
Y018850D01*
Y018852D01*
Y018855D01*
X018719Y018859D01*
X018720Y018864D01*
X018720Y018870D01*
X018723Y018884D01*
X018729Y018899D01*
X018738Y018917D01*
X018742Y018925D01*
X018749Y018934D01*
X018756Y018943D01*
X018764Y018951D01*
Y018952D01*
X018766Y018953D01*
X018771Y018958D01*
X018779Y018965D01*
X018790Y018972D01*
X018803Y018980D01*
X018820Y018987D01*
X018840Y018991D01*
X018850Y018993D01*
X018936D01*
X018944Y018992D01*
D02*
G37*
G36*
X019780Y032565D02*
X019788Y032564D01*
X019798Y032562D01*
X019808Y032560D01*
X019819Y032557D01*
X019820D01*
X019824Y032555D01*
X019829Y032553D01*
X019837Y032551D01*
X019845Y032548D01*
X019854Y032543D01*
X019872Y032533D01*
X019873Y032532D01*
X019875Y032531D01*
X019878Y032529D01*
X019880Y032525D01*
X019881Y032524D01*
X019883Y032521D01*
X019886Y032515D01*
X019888Y032508D01*
Y032507D01*
Y032506D01*
X019887Y032501D01*
X019883Y032492D01*
X019881Y032489D01*
X019878Y032484D01*
X019876Y032482D01*
X019871Y032480D01*
X019863Y032476D01*
X019859Y032475D01*
X019853Y032474D01*
X019838Y032480D01*
X019836Y032480D01*
X019832Y032483D01*
X019825Y032487D01*
X019816Y032491D01*
X019805Y032496D01*
X019792Y032500D01*
X019778Y032502D01*
X019764Y032503D01*
X019692D01*
X019686Y032502D01*
X019677Y032501D01*
X019668Y032497D01*
X019658Y032493D01*
X019649Y032487D01*
X019640Y032479D01*
X019639Y032478D01*
X019636Y032474D01*
X019633Y032470D01*
X019629Y032462D01*
X019625Y032454D01*
X019622Y032444D01*
X019619Y032433D01*
X019618Y032420D01*
X019619Y032406D01*
X019621Y032398D01*
X019623Y032391D01*
Y032390D01*
X019624Y032389D01*
X019627Y032384D01*
X019633Y032376D01*
X019642Y032365D01*
X019845Y032158D01*
X019846Y032157D01*
X019848Y032155D01*
X019851Y032152D01*
X019856Y032147D01*
X019860Y032141D01*
X019865Y032133D01*
X019870Y032125D01*
X019874Y032116D01*
X019878Y032106D01*
X019883Y032087D01*
X019885Y032076D01*
Y032062D01*
Y032061D01*
Y032060D01*
Y032057D01*
X019884Y032052D01*
X019883Y032048D01*
X019882Y032042D01*
X019880Y032028D01*
X019874Y032012D01*
X019866Y031995D01*
X019860Y031987D01*
X019854Y031978D01*
X019847Y031968D01*
X019839Y031960D01*
X019837Y031958D01*
X019832Y031954D01*
X019824Y031948D01*
X019813Y031940D01*
X019799Y031932D01*
X019782Y031926D01*
X019763Y031921D01*
X019752Y031920D01*
X019740Y031919D01*
X019669D01*
X019665Y031920D01*
X019659D01*
X019654Y031921D01*
X019639Y031924D01*
X019623Y031927D01*
X019604Y031934D01*
X019585Y031942D01*
X019567Y031953D01*
X019557Y031964D01*
X019554Y031977D01*
Y031978D01*
Y031979D01*
X019555Y031984D01*
X019558Y031990D01*
X019563Y031999D01*
Y031999D01*
X019564Y032000D01*
X019569Y032005D01*
X019576Y032009D01*
X019581Y032009D01*
X019585Y032010D01*
X019601Y032005D01*
X019603Y032004D01*
X019607Y032001D01*
X019614Y031998D01*
X019623Y031994D01*
X019634Y031989D01*
X019646Y031986D01*
X019660Y031983D01*
X019674Y031982D01*
X019745D01*
X019751Y031983D01*
X019758Y031985D01*
X019768Y031988D01*
X019778Y031992D01*
X019788Y031998D01*
X019797Y032006D01*
X019798Y032007D01*
X019800Y032010D01*
X019805Y032015D01*
X019809Y032022D01*
X019813Y032030D01*
X019818Y032040D01*
X019820Y032050D01*
X019821Y032062D01*
X019819Y032077D01*
Y032078D01*
Y032079D01*
X019818Y032083D01*
Y032084D01*
X019817Y032086D01*
X019815Y032091D01*
Y032091D01*
X019814Y032093D01*
X019813Y032096D01*
X019811Y032100D01*
X019805Y032109D01*
X019797Y032120D01*
X019596Y032320D01*
X019595Y032321D01*
X019594Y032323D01*
X019590Y032327D01*
X019586Y032332D01*
X019582Y032339D01*
X019576Y032347D01*
X019570Y032357D01*
X019564Y032367D01*
Y032368D01*
X019563Y032372D01*
X019562Y032378D01*
X019560Y032384D01*
X019558Y032392D01*
X019556Y032401D01*
X019555Y032411D01*
X019554Y032422D01*
Y032423D01*
Y032425D01*
Y032428D01*
X019555Y032432D01*
X019556Y032437D01*
X019557Y032443D01*
X019560Y032457D01*
X019565Y032472D01*
X019574Y032490D01*
X019579Y032498D01*
X019585Y032507D01*
X019593Y032516D01*
X019601Y032524D01*
Y032525D01*
X019603Y032526D01*
X019607Y032531D01*
X019615Y032538D01*
X019626Y032545D01*
X019640Y032552D01*
X019656Y032560D01*
X019676Y032564D01*
X019686Y032566D01*
X019773D01*
X019780Y032565D01*
D02*
G37*
G36*
X019459Y032566D02*
X019466Y032563D01*
X019474Y032558D01*
X019475D01*
X019476Y032556D01*
X019480Y032552D01*
X019482Y032544D01*
X019484Y032540D01*
Y032535D01*
Y032534D01*
X019483Y032531D01*
X019482Y032525D01*
X019480Y032520D01*
X019329Y032243D01*
X019480Y031965D01*
X019481Y031964D01*
X019482Y031960D01*
X019483Y031956D01*
X019484Y031950D01*
Y031949D01*
Y031948D01*
X019483Y031943D01*
X019480Y031936D01*
X019477Y031932D01*
X019473Y031927D01*
X019471Y031927D01*
X019467Y031924D01*
X019459Y031920D01*
X019450Y031919D01*
X019447D01*
X019443Y031920D01*
X019440Y031922D01*
X019435Y031924D01*
X019430Y031927D01*
X019426Y031933D01*
X019422Y031939D01*
X019294Y032186D01*
X019163Y031932D01*
Y031931D01*
X019161Y031930D01*
X019156Y031926D01*
X019153Y031923D01*
X019148Y031921D01*
X019143Y031920D01*
X019136Y031919D01*
X019134D01*
X019128Y031920D01*
X019121Y031923D01*
X019113Y031927D01*
X019112Y031929D01*
X019109Y031934D01*
X019106Y031941D01*
X019104Y031950D01*
Y031951D01*
X019105Y031955D01*
X019106Y031960D01*
X019108Y031966D01*
X019259Y032243D01*
X019108Y032520D01*
X019104Y032534D01*
Y032536D01*
X019105Y032541D01*
X019108Y032547D01*
X019113Y032555D01*
Y032556D01*
X019114Y032557D01*
X019119Y032562D01*
X019127Y032565D01*
X019132Y032566D01*
X019137Y032567D01*
X019140D01*
X019144Y032566D01*
X019147Y032564D01*
X019152Y032562D01*
X019157Y032558D01*
X019162Y032552D01*
X019165Y032545D01*
X019294Y032300D01*
X019425Y032552D01*
Y032553D01*
X019426Y032555D01*
X019430Y032560D01*
X019434Y032562D01*
X019439Y032565D01*
X019444Y032566D01*
X019451Y032567D01*
X019453D01*
X019459Y032566D01*
D02*
G37*
G36*
X031649Y030313D02*
X031655D01*
X031661Y030312D01*
X031675Y030308D01*
X031691Y030304D01*
X031709Y030296D01*
X031726Y030285D01*
X031734Y030279D01*
X031742Y030272D01*
X031743Y030271D01*
X031744Y030270D01*
X031746Y030267D01*
X031749Y030265D01*
X031756Y030255D01*
X031763Y030244D01*
X031771Y030228D01*
X031778Y030211D01*
X031782Y030192D01*
X031784Y030181D01*
Y030170D01*
Y030125D01*
Y030111D01*
Y030101D01*
X031781Y030091D01*
Y030090D01*
Y030089D01*
X031780Y030086D01*
X031779Y030082D01*
X031776Y030073D01*
X031771Y030063D01*
X031770Y030062D01*
X031768Y030059D01*
X031765Y030054D01*
X031761Y030049D01*
X031756Y030042D01*
X031751Y030035D01*
X031743Y030029D01*
X031735Y030022D01*
X031736Y030021D01*
X031740Y030020D01*
X031745Y030017D01*
X031751Y030013D01*
X031759Y030007D01*
X031767Y029999D01*
X031776Y029989D01*
X031784Y029976D01*
X031785Y029974D01*
X031788Y029969D01*
X031792Y029962D01*
X031796Y029953D01*
X031800Y029942D01*
X031803Y029929D01*
X031806Y029915D01*
X031807Y029900D01*
Y029811D01*
Y029810D01*
Y029808D01*
Y029805D01*
X031806Y029801D01*
Y029795D01*
X031805Y029790D01*
X031802Y029775D01*
X031797Y029760D01*
X031789Y029743D01*
X031779Y029725D01*
X031771Y029717D01*
X031764Y029709D01*
X031763D01*
X031762Y029707D01*
X031760Y029705D01*
X031757Y029702D01*
X031748Y029695D01*
X031736Y029688D01*
X031720Y029681D01*
X031703Y029673D01*
X031684Y029669D01*
X031673Y029668D01*
X031662Y029667D01*
X031546D01*
X031541Y029668D01*
X031534Y029671D01*
X031526Y029675D01*
Y029676D01*
X031526Y029677D01*
X031523Y029682D01*
X031519Y029689D01*
X031518Y029698D01*
Y029699D01*
X031519Y029703D01*
X031521Y029709D01*
X031526Y029717D01*
Y029718D01*
X031527Y029719D01*
X031531Y029723D01*
X031538Y029728D01*
X031544Y029729D01*
X031549Y029730D01*
X031668D01*
X031674Y029731D01*
X031682Y029733D01*
X031691Y029735D01*
X031700Y029740D01*
X031710Y029745D01*
X031720Y029753D01*
X031720Y029753D01*
X031723Y029757D01*
X031727Y029762D01*
X031731Y029769D01*
X031736Y029777D01*
X031740Y029787D01*
X031742Y029798D01*
X031743Y029811D01*
Y029901D01*
Y029903D01*
Y029907D01*
X031742Y029913D01*
X031741Y029920D01*
X031738Y029929D01*
X031733Y029938D01*
X031728Y029948D01*
X031720Y029958D01*
X031719Y029958D01*
X031716Y029961D01*
X031710Y029966D01*
X031704Y029970D01*
X031696Y029974D01*
X031686Y029978D01*
X031675Y029981D01*
X031662Y029982D01*
X031637D01*
X031631Y029983D01*
X031624Y029986D01*
X031617Y029990D01*
Y029991D01*
X031616Y029992D01*
X031613Y029997D01*
X031609Y030004D01*
X031608Y030013D01*
Y030014D01*
X031609Y030019D01*
X031611Y030024D01*
X031616Y030032D01*
Y030033D01*
X031618Y030034D01*
X031621Y030039D01*
X031628Y030043D01*
X031634Y030044D01*
X031639Y030045D01*
X031645D01*
X031651Y030046D01*
X031659Y030048D01*
X031669Y030050D01*
X031678Y030055D01*
X031688Y030060D01*
X031697Y030068D01*
X031698Y030069D01*
X031700Y030072D01*
X031704Y030077D01*
X031709Y030084D01*
X031713Y030092D01*
X031717Y030102D01*
X031720Y030113D01*
X031720Y030125D01*
Y030170D01*
Y030172D01*
Y030175D01*
X031720Y030182D01*
X031718Y030190D01*
X031715Y030199D01*
X031710Y030208D01*
X031705Y030218D01*
X031697Y030227D01*
X031696Y030228D01*
X031693Y030231D01*
X031688Y030234D01*
X031681Y030239D01*
X031673Y030244D01*
X031663Y030247D01*
X031652Y030250D01*
X031639Y030251D01*
X031547D01*
X031541Y030252D01*
X031534Y030255D01*
X031526Y030259D01*
Y030260D01*
X031526Y030261D01*
X031523Y030265D01*
X031519Y030273D01*
X031518Y030282D01*
Y030283D01*
X031519Y030287D01*
X031521Y030293D01*
X031526Y030301D01*
Y030302D01*
X031527Y030303D01*
X031531Y030307D01*
X031538Y030312D01*
X031544Y030313D01*
X031549Y030314D01*
X031646D01*
X031649Y030313D01*
D02*
G37*
G36*
X031421D02*
X031428Y030309D01*
X031433Y030307D01*
X031436Y030304D01*
X031437D01*
X031438Y030302D01*
X031442Y030297D01*
X031444Y030290D01*
X031446Y030286D01*
Y030282D01*
Y030281D01*
Y030280D01*
X031445Y030275D01*
X031443Y030268D01*
X031437Y030261D01*
X031435Y030259D01*
X031431Y030256D01*
X031423Y030253D01*
X031419Y030252D01*
X031413Y030251D01*
X031296D01*
X031290Y030250D01*
X031282Y030248D01*
X031273Y030245D01*
X031264Y030241D01*
X031254Y030235D01*
X031245Y030227D01*
X031244Y030226D01*
X031241Y030224D01*
X031238Y030218D01*
X031233Y030212D01*
X031229Y030204D01*
X031225Y030193D01*
X031222Y030183D01*
X031221Y030170D01*
Y029810D01*
Y029808D01*
Y029804D01*
X031222Y029798D01*
X031224Y029790D01*
X031227Y029781D01*
X031231Y029772D01*
X031237Y029762D01*
X031245Y029753D01*
X031246Y029752D01*
X031249Y029749D01*
X031254Y029745D01*
X031261Y029742D01*
X031270Y029737D01*
X031279Y029733D01*
X031290Y029731D01*
X031301Y029730D01*
X031415D01*
X031421Y029729D01*
X031428Y029725D01*
X031433Y029723D01*
X031436Y029720D01*
X031437D01*
X031438Y029718D01*
X031442Y029713D01*
X031444Y029706D01*
X031446Y029702D01*
Y029698D01*
Y029697D01*
Y029696D01*
X031445Y029692D01*
X031443Y029684D01*
X031437Y029677D01*
X031435Y029675D01*
X031431Y029672D01*
X031423Y029669D01*
X031419Y029668D01*
X031413Y029667D01*
X031296D01*
X031292Y029668D01*
X031287D01*
X031281Y029669D01*
X031268Y029672D01*
X031252Y029677D01*
X031235Y029684D01*
X031219Y029694D01*
X031209Y029701D01*
X031201Y029708D01*
X031200Y029709D01*
X031199Y029710D01*
X031198Y029712D01*
X031195Y029715D01*
X031188Y029724D01*
X031179Y029736D01*
X031171Y029752D01*
X031165Y029769D01*
X031159Y029788D01*
X031158Y029799D01*
X031157Y029810D01*
Y030170D01*
Y030171D01*
Y030173D01*
Y030175D01*
X031158Y030180D01*
Y030184D01*
X031159Y030190D01*
X031163Y030204D01*
X031168Y030220D01*
X031175Y030236D01*
X031185Y030254D01*
X031191Y030262D01*
X031198Y030270D01*
X031199Y030271D01*
X031200Y030272D01*
X031203Y030274D01*
X031206Y030277D01*
X031215Y030284D01*
X031227Y030292D01*
X031242Y030300D01*
X031260Y030307D01*
X031280Y030312D01*
X031290Y030313D01*
X031301Y030314D01*
X031415D01*
X031421Y030313D01*
D02*
G37*
G36*
X018622Y018993D02*
X018629Y018991D01*
X018638Y018985D01*
X018638D01*
X018639Y018983D01*
X018643Y018979D01*
X018646Y018971D01*
X018648Y018967D01*
Y018962D01*
Y018961D01*
X018647Y018958D01*
X018646Y018952D01*
X018643Y018947D01*
X018493Y018670D01*
X018643Y018392D01*
X018644Y018391D01*
X018646Y018387D01*
X018647Y018383D01*
X018648Y018377D01*
Y018377D01*
Y018376D01*
X018647Y018370D01*
X018643Y018363D01*
X018640Y018359D01*
X018637Y018355D01*
X018635Y018354D01*
X018630Y018351D01*
X018622Y018347D01*
X018613Y018346D01*
X018610D01*
X018607Y018347D01*
X018603Y018349D01*
X018598Y018351D01*
X018594Y018355D01*
X018589Y018360D01*
X018586Y018367D01*
X018457Y018613D01*
X018326Y018359D01*
Y018358D01*
X018324Y018357D01*
X018320Y018353D01*
X018316Y018350D01*
X018311Y018348D01*
X018306Y018347D01*
X018300Y018346D01*
X018298D01*
X018291Y018347D01*
X018284Y018350D01*
X018277Y018355D01*
X018275Y018356D01*
X018272Y018361D01*
X018270Y018368D01*
X018268Y018377D01*
Y018378D01*
X018269Y018382D01*
X018270Y018387D01*
X018271Y018393D01*
X018423Y018670D01*
X018271Y018947D01*
X018268Y018961D01*
Y018963D01*
X018269Y018968D01*
X018271Y018974D01*
X018276Y018982D01*
Y018983D01*
X018278Y018984D01*
X018282Y018989D01*
X018290Y018992D01*
X018295Y018993D01*
X018301Y018994D01*
X018303D01*
X018307Y018993D01*
X018311Y018991D01*
X018315Y018989D01*
X018321Y018985D01*
X018325Y018980D01*
X018329Y018972D01*
X018457Y018727D01*
X018588Y018980D01*
Y018981D01*
X018589Y018982D01*
X018594Y018987D01*
X018598Y018990D01*
X018602Y018992D01*
X018608Y018993D01*
X018614Y018994D01*
X018617D01*
X018622Y018993D01*
D02*
G37*
G36*
X019297Y018992D02*
X019304Y018990D01*
X019313Y018984D01*
X019314D01*
X019314Y018982D01*
X019318Y018979D01*
X019321Y018971D01*
X019323Y018967D01*
Y018962D01*
Y018377D01*
Y018377D01*
Y018375D01*
X019322Y018369D01*
X019319Y018362D01*
X019314Y018355D01*
X019312Y018354D01*
X019307Y018351D01*
X019299Y018347D01*
X019290Y018346D01*
X019289D01*
X019285Y018347D01*
X019279Y018349D01*
X019270Y018352D01*
X019268Y018354D01*
X019264Y018358D01*
X019261Y018367D01*
X019260Y018372D01*
X019259Y018377D01*
Y018899D01*
X019178Y018805D01*
X019176Y018803D01*
X019171Y018800D01*
X019165Y018797D01*
X019156Y018796D01*
X019154D01*
X019148Y018796D01*
X019140Y018799D01*
X019133Y018805D01*
X019131Y018807D01*
X019129Y018811D01*
X019126Y018818D01*
X019124Y018827D01*
Y018828D01*
X019125Y018832D01*
X019128Y018838D01*
X019130Y018843D01*
X019132Y018848D01*
X019267Y018984D01*
X019269Y018986D01*
X019273Y018989D01*
X019280Y018991D01*
X019289Y018993D01*
X019292D01*
X019297Y018992D01*
D02*
G37*
G36*
X043353Y033481D02*
X043361Y033480D01*
X043370Y033478D01*
X043380Y033475D01*
X043391Y033472D01*
X043393D01*
X043397Y033471D01*
X043402Y033469D01*
X043410Y033466D01*
X043418Y033463D01*
X043427Y033459D01*
X043445Y033449D01*
X043446Y033448D01*
X043448Y033447D01*
X043451Y033444D01*
X043453Y033440D01*
X043454Y033440D01*
X043456Y033436D01*
X043459Y033430D01*
X043461Y033423D01*
Y033422D01*
Y033421D01*
X043460Y033416D01*
X043456Y033408D01*
X043454Y033404D01*
X043451Y033399D01*
X043449Y033398D01*
X043444Y033395D01*
X043436Y033391D01*
X043431Y033390D01*
X043426Y033389D01*
X043411Y033395D01*
X043409Y033396D01*
X043405Y033399D01*
X043398Y033402D01*
X043389Y033407D01*
X043378Y033411D01*
X043365Y033415D01*
X043351Y033418D01*
X043337Y033419D01*
X043265D01*
X043258Y033418D01*
X043250Y033416D01*
X043241Y033412D01*
X043231Y033409D01*
X043222Y033402D01*
X043213Y033394D01*
X043212Y033393D01*
X043209Y033389D01*
X043206Y033385D01*
X043202Y033378D01*
X043198Y033369D01*
X043195Y033359D01*
X043192Y033348D01*
X043191Y033336D01*
X043192Y033321D01*
X043194Y033313D01*
X043196Y033307D01*
Y033306D01*
X043196Y033305D01*
X043200Y033299D01*
X043206Y033291D01*
X043215Y033280D01*
X043418Y033073D01*
X043419Y033072D01*
X043421Y033071D01*
X043424Y033067D01*
X043429Y033062D01*
X043433Y033056D01*
X043438Y033049D01*
X043442Y033041D01*
X043447Y033031D01*
X043451Y033021D01*
X043456Y033002D01*
X043458Y032991D01*
Y032978D01*
Y032977D01*
Y032975D01*
Y032972D01*
X043457Y032968D01*
X043456Y032963D01*
X043455Y032958D01*
X043452Y032943D01*
X043447Y032928D01*
X043439Y032910D01*
X043433Y032902D01*
X043427Y032893D01*
X043420Y032884D01*
X043411Y032876D01*
X043410Y032874D01*
X043405Y032869D01*
X043397Y032863D01*
X043386Y032856D01*
X043372Y032847D01*
X043355Y032841D01*
X043336Y032836D01*
X043325Y032836D01*
X043313Y032835D01*
X043242D01*
X043237Y032836D01*
X043232D01*
X043226Y032836D01*
X043212Y032839D01*
X043196Y032843D01*
X043177Y032849D01*
X043158Y032857D01*
X043140Y032868D01*
X043130Y032879D01*
X043127Y032892D01*
Y032893D01*
Y032894D01*
X043128Y032899D01*
X043131Y032906D01*
X043135Y032914D01*
Y032915D01*
X043137Y032916D01*
X043142Y032920D01*
X043149Y032924D01*
X043154Y032925D01*
X043158Y032926D01*
X043174Y032920D01*
X043175Y032919D01*
X043180Y032917D01*
X043186Y032913D01*
X043196Y032909D01*
X043206Y032905D01*
X043219Y032901D01*
X043233Y032898D01*
X043247Y032898D01*
X043318D01*
X043324Y032898D01*
X043331Y032900D01*
X043340Y032903D01*
X043350Y032908D01*
X043360Y032913D01*
X043370Y032921D01*
X043370Y032922D01*
X043373Y032926D01*
X043378Y032930D01*
X043382Y032938D01*
X043386Y032946D01*
X043390Y032956D01*
X043393Y032966D01*
X043394Y032978D01*
X043392Y032992D01*
Y032993D01*
Y032994D01*
X043390Y032999D01*
Y033000D01*
X043390Y033001D01*
X043388Y033006D01*
Y033007D01*
X043387Y033009D01*
X043386Y033011D01*
X043384Y033015D01*
X043378Y033024D01*
X043370Y033035D01*
X043169Y033235D01*
X043168Y033236D01*
X043166Y033238D01*
X043163Y033243D01*
X043159Y033247D01*
X043155Y033255D01*
X043149Y033263D01*
X043143Y033272D01*
X043137Y033283D01*
Y033284D01*
X043135Y033287D01*
X043134Y033293D01*
X043133Y033299D01*
X043131Y033307D01*
X043129Y033317D01*
X043128Y033327D01*
X043127Y033338D01*
Y033338D01*
Y033340D01*
Y033343D01*
X043128Y033348D01*
X043129Y033352D01*
X043130Y033358D01*
X043133Y033372D01*
X043138Y033388D01*
X043147Y033405D01*
X043152Y033413D01*
X043158Y033422D01*
X043165Y033431D01*
X043174Y033440D01*
Y033440D01*
X043175Y033441D01*
X043180Y033446D01*
X043188Y033453D01*
X043199Y033461D01*
X043213Y033468D01*
X043229Y033475D01*
X043249Y033480D01*
X043259Y033481D01*
X043346D01*
X043353Y033481D01*
D02*
G37*
G36*
X043032Y033481D02*
X043039Y033479D01*
X043047Y033473D01*
X043048D01*
X043049Y033471D01*
X043053Y033467D01*
X043055Y033460D01*
X043057Y033455D01*
Y033450D01*
Y033450D01*
X043056Y033446D01*
X043055Y033440D01*
X043053Y033435D01*
X042902Y033158D01*
X043053Y032880D01*
X043053Y032879D01*
X043055Y032876D01*
X043056Y032871D01*
X043057Y032866D01*
Y032865D01*
Y032864D01*
X043056Y032858D01*
X043053Y032851D01*
X043050Y032847D01*
X043046Y032843D01*
X043044Y032842D01*
X043040Y032839D01*
X043032Y032836D01*
X043022Y032835D01*
X043020D01*
X043016Y032836D01*
X043012Y032837D01*
X043008Y032839D01*
X043003Y032843D01*
X042999Y032848D01*
X042995Y032855D01*
X042867Y033102D01*
X042735Y032847D01*
Y032846D01*
X042734Y032846D01*
X042729Y032841D01*
X042725Y032838D01*
X042721Y032836D01*
X042715Y032836D01*
X042709Y032835D01*
X042707D01*
X042701Y032836D01*
X042694Y032838D01*
X042686Y032843D01*
X042684Y032845D01*
X042682Y032849D01*
X042679Y032857D01*
X042677Y032866D01*
Y032867D01*
X042678Y032870D01*
X042679Y032876D01*
X042681Y032881D01*
X042832Y033158D01*
X042681Y033435D01*
X042677Y033450D01*
Y033451D01*
X042678Y033456D01*
X042681Y033462D01*
X042685Y033471D01*
Y033471D01*
X042687Y033472D01*
X042692Y033477D01*
X042700Y033481D01*
X042705Y033481D01*
X042710Y033482D01*
X042713D01*
X042716Y033481D01*
X042720Y033480D01*
X042725Y033477D01*
X042730Y033473D01*
X042735Y033468D01*
X042738Y033461D01*
X042867Y033215D01*
X042998Y033468D01*
Y033469D01*
X042999Y033471D01*
X043003Y033475D01*
X043007Y033478D01*
X043011Y033481D01*
X043017Y033481D01*
X043023Y033482D01*
X043026D01*
X043032Y033481D01*
D02*
G37*
G36*
X034806Y032457D02*
X034812Y032456D01*
X034819Y032454D01*
X034835Y032450D01*
X034845Y032447D01*
X034855Y032442D01*
X034865Y032438D01*
X034875Y032431D01*
X034886Y032424D01*
X034897Y032416D01*
X034908Y032406D01*
X034919Y032395D01*
X034920D01*
X034922Y032393D01*
X034924Y032391D01*
X034927Y032389D01*
X034936Y032381D01*
X034947Y032370D01*
X034956Y032356D01*
X034965Y032338D01*
X034968Y032328D01*
X034970Y032318D01*
X034972Y032307D01*
X034973Y032294D01*
Y032293D01*
Y032290D01*
Y032286D01*
X034972Y032279D01*
X034971Y032273D01*
X034970Y032265D01*
X034966Y032248D01*
Y032247D01*
X034964Y032245D01*
X034962Y032239D01*
X034960Y032234D01*
X034957Y032226D01*
X034952Y032217D01*
X034947Y032207D01*
X034940Y032197D01*
X034720Y031874D01*
X034937D01*
X034943Y031873D01*
X034950Y031869D01*
X034955Y031868D01*
X034958Y031864D01*
X034959D01*
X034960Y031862D01*
X034964Y031857D01*
X034967Y031850D01*
X034968Y031847D01*
Y031842D01*
Y031841D01*
Y031840D01*
X034967Y031836D01*
X034965Y031828D01*
X034960Y031821D01*
X034958Y031819D01*
X034954Y031816D01*
X034947Y031813D01*
X034941Y031812D01*
X034936Y031811D01*
X034665D01*
X034660Y031812D01*
X034653Y031816D01*
X034650Y031817D01*
X034645Y031821D01*
Y031822D01*
X034643Y031823D01*
X034640Y031827D01*
X034638Y031835D01*
X034636Y031844D01*
Y031846D01*
X034637Y031849D01*
X034638Y031854D01*
X034640Y031858D01*
X034886Y032232D01*
X034896Y032249D01*
X034902Y032264D01*
Y032265D01*
X034903Y032267D01*
X034904Y032269D01*
X034905Y032273D01*
X034906Y032283D01*
X034907Y032294D01*
Y032295D01*
Y032296D01*
X034906Y032301D01*
X034906Y032308D01*
X034903Y032318D01*
X034899Y032329D01*
X034893Y032341D01*
X034885Y032353D01*
X034874Y032364D01*
X034873Y032365D01*
X034871Y032367D01*
X034867Y032369D01*
X034864Y032372D01*
X034858Y032375D01*
X034852Y032379D01*
X034837Y032386D01*
X034836D01*
X034834Y032387D01*
X034830Y032389D01*
X034824Y032390D01*
X034819Y032391D01*
X034812Y032393D01*
X034797Y032394D01*
X034793D01*
X034787Y032393D01*
X034780Y032392D01*
X034772Y032390D01*
X034762Y032387D01*
X034753Y032383D01*
X034744Y032378D01*
X034743Y032377D01*
X034741Y032375D01*
X034736Y032370D01*
X034731Y032365D01*
X034724Y032358D01*
X034718Y032349D01*
X034711Y032338D01*
X034705Y032324D01*
X034704Y032322D01*
X034702Y032318D01*
X034699Y032313D01*
X034693Y032308D01*
X034692Y032308D01*
X034689Y032307D01*
X034684Y032305D01*
X034678Y032303D01*
X034675D01*
X034672Y032304D01*
X034670D01*
X034661Y032307D01*
X034653Y032311D01*
X034651Y032313D01*
X034649Y032318D01*
X034645Y032326D01*
X034644Y032330D01*
X034643Y032336D01*
X034645Y032344D01*
Y032345D01*
X034646Y032347D01*
X034647Y032349D01*
X034649Y032354D01*
X034653Y032364D01*
X034660Y032377D01*
X034669Y032391D01*
X034680Y032406D01*
X034692Y032420D01*
X034707Y032431D01*
X034709Y032432D01*
X034713Y032436D01*
X034722Y032440D01*
X034732Y032445D01*
X034745Y032450D01*
X034760Y032454D01*
X034776Y032457D01*
X034794Y032458D01*
X034801D01*
X034806Y032457D01*
D02*
G37*
G36*
X034429D02*
X034435D01*
X034440Y032456D01*
X034454Y032452D01*
X034470Y032448D01*
X034487Y032440D01*
X034505Y032430D01*
X034513Y032422D01*
X034521Y032415D01*
X034522Y032414D01*
X034523Y032413D01*
X034528Y032408D01*
X034535Y032399D01*
X034543Y032387D01*
X034551Y032372D01*
X034558Y032355D01*
X034563Y032335D01*
X034564Y032325D01*
X034565Y032314D01*
Y031954D01*
Y031953D01*
Y031951D01*
Y031949D01*
X034564Y031944D01*
Y031939D01*
X034563Y031933D01*
X034559Y031919D01*
X034555Y031904D01*
X034547Y031887D01*
X034537Y031869D01*
X034529Y031861D01*
X034522Y031853D01*
X034521D01*
X034520Y031851D01*
X034517Y031849D01*
X034515Y031847D01*
X034506Y031839D01*
X034494Y031832D01*
X034478Y031825D01*
X034461Y031817D01*
X034441Y031813D01*
X034430Y031812D01*
X034419Y031811D01*
X034261D01*
X034257Y031812D01*
X034251Y031813D01*
X034246Y031815D01*
X034240Y031818D01*
X034235Y031824D01*
X034231Y031832D01*
X034230Y031842D01*
Y032426D01*
Y032428D01*
X034231Y032431D01*
X034232Y032436D01*
X034234Y032442D01*
X034238Y032448D01*
X034243Y032453D01*
X034251Y032457D01*
X034261Y032458D01*
X034425D01*
X034429Y032457D01*
D02*
G37*
G36*
X029803Y033481D02*
X029810Y033479D01*
X029819Y033473D01*
X029820D01*
X029821Y033471D01*
X029824Y033467D01*
X029827Y033460D01*
X029829Y033455D01*
Y033450D01*
Y033450D01*
X029828Y033446D01*
X029827Y033440D01*
X029824Y033435D01*
X029674Y033158D01*
X029824Y032880D01*
X029825Y032879D01*
X029827Y032876D01*
X029828Y032871D01*
X029829Y032866D01*
Y032865D01*
Y032864D01*
X029828Y032858D01*
X029824Y032851D01*
X029821Y032847D01*
X029818Y032843D01*
X029816Y032842D01*
X029811Y032839D01*
X029803Y032836D01*
X029794Y032835D01*
X029791D01*
X029788Y032836D01*
X029784Y032837D01*
X029780Y032839D01*
X029775Y032843D01*
X029770Y032848D01*
X029767Y032855D01*
X029638Y033102D01*
X029507Y032847D01*
Y032846D01*
X029505Y032846D01*
X029501Y032841D01*
X029497Y032838D01*
X029493Y032836D01*
X029487Y032836D01*
X029481Y032835D01*
X029479D01*
X029473Y032836D01*
X029465Y032838D01*
X029458Y032843D01*
X029456Y032845D01*
X029453Y032849D01*
X029451Y032857D01*
X029449Y032866D01*
Y032867D01*
X029450Y032870D01*
X029451Y032876D01*
X029452Y032881D01*
X029604Y033158D01*
X029452Y033435D01*
X029449Y033450D01*
Y033451D01*
X029450Y033456D01*
X029452Y033462D01*
X029457Y033471D01*
Y033471D01*
X029459Y033472D01*
X029463Y033477D01*
X029472Y033481D01*
X029476Y033481D01*
X029482Y033482D01*
X029484D01*
X029488Y033481D01*
X029492Y033480D01*
X029496Y033477D01*
X029502Y033473D01*
X029506Y033468D01*
X029510Y033461D01*
X029638Y033215D01*
X029769Y033468D01*
Y033469D01*
X029770Y033471D01*
X029775Y033475D01*
X029779Y033478D01*
X029783Y033481D01*
X029789Y033481D01*
X029795Y033482D01*
X029798D01*
X029803Y033481D01*
D02*
G37*
G36*
X030525Y033481D02*
X030531Y033477D01*
X030535Y033474D01*
X030538Y033471D01*
X030540Y033469D01*
X030543Y033464D01*
X030546Y033457D01*
X030547Y033449D01*
Y033448D01*
X030547Y033444D01*
X030546Y033439D01*
X030543Y033433D01*
X030542Y033432D01*
X030539Y033430D01*
X030535Y033425D01*
X030527Y033420D01*
X030518Y033417D01*
X030508Y033412D01*
X030492Y033403D01*
X030491D01*
X030489Y033401D01*
X030486Y033399D01*
X030481Y033397D01*
X030470Y033389D01*
X030458Y033379D01*
X030457Y033379D01*
X030454Y033376D01*
X030448Y033371D01*
X030442Y033365D01*
X030434Y033356D01*
X030425Y033346D01*
X030416Y033334D01*
X030406Y033320D01*
X030405Y033319D01*
X030404Y033316D01*
X030401Y033311D01*
X030397Y033304D01*
X030394Y033296D01*
X030389Y033286D01*
X030384Y033275D01*
X030380Y033263D01*
X030379Y033261D01*
X030378Y033257D01*
X030376Y033252D01*
X030374Y033245D01*
X030370Y033228D01*
X030369Y033220D01*
X030368Y033213D01*
X030498D01*
X030502Y033212D01*
X030507D01*
X030514Y033211D01*
X030527Y033207D01*
X030544Y033203D01*
X030561Y033194D01*
X030578Y033184D01*
X030587Y033177D01*
X030595Y033170D01*
X030596Y033169D01*
X030597Y033168D01*
X030598Y033165D01*
X030601Y033163D01*
X030609Y033154D01*
X030617Y033142D01*
X030624Y033126D01*
X030631Y033109D01*
X030636Y033090D01*
X030638Y033079D01*
Y033068D01*
Y032979D01*
Y032978D01*
Y032976D01*
Y032973D01*
X030637Y032969D01*
Y032963D01*
X030636Y032958D01*
X030632Y032943D01*
X030628Y032928D01*
X030619Y032910D01*
X030609Y032893D01*
X030602Y032885D01*
X030595Y032877D01*
X030594D01*
X030593Y032875D01*
X030590Y032873D01*
X030588Y032870D01*
X030578Y032863D01*
X030567Y032856D01*
X030551Y032848D01*
X030534Y032841D01*
X030515Y032836D01*
X030504Y032836D01*
X030493Y032835D01*
X030442D01*
X030438Y032836D01*
X030427Y032836D01*
X030414Y032840D01*
X030399Y032845D01*
X030383Y032852D01*
X030365Y032862D01*
X030356Y032868D01*
X030348Y032876D01*
X030347Y032877D01*
X030346Y032877D01*
X030344Y032880D01*
X030342Y032883D01*
X030334Y032892D01*
X030326Y032904D01*
X030318Y032919D01*
X030312Y032937D01*
X030306Y032956D01*
X030305Y032967D01*
X030304Y032978D01*
Y033177D01*
Y033178D01*
Y033182D01*
Y033186D01*
X030305Y033194D01*
X030306Y033202D01*
X030307Y033212D01*
X030309Y033224D01*
X030311Y033235D01*
X030313Y033249D01*
X030316Y033263D01*
X030325Y033293D01*
X030331Y033307D01*
X030337Y033323D01*
X030345Y033338D01*
X030353Y033354D01*
X030354Y033355D01*
X030356Y033358D01*
X030359Y033362D01*
X030363Y033368D01*
X030369Y033375D01*
X030375Y033383D01*
X030384Y033392D01*
X030393Y033402D01*
X030403Y033412D01*
X030414Y033422D01*
X030426Y033433D01*
X030440Y033443D01*
X030454Y033453D01*
X030470Y033462D01*
X030486Y033471D01*
X030504Y033479D01*
X030517Y033481D01*
X030519D01*
X030525Y033481D01*
D02*
G37*
G36*
X043660Y033481D02*
X043668Y033478D01*
X043677Y033472D01*
X043677D01*
X043678Y033471D01*
X043682Y033466D01*
X043685Y033460D01*
X043687Y033455D01*
Y033450D01*
X043686Y033444D01*
X043602Y033032D01*
X043713D01*
Y033135D01*
Y033136D01*
Y033137D01*
X043714Y033142D01*
X043717Y033149D01*
X043722Y033156D01*
Y033157D01*
X043724Y033158D01*
X043728Y033162D01*
X043735Y033165D01*
X043739Y033167D01*
X043746D01*
X043751Y033166D01*
X043759Y033164D01*
X043766Y033158D01*
X043767D01*
X043768Y033156D01*
X043771Y033153D01*
X043775Y033145D01*
X043777Y033141D01*
Y033135D01*
Y033032D01*
X043836D01*
X043841Y033031D01*
X043849Y033028D01*
X043853Y033026D01*
X043857Y033022D01*
X043858D01*
X043859Y033020D01*
X043862Y033016D01*
X043865Y033009D01*
X043867Y033005D01*
Y033000D01*
Y033000D01*
Y032999D01*
X043866Y032994D01*
X043863Y032987D01*
X043858Y032979D01*
X043856Y032978D01*
X043851Y032975D01*
X043844Y032971D01*
X043840Y032970D01*
X043834Y032969D01*
X043777D01*
Y032866D01*
Y032865D01*
Y032863D01*
X043776Y032857D01*
X043773Y032850D01*
X043768Y032843D01*
X043766Y032842D01*
X043761Y032839D01*
X043753Y032836D01*
X043744Y032835D01*
X043743D01*
X043739Y032836D01*
X043733Y032837D01*
X043724Y032840D01*
X043722Y032842D01*
X043718Y032846D01*
X043715Y032855D01*
X043714Y032860D01*
X043713Y032866D01*
Y032969D01*
X043562D01*
X043555Y032970D01*
X043548Y032973D01*
X043541Y032978D01*
X043540Y032979D01*
X043537Y032984D01*
X043534Y032991D01*
X043533Y033000D01*
Y033006D01*
X043623Y033454D01*
Y033455D01*
X043624Y033457D01*
X043625Y033462D01*
X043628Y033469D01*
X043635Y033475D01*
X043652Y033481D01*
X043657D01*
X043660Y033481D01*
D02*
G37*
G36*
X030125Y033481D02*
X030133Y033480D01*
X030142Y033478D01*
X030152Y033475D01*
X030163Y033472D01*
X030165D01*
X030169Y033471D01*
X030174Y033469D01*
X030181Y033466D01*
X030189Y033463D01*
X030199Y033459D01*
X030217Y033449D01*
X030218Y033448D01*
X030220Y033447D01*
X030222Y033444D01*
X030225Y033440D01*
X030226Y033440D01*
X030228Y033436D01*
X030230Y033430D01*
X030232Y033423D01*
Y033422D01*
Y033421D01*
X030231Y033416D01*
X030228Y033408D01*
X030226Y033404D01*
X030222Y033399D01*
X030220Y033398D01*
X030216Y033395D01*
X030208Y033391D01*
X030203Y033390D01*
X030198Y033389D01*
X030182Y033395D01*
X030180Y033396D01*
X030177Y033399D01*
X030169Y033402D01*
X030160Y033407D01*
X030149Y033411D01*
X030137Y033415D01*
X030123Y033418D01*
X030108Y033419D01*
X030036D01*
X030030Y033418D01*
X030022Y033416D01*
X030013Y033412D01*
X030003Y033409D01*
X029994Y033402D01*
X029984Y033394D01*
X029984Y033393D01*
X029981Y033389D01*
X029977Y033385D01*
X029974Y033378D01*
X029970Y033369D01*
X029966Y033359D01*
X029964Y033348D01*
X029963Y033336D01*
X029964Y033321D01*
X029965Y033313D01*
X029967Y033307D01*
Y033306D01*
X029968Y033305D01*
X029972Y033299D01*
X029977Y033291D01*
X029986Y033280D01*
X030189Y033073D01*
X030190Y033072D01*
X030192Y033071D01*
X030196Y033067D01*
X030200Y033062D01*
X030205Y033056D01*
X030210Y033049D01*
X030214Y033041D01*
X030219Y033031D01*
X030222Y033021D01*
X030228Y033002D01*
X030230Y032991D01*
Y032978D01*
Y032977D01*
Y032975D01*
Y032972D01*
X030229Y032968D01*
X030228Y032963D01*
X030227Y032958D01*
X030224Y032943D01*
X030219Y032928D01*
X030210Y032910D01*
X030205Y032902D01*
X030199Y032893D01*
X030191Y032884D01*
X030183Y032876D01*
X030181Y032874D01*
X030177Y032869D01*
X030169Y032863D01*
X030158Y032856D01*
X030144Y032847D01*
X030127Y032841D01*
X030107Y032836D01*
X030097Y032836D01*
X030085Y032835D01*
X030014D01*
X030009Y032836D01*
X030004D01*
X029998Y032836D01*
X029984Y032839D01*
X029967Y032843D01*
X029949Y032849D01*
X029930Y032857D01*
X029912Y032868D01*
X029902Y032879D01*
X029899Y032892D01*
Y032893D01*
Y032894D01*
X029900Y032899D01*
X029903Y032906D01*
X029907Y032914D01*
Y032915D01*
X029909Y032916D01*
X029913Y032920D01*
X029921Y032924D01*
X029925Y032925D01*
X029930Y032926D01*
X029945Y032920D01*
X029947Y032919D01*
X029952Y032917D01*
X029958Y032913D01*
X029967Y032909D01*
X029978Y032905D01*
X029991Y032901D01*
X030005Y032898D01*
X030018Y032898D01*
X030089D01*
X030096Y032898D01*
X030103Y032900D01*
X030112Y032903D01*
X030122Y032908D01*
X030132Y032913D01*
X030141Y032921D01*
X030142Y032922D01*
X030145Y032926D01*
X030149Y032930D01*
X030154Y032938D01*
X030158Y032946D01*
X030162Y032956D01*
X030165Y032966D01*
X030166Y032978D01*
X030164Y032992D01*
Y032993D01*
Y032994D01*
X030162Y032999D01*
Y033000D01*
X030161Y033001D01*
X030159Y033006D01*
Y033007D01*
X030158Y033009D01*
X030158Y033011D01*
X030156Y033015D01*
X030149Y033024D01*
X030141Y033035D01*
X029941Y033235D01*
X029940Y033236D01*
X029938Y033238D01*
X029934Y033243D01*
X029931Y033247D01*
X029926Y033255D01*
X029921Y033263D01*
X029914Y033272D01*
X029909Y033283D01*
Y033284D01*
X029907Y033287D01*
X029906Y033293D01*
X029904Y033299D01*
X029903Y033307D01*
X029901Y033317D01*
X029900Y033327D01*
X029899Y033338D01*
Y033338D01*
Y033340D01*
Y033343D01*
X029900Y033348D01*
X029901Y033352D01*
X029902Y033358D01*
X029904Y033372D01*
X029910Y033388D01*
X029919Y033405D01*
X029923Y033413D01*
X029930Y033422D01*
X029937Y033431D01*
X029945Y033440D01*
Y033440D01*
X029947Y033441D01*
X029952Y033446D01*
X029960Y033453D01*
X029971Y033461D01*
X029984Y033468D01*
X030001Y033475D01*
X030021Y033480D01*
X030031Y033481D01*
X030117D01*
X030125Y033481D01*
D02*
G37*
G36*
X034132Y032457D02*
X034139Y032454D01*
X034148Y032449D01*
X034148D01*
X034149Y032447D01*
X034153Y032443D01*
X034156Y032436D01*
X034158Y032431D01*
Y032426D01*
X034157Y032419D01*
X033999Y031837D01*
Y031837D01*
X033997Y031834D01*
X033995Y031829D01*
X033993Y031825D01*
X033988Y031819D01*
X033983Y031816D01*
X033976Y031812D01*
X033968Y031811D01*
X033964D01*
X033961Y031813D01*
X033956Y031815D01*
X033951Y031817D01*
X033946Y031822D01*
X033942Y031828D01*
X033938Y031837D01*
X033780Y032419D01*
X033780Y032426D01*
Y032427D01*
Y032428D01*
X033780Y032433D01*
X033783Y032441D01*
X033789Y032448D01*
Y032449D01*
X033790Y032450D01*
X033795Y032453D01*
X033802Y032456D01*
X033807Y032458D01*
X033813D01*
X033817Y032457D01*
X033821Y032456D01*
X033827Y032452D01*
X033829Y032451D01*
X033831Y032449D01*
X033837Y032443D01*
X033839Y032440D01*
X033841Y032435D01*
X033969Y031941D01*
X034095Y032432D01*
Y032433D01*
Y032434D01*
X034097Y032439D01*
X034100Y032444D01*
X034105Y032450D01*
X034107Y032451D01*
X034110Y032453D01*
X034117Y032456D01*
X034125Y032458D01*
X034127D01*
X034132Y032457D01*
D02*
G37*
G36*
X036755Y032418D02*
X036763Y032415D01*
X036771Y032409D01*
X036772D01*
X036773Y032408D01*
X036776Y032404D01*
X036779Y032397D01*
X036781Y032392D01*
Y032387D01*
Y031803D01*
Y031802D01*
Y031800D01*
X036780Y031794D01*
X036777Y031787D01*
X036772Y031780D01*
X036770Y031779D01*
X036765Y031776D01*
X036757Y031773D01*
X036748Y031772D01*
X036747D01*
X036744Y031773D01*
X036737Y031774D01*
X036728Y031777D01*
X036726Y031779D01*
X036723Y031783D01*
X036719Y031792D01*
X036718Y031797D01*
X036717Y031803D01*
Y032324D01*
X036636Y032230D01*
X036634Y032228D01*
X036630Y032225D01*
X036623Y032223D01*
X036614Y032221D01*
X036612D01*
X036606Y032222D01*
X036599Y032224D01*
X036591Y032230D01*
X036590Y032232D01*
X036587Y032236D01*
X036584Y032244D01*
X036582Y032253D01*
Y032254D01*
X036583Y032257D01*
X036586Y032264D01*
X036588Y032268D01*
X036591Y032274D01*
X036725Y032409D01*
X036727Y032411D01*
X036732Y032414D01*
X036738Y032417D01*
X036747Y032418D01*
X036750D01*
X036755Y032418D01*
D02*
G37*
G36*
X036485D02*
X036492Y032415D01*
X036500Y032409D01*
X036501D01*
X036502Y032408D01*
X036506Y032404D01*
X036509Y032397D01*
X036510Y032392D01*
Y032387D01*
Y031803D01*
Y031802D01*
Y031800D01*
X036509Y031794D01*
X036507Y031787D01*
X036501Y031780D01*
X036499Y031779D01*
X036495Y031776D01*
X036487Y031773D01*
X036478Y031772D01*
X036477D01*
X036473Y031773D01*
X036467Y031774D01*
X036458Y031777D01*
X036456Y031779D01*
X036452Y031783D01*
X036448Y031792D01*
X036448Y031797D01*
X036447Y031803D01*
Y032324D01*
X036366Y032230D01*
X036364Y032228D01*
X036359Y032225D01*
X036353Y032223D01*
X036344Y032221D01*
X036342D01*
X036335Y032222D01*
X036328Y032224D01*
X036321Y032230D01*
X036319Y032232D01*
X036316Y032236D01*
X036314Y032244D01*
X036312Y032253D01*
Y032254D01*
X036313Y032257D01*
X036315Y032264D01*
X036317Y032268D01*
X036320Y032274D01*
X036455Y032409D01*
X036457Y032411D01*
X036461Y032414D01*
X036468Y032417D01*
X036477Y032418D01*
X036479D01*
X036485Y032418D01*
D02*
G37*
G36*
X036829Y026551D02*
X036837Y026549D01*
X036845Y026543D01*
X036846D01*
X036847Y026541D01*
X036850Y026538D01*
X036853Y026530D01*
X036855Y026526D01*
Y026521D01*
Y025936D01*
Y025936D01*
Y025934D01*
X036854Y025928D01*
X036851Y025921D01*
X036846Y025914D01*
X036844Y025913D01*
X036839Y025910D01*
X036831Y025906D01*
X036822Y025906D01*
X036821D01*
X036818Y025906D01*
X036811Y025908D01*
X036802Y025911D01*
X036800Y025913D01*
X036797Y025917D01*
X036793Y025926D01*
X036792Y025931D01*
X036791Y025936D01*
Y026458D01*
X036710Y026364D01*
X036708Y026362D01*
X036704Y026359D01*
X036697Y026356D01*
X036688Y026355D01*
X036686D01*
X036680Y026356D01*
X036673Y026358D01*
X036665Y026364D01*
X036664Y026366D01*
X036661Y026370D01*
X036658Y026377D01*
X036656Y026387D01*
Y026387D01*
X036657Y026391D01*
X036660Y026397D01*
X036662Y026402D01*
X036665Y026407D01*
X036799Y026543D01*
X036801Y026545D01*
X036806Y026548D01*
X036812Y026551D01*
X036821Y026552D01*
X036824D01*
X036829Y026551D01*
D02*
G37*
G36*
X036449D02*
X036454D01*
X036460Y026551D01*
X036473Y026547D01*
X036490Y026542D01*
X036507Y026534D01*
X036524Y026524D01*
X036532Y026517D01*
X036541Y026509D01*
X036542Y026509D01*
X036542Y026508D01*
X036548Y026502D01*
X036554Y026493D01*
X036562Y026481D01*
X036571Y026467D01*
X036578Y026449D01*
X036583Y026429D01*
X036583Y026419D01*
X036584Y026408D01*
Y026318D01*
Y026317D01*
Y026315D01*
Y026313D01*
X036583Y026308D01*
Y026304D01*
X036583Y026297D01*
X036579Y026284D01*
X036574Y026267D01*
X036566Y026251D01*
X036556Y026233D01*
X036549Y026225D01*
X036542Y026217D01*
X036541D01*
X036540Y026215D01*
X036537Y026213D01*
X036534Y026211D01*
X036525Y026203D01*
X036513Y026196D01*
X036498Y026189D01*
X036480Y026182D01*
X036460Y026177D01*
X036450Y026176D01*
X036439Y026175D01*
X036443D01*
X036581Y025950D01*
X036582Y025949D01*
X036583Y025947D01*
X036583Y025942D01*
X036584Y025936D01*
Y025935D01*
Y025934D01*
X036583Y025928D01*
X036580Y025921D01*
X036577Y025917D01*
X036573Y025913D01*
X036572Y025912D01*
X036567Y025909D01*
X036560Y025906D01*
X036551Y025906D01*
X036546D01*
X036541Y025906D01*
X036535Y025908D01*
X036534Y025909D01*
X036532Y025912D01*
X036528Y025916D01*
X036523Y025922D01*
X036376Y026175D01*
X036314D01*
Y025936D01*
Y025936D01*
Y025934D01*
X036313Y025928D01*
X036310Y025921D01*
X036305Y025914D01*
X036303Y025913D01*
X036298Y025910D01*
X036290Y025906D01*
X036281Y025906D01*
X036280D01*
X036276Y025906D01*
X036270Y025908D01*
X036261Y025911D01*
X036259Y025913D01*
X036255Y025917D01*
X036252Y025926D01*
X036251Y025931D01*
X036250Y025936D01*
Y026520D01*
Y026522D01*
X036251Y026526D01*
X036252Y026530D01*
X036254Y026537D01*
X036257Y026542D01*
X036263Y026548D01*
X036271Y026551D01*
X036281Y026552D01*
X036444D01*
X036449Y026551D01*
D02*
G37*
G36*
X037359Y028923D02*
X037366Y028921D01*
X037375Y028915D01*
X037375D01*
X037376Y028913D01*
X037380Y028910D01*
X037383Y028903D01*
X037385Y028898D01*
Y028893D01*
Y028309D01*
Y028308D01*
Y028306D01*
X037384Y028300D01*
X037381Y028293D01*
X037375Y028286D01*
X037374Y028285D01*
X037369Y028282D01*
X037361Y028278D01*
X037352Y028278D01*
X037351D01*
X037347Y028278D01*
X037341Y028280D01*
X037332Y028283D01*
X037330Y028285D01*
X037326Y028289D01*
X037323Y028298D01*
X037322Y028303D01*
X037321Y028309D01*
Y028830D01*
X037240Y028736D01*
X037238Y028734D01*
X037233Y028731D01*
X037227Y028728D01*
X037218Y028727D01*
X037216D01*
X037210Y028728D01*
X037202Y028730D01*
X037195Y028736D01*
X037193Y028738D01*
X037191Y028742D01*
X037188Y028749D01*
X037186Y028759D01*
Y028759D01*
X037187Y028763D01*
X037190Y028770D01*
X037191Y028774D01*
X037194Y028780D01*
X037329Y028915D01*
X037331Y028917D01*
X037335Y028920D01*
X037342Y028923D01*
X037351Y028924D01*
X037354D01*
X037359Y028923D01*
D02*
G37*
G36*
X036978D02*
X036984D01*
X036989Y028923D01*
X037003Y028919D01*
X037019Y028914D01*
X037037Y028906D01*
X037054Y028896D01*
X037062Y028889D01*
X037070Y028882D01*
X037071Y028881D01*
X037072Y028880D01*
X037078Y028874D01*
X037084Y028865D01*
X037092Y028853D01*
X037100Y028839D01*
X037108Y028821D01*
X037112Y028801D01*
X037113Y028791D01*
X037114Y028780D01*
Y028421D01*
Y028420D01*
Y028418D01*
Y028415D01*
X037113Y028411D01*
Y028406D01*
X037112Y028400D01*
X037109Y028386D01*
X037104Y028370D01*
X037096Y028353D01*
X037086Y028336D01*
X037078Y028328D01*
X037071Y028319D01*
X037070D01*
X037069Y028318D01*
X037067Y028316D01*
X037064Y028313D01*
X037055Y028306D01*
X037043Y028299D01*
X037027Y028291D01*
X037010Y028284D01*
X036990Y028279D01*
X036979Y028278D01*
X036968Y028278D01*
X036810D01*
X036806Y028278D01*
X036801Y028279D01*
X036795Y028281D01*
X036790Y028285D01*
X036784Y028290D01*
X036781Y028299D01*
X036780Y028309D01*
Y028892D01*
Y028894D01*
X036781Y028898D01*
X036782Y028903D01*
X036783Y028909D01*
X036787Y028914D01*
X036792Y028920D01*
X036801Y028923D01*
X036811Y028924D01*
X036974D01*
X036978Y028923D01*
D02*
G37*
G36*
X036104Y032418D02*
X036110D01*
X036115Y032417D01*
X036129Y032413D01*
X036145Y032408D01*
X036162Y032400D01*
X036180Y032390D01*
X036188Y032383D01*
X036196Y032376D01*
X036197Y032375D01*
X036198Y032374D01*
X036203Y032368D01*
X036210Y032359D01*
X036218Y032347D01*
X036226Y032333D01*
X036233Y032316D01*
X036238Y032295D01*
X036239Y032285D01*
X036240Y032275D01*
Y032184D01*
Y032183D01*
Y032182D01*
Y032179D01*
X036239Y032174D01*
Y032170D01*
X036238Y032163D01*
X036234Y032150D01*
X036230Y032133D01*
X036222Y032117D01*
X036212Y032100D01*
X036204Y032091D01*
X036197Y032083D01*
X036196D01*
X036195Y032081D01*
X036192Y032080D01*
X036190Y032077D01*
X036181Y032070D01*
X036169Y032062D01*
X036153Y032055D01*
X036136Y032048D01*
X036116Y032043D01*
X036105Y032042D01*
X036094Y032041D01*
X036099D01*
X036236Y031816D01*
X036237Y031815D01*
X036238Y031813D01*
X036239Y031808D01*
X036240Y031802D01*
Y031801D01*
Y031800D01*
X036239Y031794D01*
X036235Y031787D01*
X036233Y031783D01*
X036229Y031779D01*
X036227Y031778D01*
X036223Y031775D01*
X036215Y031773D01*
X036206Y031772D01*
X036202D01*
X036196Y031773D01*
X036191Y031774D01*
X036190Y031775D01*
X036187Y031778D01*
X036183Y031782D01*
X036179Y031788D01*
X036031Y032041D01*
X035969D01*
Y031803D01*
Y031802D01*
Y031800D01*
X035968Y031794D01*
X035966Y031787D01*
X035960Y031780D01*
X035958Y031779D01*
X035954Y031776D01*
X035946Y031773D01*
X035936Y031772D01*
X035936D01*
X035932Y031773D01*
X035926Y031774D01*
X035916Y031777D01*
X035915Y031779D01*
X035911Y031783D01*
X035907Y031792D01*
X035906Y031797D01*
X035906Y031803D01*
Y032387D01*
Y032388D01*
X035906Y032392D01*
X035907Y032397D01*
X035909Y032403D01*
X035913Y032408D01*
X035918Y032414D01*
X035926Y032418D01*
X035936Y032418D01*
X036100D01*
X036104Y032418D01*
D02*
G37*
G36*
X036681Y028923D02*
X036689Y028921D01*
X036697Y028915D01*
X036698D01*
X036699Y028913D01*
X036702Y028910D01*
X036705Y028903D01*
X036707Y028898D01*
Y028892D01*
X036706Y028885D01*
X036548Y028304D01*
Y028303D01*
X036546Y028300D01*
X036545Y028296D01*
X036542Y028291D01*
X036537Y028286D01*
X036532Y028282D01*
X036526Y028278D01*
X036517Y028278D01*
X036514D01*
X036510Y028279D01*
X036505Y028281D01*
X036500Y028284D01*
X036495Y028288D01*
X036491Y028295D01*
X036487Y028304D01*
X036330Y028885D01*
X036329Y028892D01*
Y028893D01*
Y028894D01*
X036330Y028900D01*
X036332Y028907D01*
X036338Y028914D01*
Y028915D01*
X036340Y028916D01*
X036344Y028920D01*
X036352Y028923D01*
X036356Y028924D01*
X036362D01*
X036366Y028923D01*
X036371Y028923D01*
X036376Y028919D01*
X036378Y028918D01*
X036381Y028915D01*
X036386Y028910D01*
X036388Y028906D01*
X036391Y028902D01*
X036518Y028408D01*
X036644Y028899D01*
Y028900D01*
Y028901D01*
X036646Y028905D01*
X036649Y028911D01*
X036654Y028916D01*
X036656Y028917D01*
X036659Y028920D01*
X036666Y028923D01*
X036674Y028924D01*
X036676D01*
X036681Y028923D01*
D02*
G37*
G36*
X023128Y032704D02*
X023134D01*
X023139Y032703D01*
X023153Y032700D01*
X023169Y032695D01*
X023186Y032687D01*
X023204Y032677D01*
X023212Y032669D01*
X023220Y032662D01*
X023221Y032661D01*
X023222Y032660D01*
X023227Y032655D01*
X023234Y032646D01*
X023242Y032634D01*
X023250Y032619D01*
X023257Y032602D01*
X023262Y032582D01*
X023263Y032572D01*
X023264Y032561D01*
Y032471D01*
Y032470D01*
Y032468D01*
Y032465D01*
X023263Y032461D01*
Y032456D01*
X023262Y032450D01*
X023258Y032436D01*
X023254Y032420D01*
X023246Y032403D01*
X023236Y032386D01*
X023228Y032378D01*
X023221Y032370D01*
X023220D01*
X023219Y032368D01*
X023216Y032366D01*
X023214Y032363D01*
X023205Y032356D01*
X023193Y032349D01*
X023177Y032342D01*
X023160Y032334D01*
X023140Y032330D01*
X023129Y032329D01*
X023118Y032328D01*
X023123D01*
X023260Y032103D01*
X023261Y032102D01*
X023262Y032099D01*
X023263Y032095D01*
X023264Y032088D01*
Y032087D01*
Y032086D01*
X023263Y032081D01*
X023259Y032074D01*
X023256Y032070D01*
X023253Y032065D01*
X023251Y032065D01*
X023246Y032062D01*
X023239Y032059D01*
X023230Y032058D01*
X023226D01*
X023220Y032059D01*
X023215Y032061D01*
X023214Y032062D01*
X023211Y032065D01*
X023207Y032068D01*
X023203Y032075D01*
X023055Y032328D01*
X022993D01*
Y032089D01*
Y032088D01*
Y032086D01*
X022992Y032081D01*
X022990Y032074D01*
X022984Y032066D01*
X022982Y032065D01*
X022978Y032063D01*
X022970Y032059D01*
X022960Y032058D01*
X022960D01*
X022956Y032059D01*
X022949Y032061D01*
X022940Y032064D01*
X022939Y032065D01*
X022935Y032070D01*
X022931Y032078D01*
X022930Y032084D01*
X022929Y032089D01*
Y032673D01*
Y032675D01*
X022930Y032679D01*
X022931Y032683D01*
X022933Y032690D01*
X022937Y032695D01*
X022942Y032700D01*
X022950Y032704D01*
X022960Y032705D01*
X023123D01*
X023128Y032704D01*
D02*
G37*
G36*
X023555D02*
X023562Y032700D01*
X023565Y032698D01*
X023569Y032694D01*
X023571Y032692D01*
X023574Y032688D01*
X023576Y032680D01*
X023578Y032672D01*
Y032671D01*
X023577Y032668D01*
X023576Y032662D01*
X023574Y032657D01*
X023573Y032656D01*
X023570Y032653D01*
X023565Y032649D01*
X023558Y032643D01*
X023549Y032640D01*
X023539Y032636D01*
X023523Y032627D01*
X023522D01*
X023520Y032625D01*
X023516Y032623D01*
X023512Y032620D01*
X023501Y032612D01*
X023489Y032603D01*
X023488Y032602D01*
X023484Y032599D01*
X023479Y032595D01*
X023472Y032588D01*
X023464Y032579D01*
X023456Y032569D01*
X023447Y032557D01*
X023437Y032544D01*
X023436Y032543D01*
X023434Y032539D01*
X023431Y032535D01*
X023428Y032527D01*
X023424Y032519D01*
X023420Y032509D01*
X023415Y032498D01*
X023410Y032486D01*
X023410Y032485D01*
X023409Y032481D01*
X023407Y032475D01*
X023405Y032468D01*
X023400Y032452D01*
X023400Y032444D01*
X023399Y032436D01*
X023529D01*
X023533Y032435D01*
X023538D01*
X023544Y032434D01*
X023558Y032431D01*
X023574Y032426D01*
X023592Y032418D01*
X023609Y032408D01*
X023617Y032401D01*
X023625Y032393D01*
X023626Y032393D01*
X023627Y032392D01*
X023629Y032389D01*
X023632Y032386D01*
X023639Y032377D01*
X023647Y032365D01*
X023655Y032350D01*
X023662Y032332D01*
X023666Y032313D01*
X023668Y032302D01*
Y032291D01*
Y032202D01*
Y032201D01*
Y032199D01*
Y032197D01*
X023667Y032192D01*
Y032187D01*
X023666Y032181D01*
X023663Y032167D01*
X023658Y032151D01*
X023650Y032134D01*
X023640Y032116D01*
X023633Y032108D01*
X023625Y032100D01*
X023625D01*
X023624Y032098D01*
X023621Y032096D01*
X023618Y032094D01*
X023609Y032086D01*
X023597Y032079D01*
X023582Y032072D01*
X023564Y032065D01*
X023545Y032060D01*
X023534Y032059D01*
X023523Y032058D01*
X023472D01*
X023469Y032059D01*
X023458Y032060D01*
X023445Y032064D01*
X023430Y032068D01*
X023413Y032076D01*
X023396Y032086D01*
X023387Y032092D01*
X023379Y032099D01*
X023378Y032100D01*
X023377Y032101D01*
X023375Y032104D01*
X023372Y032106D01*
X023365Y032116D01*
X023357Y032127D01*
X023349Y032143D01*
X023342Y032160D01*
X023337Y032179D01*
X023336Y032190D01*
X023335Y032201D01*
Y032401D01*
Y032402D01*
Y032405D01*
Y032410D01*
X023336Y032417D01*
X023337Y032425D01*
X023338Y032435D01*
X023339Y032447D01*
X023341Y032459D01*
X023344Y032473D01*
X023347Y032486D01*
X023356Y032516D01*
X023361Y032531D01*
X023368Y032546D01*
X023376Y032562D01*
X023384Y032577D01*
X023385Y032578D01*
X023387Y032581D01*
X023389Y032586D01*
X023394Y032592D01*
X023400Y032598D01*
X023406Y032607D01*
X023414Y032616D01*
X023423Y032626D01*
X023433Y032636D01*
X023444Y032646D01*
X023457Y032657D01*
X023471Y032667D01*
X023484Y032677D01*
X023501Y032686D01*
X023517Y032695D01*
X023534Y032702D01*
X023547Y032705D01*
X023550D01*
X023555Y032704D01*
D02*
G37*
G36*
X050640Y019082D02*
X050646D01*
X050654Y019081D01*
X050670Y019077D01*
X050690Y019071D01*
X050711Y019062D01*
X050731Y019049D01*
X050741Y019042D01*
X050751Y019033D01*
X050752Y019032D01*
X050753Y019031D01*
X050756Y019027D01*
X050759Y019024D01*
X050768Y019013D01*
X050776Y018999D01*
X050785Y018980D01*
X050794Y018960D01*
X050799Y018937D01*
X050801Y018924D01*
Y018910D01*
Y018857D01*
Y018839D01*
Y018827D01*
X050797Y018815D01*
Y018814D01*
Y018813D01*
X050796Y018810D01*
X050795Y018806D01*
X050792Y018795D01*
X050785Y018783D01*
X050784Y018781D01*
X050782Y018777D01*
X050778Y018772D01*
X050774Y018765D01*
X050768Y018757D01*
X050761Y018749D01*
X050752Y018741D01*
X050742Y018733D01*
X050744Y018732D01*
X050748Y018731D01*
X050754Y018727D01*
X050762Y018722D01*
X050771Y018715D01*
X050781Y018705D01*
X050792Y018693D01*
X050801Y018678D01*
X050803Y018675D01*
X050806Y018670D01*
X050810Y018661D01*
X050816Y018650D01*
X050820Y018637D01*
X050824Y018622D01*
X050828Y018604D01*
X050829Y018587D01*
Y018480D01*
Y018479D01*
Y018477D01*
Y018473D01*
X050828Y018468D01*
Y018461D01*
X050827Y018455D01*
X050822Y018437D01*
X050817Y018419D01*
X050807Y018398D01*
X050795Y018377D01*
X050786Y018367D01*
X050777Y018357D01*
X050776D01*
X050775Y018355D01*
X050772Y018353D01*
X050769Y018350D01*
X050758Y018341D01*
X050744Y018332D01*
X050725Y018323D01*
X050704Y018315D01*
X050681Y018309D01*
X050668Y018308D01*
X050655Y018307D01*
X050516D01*
X050510Y018308D01*
X050501Y018311D01*
X050492Y018317D01*
Y018318D01*
X050491Y018319D01*
X050488Y018325D01*
X050483Y018333D01*
X050482Y018344D01*
Y018345D01*
X050483Y018351D01*
X050486Y018357D01*
X050491Y018367D01*
Y018368D01*
X050493Y018369D01*
X050498Y018375D01*
X050506Y018380D01*
X050513Y018381D01*
X050519Y018383D01*
X050662D01*
X050669Y018384D01*
X050679Y018386D01*
X050690Y018389D01*
X050701Y018395D01*
X050713Y018401D01*
X050724Y018410D01*
X050725Y018411D01*
X050728Y018415D01*
X050733Y018421D01*
X050738Y018429D01*
X050744Y018439D01*
X050748Y018451D01*
X050751Y018464D01*
X050752Y018480D01*
Y018588D01*
Y018590D01*
Y018595D01*
X050751Y018602D01*
X050749Y018611D01*
X050746Y018622D01*
X050740Y018633D01*
X050734Y018645D01*
X050724Y018656D01*
X050723Y018657D01*
X050719Y018660D01*
X050713Y018666D01*
X050705Y018671D01*
X050695Y018675D01*
X050683Y018681D01*
X050670Y018684D01*
X050655Y018685D01*
X050624D01*
X050618Y018686D01*
X050609Y018690D01*
X050600Y018695D01*
Y018696D01*
X050599Y018697D01*
X050596Y018703D01*
X050592Y018712D01*
X050590Y018722D01*
Y018724D01*
X050592Y018729D01*
X050594Y018736D01*
X050599Y018745D01*
Y018746D01*
X050601Y018748D01*
X050606Y018753D01*
X050615Y018758D01*
X050621Y018760D01*
X050628Y018761D01*
X050634D01*
X050642Y018762D01*
X050652Y018764D01*
X050663Y018767D01*
X050674Y018773D01*
X050686Y018779D01*
X050697Y018788D01*
X050698Y018789D01*
X050701Y018793D01*
X050705Y018799D01*
X050711Y018808D01*
X050716Y018818D01*
X050721Y018830D01*
X050724Y018843D01*
X050725Y018857D01*
Y018910D01*
Y018913D01*
Y018917D01*
X050724Y018925D01*
X050722Y018934D01*
X050718Y018945D01*
X050713Y018956D01*
X050706Y018968D01*
X050697Y018979D01*
X050695Y018980D01*
X050692Y018984D01*
X050686Y018988D01*
X050678Y018993D01*
X050668Y018999D01*
X050656Y019003D01*
X050643Y019007D01*
X050628Y019008D01*
X050517D01*
X050510Y019009D01*
X050501Y019012D01*
X050492Y019018D01*
Y019019D01*
X050491Y019020D01*
X050488Y019025D01*
X050483Y019034D01*
X050482Y019045D01*
Y019046D01*
X050483Y019051D01*
X050486Y019058D01*
X050491Y019068D01*
Y019069D01*
X050493Y019070D01*
X050498Y019075D01*
X050506Y019081D01*
X050513Y019082D01*
X050519Y019083D01*
X050635D01*
X050640Y019082D01*
D02*
G37*
G36*
X051448D02*
X051457Y019079D01*
X051467Y019072D01*
X051468D01*
X051469Y019070D01*
X051474Y019066D01*
X051477Y019057D01*
X051479Y019051D01*
Y019046D01*
Y018344D01*
Y018343D01*
Y018341D01*
X051478Y018334D01*
X051475Y018326D01*
X051468Y018317D01*
X051466Y018316D01*
X051461Y018313D01*
X051451Y018308D01*
X051440Y018307D01*
X051439D01*
X051434Y018308D01*
X051427Y018310D01*
X051416Y018314D01*
X051414Y018316D01*
X051409Y018321D01*
X051405Y018331D01*
X051404Y018338D01*
X051403Y018344D01*
Y018969D01*
X051305Y018857D01*
X051303Y018855D01*
X051298Y018851D01*
X051290Y018848D01*
X051279Y018846D01*
X051277D01*
X051269Y018847D01*
X051260Y018850D01*
X051252Y018857D01*
X051250Y018859D01*
X051246Y018865D01*
X051243Y018873D01*
X051241Y018884D01*
Y018885D01*
X051242Y018890D01*
X051245Y018897D01*
X051247Y018903D01*
X051251Y018909D01*
X051412Y019072D01*
X051415Y019074D01*
X051420Y019078D01*
X051428Y019081D01*
X051439Y019083D01*
X051442D01*
X051448Y019082D01*
D02*
G37*
G36*
X051124D02*
X051133Y019079D01*
X051142Y019072D01*
X051144D01*
X051145Y019070D01*
X051149Y019066D01*
X051152Y019057D01*
X051154Y019051D01*
Y019046D01*
Y018344D01*
Y018343D01*
Y018341D01*
X051153Y018334D01*
X051150Y018326D01*
X051144Y018317D01*
X051141Y018316D01*
X051136Y018313D01*
X051126Y018308D01*
X051115Y018307D01*
X051114D01*
X051110Y018308D01*
X051102Y018310D01*
X051091Y018314D01*
X051089Y018316D01*
X051085Y018321D01*
X051080Y018331D01*
X051079Y018338D01*
X051078Y018344D01*
Y018969D01*
X050981Y018857D01*
X050978Y018855D01*
X050973Y018851D01*
X050965Y018848D01*
X050954Y018846D01*
X050952D01*
X050945Y018847D01*
X050936Y018850D01*
X050927Y018857D01*
X050925Y018859D01*
X050922Y018865D01*
X050918Y018873D01*
X050916Y018884D01*
Y018885D01*
X050917Y018890D01*
X050921Y018897D01*
X050923Y018903D01*
X050926Y018909D01*
X051088Y019072D01*
X051090Y019074D01*
X051095Y019078D01*
X051103Y019081D01*
X051114Y019083D01*
X051117D01*
X051124Y019082D01*
D02*
G37*
G36*
X020567D02*
X020576Y019079D01*
X020586Y019072D01*
X020587D01*
X020588Y019070D01*
X020592Y019066D01*
X020596Y019057D01*
X020598Y019051D01*
Y019046D01*
Y018344D01*
Y018343D01*
Y018341D01*
X020597Y018334D01*
X020593Y018326D01*
X020587Y018317D01*
X020585Y018316D01*
X020579Y018313D01*
X020569Y018308D01*
X020558Y018307D01*
X020557D01*
X020553Y018308D01*
X020545Y018310D01*
X020534Y018314D01*
X020532Y018316D01*
X020528Y018321D01*
X020523Y018331D01*
X020522Y018338D01*
X020521Y018344D01*
Y018969D01*
X020424Y018857D01*
X020422Y018855D01*
X020416Y018851D01*
X020409Y018848D01*
X020398Y018846D01*
X020396D01*
X020388Y018847D01*
X020379Y018850D01*
X020370Y018857D01*
X020368Y018859D01*
X020365Y018865D01*
X020362Y018873D01*
X020360Y018884D01*
Y018885D01*
X020361Y018890D01*
X020364Y018897D01*
X020366Y018903D01*
X020369Y018909D01*
X020531Y019072D01*
X020533Y019074D01*
X020539Y019078D01*
X020546Y019081D01*
X020557Y019083D01*
X020561D01*
X020567Y019082D01*
D02*
G37*
G36*
X025357Y032708D02*
X025363D01*
X025368Y032707D01*
X025382Y032703D01*
X025398Y032699D01*
X025415Y032690D01*
X025433Y032680D01*
X025441Y032673D01*
X025449Y032666D01*
X025450Y032665D01*
X025451Y032664D01*
X025456Y032659D01*
X025463Y032649D01*
X025471Y032638D01*
X025479Y032623D01*
X025486Y032606D01*
X025491Y032586D01*
X025492Y032576D01*
X025493Y032565D01*
Y032475D01*
Y032474D01*
Y032472D01*
Y032469D01*
X025492Y032465D01*
Y032460D01*
X025491Y032454D01*
X025487Y032440D01*
X025483Y032424D01*
X025475Y032407D01*
X025465Y032390D01*
X025457Y032382D01*
X025450Y032373D01*
X025449D01*
X025448Y032372D01*
X025445Y032370D01*
X025443Y032367D01*
X025434Y032360D01*
X025422Y032352D01*
X025406Y032345D01*
X025389Y032338D01*
X025369Y032333D01*
X025358Y032332D01*
X025347Y032332D01*
X025352D01*
X025489Y032107D01*
X025490Y032106D01*
X025491Y032103D01*
X025492Y032098D01*
X025493Y032092D01*
Y032091D01*
Y032090D01*
X025492Y032085D01*
X025488Y032077D01*
X025486Y032074D01*
X025482Y032069D01*
X025480Y032068D01*
X025476Y032066D01*
X025468Y032063D01*
X025459Y032062D01*
X025455D01*
X025449Y032063D01*
X025444Y032065D01*
X025443Y032066D01*
X025440Y032068D01*
X025436Y032072D01*
X025432Y032078D01*
X025284Y032332D01*
X025222D01*
Y032093D01*
Y032092D01*
Y032090D01*
X025221Y032085D01*
X025219Y032077D01*
X025213Y032070D01*
X025211Y032069D01*
X025207Y032066D01*
X025199Y032063D01*
X025189Y032062D01*
X025189D01*
X025185Y032063D01*
X025179Y032065D01*
X025169Y032067D01*
X025168Y032069D01*
X025164Y032074D01*
X025160Y032082D01*
X025159Y032087D01*
X025158Y032093D01*
Y032677D01*
Y032679D01*
X025159Y032682D01*
X025160Y032687D01*
X025162Y032693D01*
X025166Y032699D01*
X025171Y032704D01*
X025179Y032708D01*
X025189Y032709D01*
X025353D01*
X025357Y032708D01*
D02*
G37*
G36*
X025734D02*
X025740Y032707D01*
X025747Y032705D01*
X025763Y032701D01*
X025773Y032698D01*
X025783Y032693D01*
X025793Y032689D01*
X025803Y032682D01*
X025814Y032675D01*
X025825Y032667D01*
X025836Y032657D01*
X025847Y032646D01*
X025848D01*
X025850Y032644D01*
X025852Y032642D01*
X025855Y032639D01*
X025865Y032632D01*
X025875Y032621D01*
X025884Y032607D01*
X025893Y032589D01*
X025896Y032579D01*
X025898Y032568D01*
X025900Y032557D01*
X025901Y032545D01*
Y032544D01*
Y032541D01*
Y032537D01*
X025900Y032530D01*
X025899Y032524D01*
X025898Y032516D01*
X025894Y032499D01*
Y032498D01*
X025892Y032496D01*
X025890Y032490D01*
X025888Y032485D01*
X025885Y032476D01*
X025880Y032468D01*
X025875Y032458D01*
X025868Y032448D01*
X025648Y032125D01*
X025865D01*
X025871Y032124D01*
X025878Y032120D01*
X025883Y032118D01*
X025886Y032115D01*
X025887D01*
X025888Y032113D01*
X025892Y032108D01*
X025895Y032101D01*
X025896Y032097D01*
Y032093D01*
Y032092D01*
Y032091D01*
X025895Y032086D01*
X025893Y032079D01*
X025888Y032072D01*
X025886Y032070D01*
X025882Y032067D01*
X025875Y032064D01*
X025869Y032063D01*
X025864Y032062D01*
X025593D01*
X025588Y032063D01*
X025581Y032066D01*
X025578Y032068D01*
X025573Y032072D01*
Y032073D01*
X025571Y032074D01*
X025568Y032078D01*
X025566Y032086D01*
X025564Y032095D01*
Y032097D01*
X025565Y032100D01*
X025566Y032105D01*
X025568Y032109D01*
X025814Y032483D01*
X025824Y032500D01*
X025830Y032515D01*
Y032516D01*
X025831Y032517D01*
X025832Y032520D01*
X025833Y032524D01*
X025834Y032534D01*
X025835Y032545D01*
Y032546D01*
Y032547D01*
X025834Y032552D01*
X025834Y032559D01*
X025831Y032569D01*
X025827Y032580D01*
X025821Y032592D01*
X025813Y032604D01*
X025802Y032615D01*
X025801Y032616D01*
X025799Y032618D01*
X025795Y032619D01*
X025792Y032623D01*
X025786Y032626D01*
X025780Y032629D01*
X025765Y032637D01*
X025764D01*
X025762Y032638D01*
X025758Y032639D01*
X025752Y032641D01*
X025747Y032642D01*
X025740Y032644D01*
X025725Y032645D01*
X025721D01*
X025715Y032644D01*
X025708Y032643D01*
X025700Y032641D01*
X025691Y032638D01*
X025681Y032634D01*
X025672Y032629D01*
X025671Y032628D01*
X025669Y032626D01*
X025664Y032621D01*
X025659Y032616D01*
X025652Y032608D01*
X025646Y032599D01*
X025640Y032588D01*
X025633Y032575D01*
X025632Y032573D01*
X025630Y032569D01*
X025627Y032564D01*
X025621Y032559D01*
X025620Y032558D01*
X025617Y032557D01*
X025612Y032556D01*
X025606Y032554D01*
X025603D01*
X025600Y032555D01*
X025598D01*
X025589Y032557D01*
X025581Y032562D01*
X025579Y032564D01*
X025577Y032568D01*
X025573Y032577D01*
X025572Y032581D01*
X025571Y032587D01*
X025573Y032595D01*
Y032596D01*
X025574Y032598D01*
X025575Y032600D01*
X025577Y032605D01*
X025581Y032615D01*
X025588Y032628D01*
X025597Y032642D01*
X025608Y032657D01*
X025620Y032670D01*
X025635Y032682D01*
X025637Y032683D01*
X025641Y032687D01*
X025650Y032690D01*
X025660Y032696D01*
X025673Y032701D01*
X025688Y032705D01*
X025704Y032708D01*
X025722Y032709D01*
X025729D01*
X025734Y032708D01*
D02*
G37*
G36*
X024580Y032707D02*
X024589Y032705D01*
X024597Y032699D01*
X024598D01*
X024599Y032697D01*
X024602Y032693D01*
X024605Y032686D01*
X024607Y032682D01*
Y032677D01*
X024606Y032671D01*
X024522Y032259D01*
X024633D01*
Y032362D01*
Y032363D01*
Y032364D01*
X024634Y032368D01*
X024637Y032376D01*
X024642Y032383D01*
Y032384D01*
X024644Y032385D01*
X024649Y032388D01*
X024655Y032392D01*
X024660Y032394D01*
X024666D01*
X024671Y032393D01*
X024679Y032390D01*
X024686Y032385D01*
X024687D01*
X024688Y032383D01*
X024691Y032379D01*
X024695Y032372D01*
X024697Y032367D01*
Y032362D01*
Y032259D01*
X024756D01*
X024762Y032258D01*
X024769Y032254D01*
X024773Y032253D01*
X024777Y032249D01*
X024778D01*
X024779Y032247D01*
X024783Y032243D01*
X024785Y032235D01*
X024787Y032232D01*
Y032227D01*
Y032226D01*
Y032225D01*
X024786Y032221D01*
X024783Y032213D01*
X024778Y032206D01*
X024776Y032204D01*
X024772Y032202D01*
X024764Y032198D01*
X024760Y032197D01*
X024754Y032196D01*
X024697D01*
Y032092D01*
Y032091D01*
Y032090D01*
X024696Y032084D01*
X024693Y032077D01*
X024688Y032070D01*
X024686Y032069D01*
X024681Y032066D01*
X024673Y032062D01*
X024664Y032061D01*
X024663D01*
X024660Y032062D01*
X024653Y032064D01*
X024644Y032067D01*
X024642Y032069D01*
X024639Y032073D01*
X024635Y032081D01*
X024634Y032087D01*
X024633Y032092D01*
Y032196D01*
X024482D01*
X024476Y032197D01*
X024468Y032200D01*
X024461Y032204D01*
X024460Y032206D01*
X024457Y032211D01*
X024454Y032218D01*
X024453Y032227D01*
Y032233D01*
X024543Y032681D01*
Y032682D01*
X024544Y032684D01*
X024545Y032689D01*
X024548Y032695D01*
X024555Y032702D01*
X024572Y032708D01*
X024578D01*
X024580Y032707D01*
D02*
G37*
G36*
X024246D02*
X024251D01*
X024257Y032706D01*
X024271Y032703D01*
X024287Y032698D01*
X024304Y032690D01*
X024322Y032680D01*
X024330Y032673D01*
X024338Y032665D01*
X024339Y032664D01*
X024340Y032664D01*
X024345Y032658D01*
X024352Y032649D01*
X024360Y032637D01*
X024368Y032623D01*
X024375Y032605D01*
X024380Y032585D01*
X024381Y032575D01*
X024382Y032564D01*
Y032474D01*
Y032473D01*
Y032471D01*
Y032469D01*
X024381Y032464D01*
Y032459D01*
X024380Y032453D01*
X024376Y032439D01*
X024372Y032423D01*
X024364Y032407D01*
X024353Y032389D01*
X024346Y032381D01*
X024339Y032373D01*
X024338D01*
X024337Y032371D01*
X024334Y032369D01*
X024332Y032367D01*
X024323Y032359D01*
X024311Y032352D01*
X024295Y032345D01*
X024278Y032337D01*
X024258Y032333D01*
X024247Y032332D01*
X024236Y032331D01*
X024241D01*
X024378Y032106D01*
X024379Y032105D01*
X024380Y032102D01*
X024381Y032098D01*
X024382Y032091D01*
Y032090D01*
Y032090D01*
X024381Y032084D01*
X024377Y032077D01*
X024374Y032073D01*
X024371Y032069D01*
X024369Y032068D01*
X024364Y032065D01*
X024357Y032062D01*
X024348Y032061D01*
X024343D01*
X024338Y032062D01*
X024333Y032064D01*
X024332Y032065D01*
X024329Y032068D01*
X024325Y032071D01*
X024321Y032078D01*
X024173Y032331D01*
X024111D01*
Y032092D01*
Y032091D01*
Y032090D01*
X024110Y032084D01*
X024108Y032077D01*
X024102Y032070D01*
X024100Y032069D01*
X024096Y032066D01*
X024087Y032062D01*
X024078Y032061D01*
X024077D01*
X024074Y032062D01*
X024067Y032064D01*
X024058Y032067D01*
X024057Y032069D01*
X024053Y032073D01*
X024049Y032081D01*
X024048Y032087D01*
X024047Y032092D01*
Y032676D01*
Y032678D01*
X024048Y032682D01*
X024049Y032686D01*
X024051Y032693D01*
X024055Y032698D01*
X024060Y032704D01*
X024068Y032707D01*
X024078Y032708D01*
X024241D01*
X024246Y032707D01*
D02*
G37*
G36*
X020084Y019082D02*
X020090D01*
X020097Y019081D01*
X020114Y019078D01*
X020132Y019071D01*
X020152Y019062D01*
X020172Y019051D01*
X020181Y019044D01*
X020190Y019035D01*
X020191Y019034D01*
X020196Y019031D01*
X020201Y019025D01*
X020208Y019018D01*
X020214Y019009D01*
X020222Y018999D01*
X020228Y018988D01*
X020234Y018976D01*
X020243Y018945D01*
X020246Y018927D01*
Y018909D01*
Y018856D01*
Y018854D01*
Y018849D01*
X020245Y018840D01*
X020244Y018831D01*
X020241Y018820D01*
X020239Y018807D01*
X020235Y018795D01*
X020229Y018781D01*
X020228Y018780D01*
X020226Y018776D01*
X020223Y018771D01*
X020219Y018763D01*
X020212Y018755D01*
X020204Y018746D01*
X020196Y018739D01*
X020185Y018731D01*
X020186Y018730D01*
X020190Y018729D01*
X020197Y018725D01*
X020205Y018719D01*
X020215Y018712D01*
X020225Y018702D01*
X020236Y018690D01*
X020246Y018674D01*
X020247Y018672D01*
X020250Y018667D01*
X020255Y018658D01*
X020260Y018647D01*
X020264Y018634D01*
X020269Y018619D01*
X020272Y018603D01*
X020273Y018586D01*
Y018479D01*
Y018478D01*
Y018475D01*
Y018472D01*
X020272Y018467D01*
Y018461D01*
X020270Y018455D01*
X020267Y018438D01*
X020260Y018419D01*
X020250Y018399D01*
X020244Y018389D01*
X020237Y018378D01*
X020228Y018368D01*
X020219Y018358D01*
X020217D01*
X020216Y018356D01*
X020213Y018354D01*
X020209Y018351D01*
X020198Y018342D01*
X020184Y018333D01*
X020166Y018323D01*
X020145Y018315D01*
X020122Y018309D01*
X020110Y018308D01*
X020098Y018307D01*
X019908D01*
X019904Y018308D01*
X019897Y018309D01*
X019891Y018311D01*
X019884Y018316D01*
X019878Y018322D01*
X019873Y018332D01*
X019872Y018344D01*
Y019045D01*
Y019047D01*
X019873Y019051D01*
X019874Y019057D01*
X019876Y019065D01*
X019881Y019071D01*
X019887Y019078D01*
X019897Y019082D01*
X019909Y019083D01*
X020079D01*
X020084Y019082D01*
D02*
G37*
G36*
X019717Y022673D02*
X019722Y022673D01*
X019729Y022671D01*
X019746Y022666D01*
X019756Y022663D01*
X019765Y022659D01*
X019776Y022654D01*
X019786Y022648D01*
X019797Y022641D01*
X019808Y022632D01*
X019819Y022622D01*
X019830Y022612D01*
X019831D01*
X019832Y022610D01*
X019834Y022608D01*
X019838Y022605D01*
X019847Y022598D01*
X019857Y022587D01*
X019866Y022572D01*
X019875Y022555D01*
X019879Y022545D01*
X019881Y022534D01*
X019883Y022523D01*
X019883Y022510D01*
Y022509D01*
Y022507D01*
Y022502D01*
X019883Y022496D01*
X019882Y022489D01*
X019881Y022481D01*
X019876Y022465D01*
Y022464D01*
X019874Y022461D01*
X019873Y022456D01*
X019871Y022450D01*
X019867Y022442D01*
X019862Y022434D01*
X019857Y022424D01*
X019851Y022414D01*
X019630Y022090D01*
X019848D01*
X019853Y022090D01*
X019861Y022086D01*
X019865Y022084D01*
X019869Y022080D01*
X019870D01*
X019871Y022079D01*
X019874Y022074D01*
X019877Y022067D01*
X019879Y022063D01*
Y022059D01*
Y022058D01*
Y022057D01*
X019878Y022052D01*
X019875Y022045D01*
X019871Y022038D01*
X019869Y022036D01*
X019864Y022033D01*
X019857Y022029D01*
X019852Y022028D01*
X019846Y022028D01*
X019576D01*
X019571Y022028D01*
X019564Y022032D01*
X019560Y022034D01*
X019555Y022038D01*
Y022038D01*
X019554Y022039D01*
X019551Y022044D01*
X019548Y022051D01*
X019546Y022060D01*
Y022062D01*
X019547Y022066D01*
X019548Y022070D01*
X019551Y022075D01*
X019797Y022448D01*
X019806Y022466D01*
X019812Y022480D01*
Y022481D01*
X019813Y022483D01*
X019814Y022486D01*
X019815Y022489D01*
X019817Y022499D01*
X019818Y022510D01*
Y022511D01*
Y022512D01*
X019817Y022518D01*
X019816Y022525D01*
X019813Y022535D01*
X019810Y022546D01*
X019803Y022558D01*
X019795Y022570D01*
X019784Y022581D01*
X019783Y022581D01*
X019781Y022583D01*
X019778Y022585D01*
X019774Y022589D01*
X019769Y022591D01*
X019762Y022595D01*
X019748Y022602D01*
X019747D01*
X019744Y022603D01*
X019740Y022605D01*
X019735Y022607D01*
X019729Y022608D01*
X019722Y022610D01*
X019708Y022611D01*
X019703D01*
X019698Y022610D01*
X019690Y022609D01*
X019682Y022607D01*
X019673Y022603D01*
X019664Y022600D01*
X019655Y022594D01*
X019654Y022593D01*
X019651Y022591D01*
X019647Y022587D01*
X019641Y022581D01*
X019635Y022574D01*
X019628Y022565D01*
X019622Y022554D01*
X019616Y022540D01*
X019615Y022539D01*
X019613Y022535D01*
X019609Y022530D01*
X019604Y022525D01*
X019603Y022524D01*
X019599Y022523D01*
X019595Y022521D01*
X019588Y022520D01*
X019586D01*
X019583Y022520D01*
X019580D01*
X019572Y022523D01*
X019564Y022528D01*
X019562Y022530D01*
X019559Y022534D01*
X019555Y022542D01*
X019555Y022547D01*
X019554Y022552D01*
X019555Y022560D01*
Y022561D01*
X019556Y022563D01*
X019557Y022566D01*
X019559Y022571D01*
X019564Y022581D01*
X019571Y022593D01*
X019579Y022608D01*
X019590Y022622D01*
X019603Y022636D01*
X019617Y022648D01*
X019619Y022649D01*
X019624Y022653D01*
X019632Y022656D01*
X019643Y022662D01*
X019656Y022666D01*
X019670Y022671D01*
X019687Y022673D01*
X019705Y022674D01*
X019711D01*
X019717Y022673D01*
D02*
G37*
G36*
X038576Y030578D02*
X038583D01*
X038589Y030577D01*
X038606Y030573D01*
X038626Y030567D01*
X038646Y030557D01*
X038667Y030545D01*
X038677Y030537D01*
X038687Y030528D01*
X038688Y030527D01*
X038689Y030526D01*
X038696Y030519D01*
X038703Y030508D01*
X038713Y030494D01*
X038723Y030476D01*
X038732Y030456D01*
X038737Y030432D01*
X038738Y030420D01*
X038739Y030406D01*
Y030298D01*
Y030297D01*
Y030295D01*
Y030292D01*
X038738Y030286D01*
Y030281D01*
X038737Y030273D01*
X038733Y030257D01*
X038727Y030237D01*
X038717Y030217D01*
X038705Y030197D01*
X038697Y030187D01*
X038688Y030177D01*
X038687D01*
X038686Y030175D01*
X038682Y030173D01*
X038679Y030169D01*
X038668Y030161D01*
X038654Y030152D01*
X038635Y030143D01*
X038615Y030134D01*
X038591Y030129D01*
X038577Y030128D01*
X038564Y030127D01*
X038570D01*
X038735Y029857D01*
X038736Y029856D01*
X038737Y029852D01*
X038738Y029847D01*
X038739Y029839D01*
Y029838D01*
Y029837D01*
X038738Y029830D01*
X038734Y029822D01*
X038730Y029817D01*
X038726Y029812D01*
X038724Y029811D01*
X038718Y029808D01*
X038710Y029804D01*
X038699Y029803D01*
X038693D01*
X038687Y029804D01*
X038680Y029806D01*
X038679Y029808D01*
X038676Y029811D01*
X038671Y029815D01*
X038666Y029823D01*
X038489Y030127D01*
X038415D01*
Y029840D01*
Y029839D01*
Y029837D01*
X038414Y029830D01*
X038410Y029822D01*
X038404Y029813D01*
X038402Y029812D01*
X038396Y029809D01*
X038386Y029804D01*
X038375Y029803D01*
X038374D01*
X038370Y029804D01*
X038362Y029806D01*
X038351Y029810D01*
X038349Y029812D01*
X038345Y029817D01*
X038340Y029827D01*
X038339Y029834D01*
X038338Y029840D01*
Y030541D01*
Y030543D01*
X038339Y030547D01*
X038340Y030553D01*
X038342Y030561D01*
X038347Y030567D01*
X038353Y030574D01*
X038363Y030578D01*
X038375Y030579D01*
X038571D01*
X038576Y030578D01*
D02*
G37*
G36*
X037336D02*
X037342D01*
X037349Y030577D01*
X037366Y030573D01*
X037385Y030567D01*
X037406Y030558D01*
X037427Y030545D01*
X037437Y030538D01*
X037447Y030529D01*
X037448Y030528D01*
X037452Y030525D01*
X037456Y030519D01*
X037462Y030513D01*
X037468Y030504D01*
X037475Y030495D01*
X037480Y030484D01*
X037486Y030473D01*
X037494Y030443D01*
X037498Y030423D01*
Y030406D01*
Y030298D01*
Y030297D01*
Y030295D01*
Y030292D01*
X037496Y030286D01*
Y030281D01*
X037495Y030273D01*
X037491Y030257D01*
X037486Y030237D01*
X037476Y030217D01*
X037464Y030197D01*
X037455Y030187D01*
X037446Y030177D01*
X037445D01*
X037444Y030175D01*
X037441Y030173D01*
X037437Y030169D01*
X037427Y030161D01*
X037412Y030152D01*
X037394Y030143D01*
X037373Y030134D01*
X037349Y030129D01*
X037336Y030128D01*
X037323Y030127D01*
X037173D01*
Y029840D01*
Y029839D01*
Y029837D01*
X037172Y029830D01*
X037169Y029822D01*
X037162Y029813D01*
X037160Y029812D01*
X037154Y029809D01*
X037145Y029804D01*
X037134Y029803D01*
X037133D01*
X037128Y029804D01*
X037120Y029806D01*
X037110Y029810D01*
X037107Y029812D01*
X037103Y029817D01*
X037099Y029827D01*
X037098Y029834D01*
X037096Y029840D01*
Y030541D01*
Y030543D01*
X037098Y030547D01*
X037099Y030553D01*
X037101Y030561D01*
X037105Y030567D01*
X037112Y030574D01*
X037122Y030578D01*
X037134Y030579D01*
X037330D01*
X037336Y030578D01*
D02*
G37*
G36*
X031744Y032458D02*
X031751D01*
X031757Y032457D01*
X031774Y032453D01*
X031793Y032447D01*
X031814Y032437D01*
X031835Y032425D01*
X031845Y032416D01*
X031855Y032408D01*
X031856Y032407D01*
X031857Y032406D01*
X031863Y032399D01*
X031871Y032388D01*
X031881Y032374D01*
X031891Y032356D01*
X031899Y032336D01*
X031905Y032312D01*
X031906Y032300D01*
X031907Y032286D01*
Y032178D01*
Y032177D01*
Y032175D01*
Y032172D01*
X031906Y032166D01*
Y032161D01*
X031905Y032153D01*
X031900Y032137D01*
X031895Y032117D01*
X031885Y032097D01*
X031873Y032077D01*
X031864Y032067D01*
X031856Y032057D01*
X031855D01*
X031853Y032055D01*
X031850Y032053D01*
X031847Y032049D01*
X031836Y032040D01*
X031822Y032032D01*
X031803Y032023D01*
X031782Y032014D01*
X031758Y032009D01*
X031745Y032008D01*
X031732Y032007D01*
X031738D01*
X031903Y031737D01*
X031904Y031736D01*
X031905Y031732D01*
X031906Y031727D01*
X031907Y031719D01*
Y031718D01*
Y031717D01*
X031906Y031710D01*
X031902Y031702D01*
X031898Y031697D01*
X031894Y031692D01*
X031892Y031691D01*
X031886Y031687D01*
X031878Y031684D01*
X031867Y031683D01*
X031861D01*
X031855Y031684D01*
X031848Y031686D01*
X031847Y031687D01*
X031844Y031691D01*
X031839Y031695D01*
X031834Y031703D01*
X031657Y032007D01*
X031582D01*
Y031720D01*
Y031719D01*
Y031717D01*
X031581Y031710D01*
X031578Y031702D01*
X031571Y031693D01*
X031569Y031692D01*
X031564Y031689D01*
X031554Y031684D01*
X031543Y031683D01*
X031542D01*
X031538Y031684D01*
X031530Y031686D01*
X031519Y031690D01*
X031517Y031692D01*
X031512Y031697D01*
X031508Y031707D01*
X031507Y031714D01*
X031506Y031720D01*
Y032421D01*
Y032423D01*
X031507Y032427D01*
X031508Y032433D01*
X031510Y032441D01*
X031515Y032447D01*
X031521Y032454D01*
X031531Y032458D01*
X031543Y032459D01*
X031739D01*
X031744Y032458D01*
D02*
G37*
G36*
X019367Y022673D02*
X019375Y022673D01*
X019384Y022671D01*
X019394Y022668D01*
X019405Y022665D01*
X019407D01*
X019411Y022663D01*
X019416Y022662D01*
X019423Y022659D01*
X019432Y022656D01*
X019441Y022652D01*
X019459Y022642D01*
X019460Y022641D01*
X019462Y022640D01*
X019464Y022637D01*
X019467Y022633D01*
X019468Y022632D01*
X019470Y022629D01*
X019473Y022623D01*
X019474Y022616D01*
Y022615D01*
Y022614D01*
X019473Y022609D01*
X019470Y022601D01*
X019468Y022597D01*
X019464Y022592D01*
X019463Y022591D01*
X019458Y022588D01*
X019450Y022584D01*
X019445Y022583D01*
X019440Y022582D01*
X019424Y022588D01*
X019422Y022589D01*
X019419Y022591D01*
X019412Y022595D01*
X019402Y022600D01*
X019391Y022604D01*
X019379Y022608D01*
X019365Y022611D01*
X019351Y022612D01*
X019279D01*
X019272Y022611D01*
X019264Y022609D01*
X019255Y022605D01*
X019245Y022601D01*
X019236Y022595D01*
X019227Y022587D01*
X019226Y022586D01*
X019223Y022582D01*
X019219Y022578D01*
X019216Y022571D01*
X019212Y022562D01*
X019208Y022552D01*
X019206Y022541D01*
X019205Y022529D01*
X019206Y022514D01*
X019207Y022506D01*
X019209Y022499D01*
Y022499D01*
X019210Y022498D01*
X019214Y022492D01*
X019219Y022484D01*
X019228Y022473D01*
X019432Y022266D01*
X019432Y022265D01*
X019434Y022264D01*
X019438Y022260D01*
X019443Y022255D01*
X019447Y022249D01*
X019452Y022242D01*
X019456Y022233D01*
X019461Y022224D01*
X019464Y022214D01*
X019470Y022195D01*
X019472Y022184D01*
Y022171D01*
Y022170D01*
Y022168D01*
Y022165D01*
X019471Y022161D01*
X019470Y022156D01*
X019469Y022151D01*
X019466Y022136D01*
X019461Y022120D01*
X019453Y022103D01*
X019447Y022095D01*
X019441Y022086D01*
X019433Y022077D01*
X019425Y022069D01*
X019423Y022067D01*
X019419Y022062D01*
X019411Y022056D01*
X019400Y022049D01*
X019386Y022040D01*
X019369Y022034D01*
X019350Y022029D01*
X019339Y022028D01*
X019327Y022028D01*
X019256D01*
X019251Y022028D01*
X019246D01*
X019240Y022029D01*
X019226Y022032D01*
X019209Y022036D01*
X019191Y022042D01*
X019172Y022050D01*
X019154Y022061D01*
X019144Y022072D01*
X019141Y022085D01*
Y022086D01*
Y022087D01*
X019142Y022092D01*
X019145Y022099D01*
X019149Y022107D01*
Y022108D01*
X019151Y022109D01*
X019156Y022113D01*
X019163Y022117D01*
X019167Y022118D01*
X019172Y022119D01*
X019187Y022113D01*
X019189Y022112D01*
X019194Y022110D01*
X019200Y022106D01*
X019209Y022102D01*
X019220Y022098D01*
X019233Y022094D01*
X019247Y022091D01*
X019260Y022090D01*
X019331D01*
X019338Y022091D01*
X019345Y022093D01*
X019354Y022096D01*
X019364Y022100D01*
X019374Y022106D01*
X019383Y022114D01*
X019384Y022115D01*
X019387Y022119D01*
X019391Y022123D01*
X019396Y022130D01*
X019400Y022139D01*
X019404Y022149D01*
X019407Y022159D01*
X019408Y022171D01*
X019406Y022185D01*
Y022186D01*
Y022187D01*
X019404Y022192D01*
Y022192D01*
X019403Y022194D01*
X019402Y022199D01*
Y022200D01*
X019401Y022202D01*
X019400Y022204D01*
X019398Y022208D01*
X019391Y022217D01*
X019383Y022228D01*
X019183Y022428D01*
X019182Y022429D01*
X019180Y022431D01*
X019177Y022436D01*
X019173Y022440D01*
X019168Y022448D01*
X019163Y022456D01*
X019156Y022465D01*
X019151Y022476D01*
Y022477D01*
X019149Y022480D01*
X019148Y022486D01*
X019146Y022492D01*
X019145Y022500D01*
X019143Y022509D01*
X019142Y022520D01*
X019141Y022530D01*
Y022531D01*
Y022533D01*
Y022536D01*
X019142Y022540D01*
X019143Y022545D01*
X019144Y022551D01*
X019146Y022565D01*
X019152Y022581D01*
X019161Y022598D01*
X019166Y022606D01*
X019172Y022615D01*
X019179Y022624D01*
X019187Y022632D01*
Y022633D01*
X019189Y022634D01*
X019194Y022639D01*
X019202Y022646D01*
X019213Y022653D01*
X019227Y022661D01*
X019243Y022668D01*
X019263Y022673D01*
X019273Y022674D01*
X019360D01*
X019367Y022673D01*
D02*
G37*
G36*
X038221Y030578D02*
X038230Y030575D01*
X038240Y030568D01*
X038241D01*
X038242Y030566D01*
X038246Y030562D01*
X038250Y030554D01*
X038252Y030549D01*
Y030543D01*
X038251Y030534D01*
X038116Y029839D01*
Y029838D01*
Y029837D01*
X038114Y029830D01*
X038111Y029822D01*
X038104Y029814D01*
X038103Y029813D01*
X038098Y029810D01*
X038090Y029805D01*
X038080Y029803D01*
X038076D01*
X038071Y029804D01*
X038065Y029806D01*
X038059Y029810D01*
X038053Y029814D01*
X038047Y029821D01*
X038043Y029829D01*
X037917Y030235D01*
X037792Y029830D01*
Y029829D01*
X037789Y029826D01*
X037787Y029822D01*
X037783Y029817D01*
X037778Y029812D01*
X037772Y029808D01*
X037764Y029804D01*
X037754Y029803D01*
X037753D01*
X037749Y029804D01*
X037742Y029806D01*
X037737Y029809D01*
X037730Y029812D01*
X037718Y029836D01*
X037583Y030534D01*
X037582Y030541D01*
Y030542D01*
Y030543D01*
X037583Y030549D01*
X037586Y030557D01*
X037593Y030566D01*
X037594Y030567D01*
X037595Y030568D01*
X037600Y030573D01*
X037609Y030577D01*
X037615Y030579D01*
X037625D01*
X037630Y030578D01*
X037636Y030576D01*
X037643Y030572D01*
X037648Y030567D01*
X037654Y030560D01*
X037657Y030550D01*
X037765Y029962D01*
X037882Y030345D01*
Y030346D01*
X037885Y030350D01*
X037887Y030354D01*
X037890Y030359D01*
X037894Y030365D01*
X037900Y030369D01*
X037907Y030373D01*
X037916Y030374D01*
X037919D01*
X037924Y030373D01*
X037928Y030370D01*
X037934Y030366D01*
X037940Y030361D01*
X037947Y030353D01*
X037953Y030343D01*
X038068Y029962D01*
X038175Y030545D01*
Y030546D01*
X038176Y030549D01*
X038177Y030555D01*
X038182Y030563D01*
X038188Y030570D01*
X038191Y030572D01*
X038195Y030575D01*
X038203Y030578D01*
X038211Y030579D01*
X038215D01*
X038221Y030578D01*
D02*
G37*
G36*
X019045Y022674D02*
X019053Y022672D01*
X019061Y022666D01*
X019062D01*
X019063Y022664D01*
X019066Y022660D01*
X019069Y022653D01*
X019071Y022648D01*
Y022643D01*
Y022642D01*
X019070Y022639D01*
X019069Y022633D01*
X019066Y022628D01*
X018916Y022351D01*
X019066Y022073D01*
X019067Y022072D01*
X019069Y022069D01*
X019070Y022064D01*
X019071Y022059D01*
Y022058D01*
Y022057D01*
X019070Y022051D01*
X019066Y022044D01*
X019064Y022040D01*
X019060Y022036D01*
X019058Y022035D01*
X019054Y022032D01*
X019045Y022028D01*
X019036Y022028D01*
X019033D01*
X019030Y022028D01*
X019026Y022030D01*
X019022Y022032D01*
X019017Y022036D01*
X019013Y022041D01*
X019009Y022048D01*
X018880Y022294D01*
X018749Y022040D01*
Y022039D01*
X018747Y022038D01*
X018743Y022034D01*
X018739Y022031D01*
X018735Y022029D01*
X018729Y022028D01*
X018723Y022028D01*
X018721D01*
X018715Y022028D01*
X018707Y022031D01*
X018700Y022036D01*
X018698Y022038D01*
X018695Y022042D01*
X018693Y022049D01*
X018691Y022059D01*
Y022059D01*
X018692Y022063D01*
X018693Y022069D01*
X018695Y022074D01*
X018846Y022351D01*
X018695Y022628D01*
X018691Y022642D01*
Y022644D01*
X018692Y022649D01*
X018695Y022655D01*
X018699Y022663D01*
Y022664D01*
X018701Y022665D01*
X018706Y022670D01*
X018714Y022673D01*
X018718Y022674D01*
X018724Y022675D01*
X018726D01*
X018730Y022674D01*
X018734Y022673D01*
X018738Y022670D01*
X018744Y022666D01*
X018748Y022661D01*
X018752Y022653D01*
X018880Y022408D01*
X019012Y022661D01*
Y022662D01*
X019013Y022663D01*
X019017Y022668D01*
X019021Y022671D01*
X019025Y022673D01*
X019031Y022674D01*
X019037Y022675D01*
X019040D01*
X019045Y022674D01*
D02*
G37*
G36*
X022021Y032707D02*
X022026D01*
X022032Y032706D01*
X022045Y032703D01*
X022062Y032698D01*
X022079Y032690D01*
X022096Y032680D01*
X022104Y032673D01*
X022113Y032665D01*
X022114Y032664D01*
X022114Y032664D01*
X022120Y032658D01*
X022126Y032649D01*
X022135Y032637D01*
X022143Y032623D01*
X022150Y032605D01*
X022155Y032585D01*
X022155Y032575D01*
X022156Y032564D01*
Y032474D01*
Y032473D01*
Y032471D01*
Y032469D01*
X022155Y032464D01*
Y032459D01*
X022155Y032453D01*
X022151Y032439D01*
X022146Y032423D01*
X022138Y032407D01*
X022128Y032389D01*
X022121Y032381D01*
X022114Y032373D01*
X022113D01*
X022112Y032371D01*
X022109Y032369D01*
X022106Y032367D01*
X022097Y032359D01*
X022085Y032352D01*
X022070Y032345D01*
X022053Y032337D01*
X022032Y032333D01*
X022022Y032332D01*
X022011Y032331D01*
X022015D01*
X022153Y032106D01*
X022154Y032105D01*
X022155Y032102D01*
X022155Y032098D01*
X022156Y032091D01*
Y032090D01*
Y032090D01*
X022155Y032084D01*
X022152Y032077D01*
X022149Y032073D01*
X022145Y032069D01*
X022144Y032068D01*
X022139Y032065D01*
X022132Y032062D01*
X022123Y032061D01*
X022118D01*
X022113Y032062D01*
X022107Y032064D01*
X022106Y032065D01*
X022104Y032068D01*
X022100Y032071D01*
X022095Y032078D01*
X021948Y032331D01*
X021886D01*
Y032092D01*
Y032091D01*
Y032090D01*
X021885Y032084D01*
X021882Y032077D01*
X021877Y032070D01*
X021875Y032069D01*
X021870Y032066D01*
X021862Y032062D01*
X021853Y032061D01*
X021852D01*
X021848Y032062D01*
X021842Y032064D01*
X021833Y032067D01*
X021831Y032069D01*
X021828Y032073D01*
X021824Y032081D01*
X021823Y032087D01*
X021822Y032092D01*
Y032676D01*
Y032678D01*
X021823Y032682D01*
X021824Y032686D01*
X021826Y032693D01*
X021829Y032698D01*
X021835Y032704D01*
X021843Y032707D01*
X021853Y032708D01*
X022016D01*
X022021Y032707D01*
D02*
G37*
G36*
X022403D02*
X022409D01*
X022414Y032706D01*
X022429Y032703D01*
X022445Y032698D01*
X022462Y032691D01*
X022480Y032680D01*
X022488Y032674D01*
X022496Y032666D01*
X022497Y032665D01*
X022500Y032663D01*
X022503Y032658D01*
X022509Y032653D01*
X022513Y032645D01*
X022519Y032638D01*
X022524Y032629D01*
X022529Y032620D01*
X022536Y032594D01*
X022539Y032579D01*
Y032564D01*
Y032519D01*
Y032517D01*
Y032513D01*
X022538Y032506D01*
X022537Y032498D01*
X022535Y032489D01*
X022534Y032478D01*
X022530Y032468D01*
X022525Y032457D01*
X022524Y032456D01*
X022523Y032452D01*
X022520Y032448D01*
X022515Y032441D01*
X022511Y032435D01*
X022504Y032428D01*
X022497Y032421D01*
X022489Y032416D01*
X022490Y032415D01*
X022493Y032414D01*
X022499Y032410D01*
X022505Y032407D01*
X022513Y032400D01*
X022521Y032392D01*
X022530Y032382D01*
X022538Y032370D01*
X022539Y032368D01*
X022542Y032364D01*
X022545Y032357D01*
X022550Y032347D01*
X022554Y032336D01*
X022557Y032324D01*
X022560Y032309D01*
X022561Y032295D01*
Y032204D01*
Y032203D01*
Y032202D01*
Y032199D01*
X022560Y032194D01*
Y032190D01*
X022559Y032183D01*
X022555Y032170D01*
X022551Y032153D01*
X022543Y032137D01*
X022533Y032120D01*
X022525Y032111D01*
X022518Y032103D01*
X022517D01*
X022516Y032101D01*
X022513Y032100D01*
X022511Y032097D01*
X022502Y032090D01*
X022490Y032082D01*
X022474Y032075D01*
X022457Y032068D01*
X022438Y032063D01*
X022427Y032062D01*
X022416Y032061D01*
X022365D01*
X022361Y032062D01*
X022350Y032063D01*
X022338Y032067D01*
X022322Y032071D01*
X022306Y032079D01*
X022288Y032089D01*
X022279Y032095D01*
X022271Y032102D01*
X022270Y032103D01*
X022269Y032104D01*
X022268Y032107D01*
X022265Y032110D01*
X022258Y032119D01*
X022249Y032131D01*
X022241Y032146D01*
X022235Y032163D01*
X022229Y032183D01*
X022228Y032194D01*
X022227Y032205D01*
Y032295D01*
Y032296D01*
Y032301D01*
X022228Y032308D01*
X022230Y032317D01*
X022232Y032328D01*
X022236Y032340D01*
X022241Y032353D01*
X022247Y032366D01*
X022248Y032367D01*
X022251Y032371D01*
X022256Y032377D01*
X022262Y032385D01*
X022269Y032393D01*
X022278Y032401D01*
X022288Y032409D01*
X022300Y032416D01*
X022299Y032417D01*
X022297Y032418D01*
X022293Y032421D01*
X022288Y032425D01*
X022282Y032430D01*
X022276Y032438D01*
X022269Y032446D01*
X022264Y032456D01*
X022263Y032457D01*
X022262Y032461D01*
X022259Y032467D01*
X022258Y032475D01*
X022255Y032484D01*
X022252Y032495D01*
X022251Y032507D01*
X022250Y032520D01*
Y032565D01*
Y032566D01*
Y032568D01*
Y032571D01*
X022251Y032574D01*
Y032580D01*
X022252Y032585D01*
X022256Y032599D01*
X022260Y032614D01*
X022268Y032632D01*
X022278Y032650D01*
X022285Y032658D01*
X022292Y032667D01*
X022293Y032668D01*
X022296Y032671D01*
X022300Y032674D01*
X022306Y032679D01*
X022312Y032684D01*
X022320Y032689D01*
X022329Y032694D01*
X022339Y032698D01*
X022363Y032705D01*
X022379Y032708D01*
X022399D01*
X022403Y032707D01*
D02*
G37*
G36*
X033065Y032458D02*
X033073Y032454D01*
X033078Y032451D01*
X033082Y032447D01*
X033083D01*
X033084Y032445D01*
X033089Y032439D01*
X033092Y032431D01*
X033094Y032426D01*
Y032421D01*
Y032420D01*
Y032419D01*
X033093Y032413D01*
X033090Y032404D01*
X033084Y032396D01*
X033082Y032394D01*
X033077Y032390D01*
X033068Y032386D01*
X033062Y032385D01*
X033056Y032384D01*
X032825D01*
Y032134D01*
X032950D01*
X032956Y032133D01*
X032965Y032129D01*
X032969Y032127D01*
X032974Y032122D01*
X032975D01*
X032976Y032120D01*
X032980Y032115D01*
X032985Y032106D01*
X032987Y032102D01*
Y032096D01*
Y032095D01*
Y032094D01*
X032986Y032089D01*
X032983Y032080D01*
X032976Y032071D01*
X032974Y032069D01*
X032968Y032066D01*
X032960Y032061D01*
X032954Y032060D01*
X032948Y032059D01*
X032825D01*
Y031758D01*
X033058D01*
X033065Y031757D01*
X033073Y031753D01*
X033078Y031751D01*
X033082Y031746D01*
X033083D01*
X033084Y031744D01*
X033089Y031739D01*
X033092Y031730D01*
X033094Y031726D01*
Y031720D01*
Y031719D01*
Y031718D01*
X033093Y031713D01*
X033090Y031704D01*
X033084Y031695D01*
X033082Y031693D01*
X033077Y031690D01*
X033068Y031685D01*
X033062Y031684D01*
X033056Y031683D01*
X032785D01*
X032780Y031684D01*
X032774Y031685D01*
X032767Y031687D01*
X032761Y031692D01*
X032754Y031698D01*
X032750Y031708D01*
X032749Y031720D01*
Y032421D01*
Y032423D01*
X032750Y032427D01*
X032751Y032433D01*
X032753Y032441D01*
X032757Y032447D01*
X032764Y032454D01*
X032774Y032458D01*
X032786Y032459D01*
X033058D01*
X033065Y032458D01*
D02*
G37*
G36*
X032631D02*
X032639Y032455D01*
X032649Y032448D01*
X032650D01*
X032651Y032446D01*
X032656Y032442D01*
X032659Y032434D01*
X032661Y032429D01*
Y032423D01*
X032660Y032414D01*
X032526Y031719D01*
Y031718D01*
Y031717D01*
X032523Y031710D01*
X032520Y031702D01*
X032514Y031694D01*
X032513Y031693D01*
X032507Y031690D01*
X032499Y031685D01*
X032490Y031683D01*
X032485D01*
X032481Y031684D01*
X032474Y031686D01*
X032469Y031690D01*
X032462Y031694D01*
X032457Y031701D01*
X032452Y031709D01*
X032327Y032115D01*
X032201Y031710D01*
Y031709D01*
X032199Y031706D01*
X032197Y031702D01*
X032192Y031697D01*
X032188Y031692D01*
X032181Y031687D01*
X032174Y031684D01*
X032164Y031683D01*
X032163D01*
X032158Y031684D01*
X032152Y031686D01*
X032146Y031689D01*
X032140Y031692D01*
X032128Y031716D01*
X031992Y032414D01*
X031991Y032421D01*
Y032422D01*
Y032423D01*
X031992Y032429D01*
X031996Y032437D01*
X032002Y032446D01*
X032003Y032447D01*
X032004Y032448D01*
X032010Y032453D01*
X032019Y032457D01*
X032024Y032459D01*
X032035D01*
X032039Y032458D01*
X032046Y032456D01*
X032052Y032451D01*
X032058Y032447D01*
X032063Y032439D01*
X032067Y032430D01*
X032175Y031842D01*
X032292Y032225D01*
Y032226D01*
X032294Y032230D01*
X032296Y032234D01*
X032299Y032239D01*
X032304Y032245D01*
X032309Y032249D01*
X032317Y032253D01*
X032326Y032254D01*
X032329D01*
X032333Y032253D01*
X032338Y032250D01*
X032343Y032246D01*
X032350Y032241D01*
X032356Y032233D01*
X032363Y032223D01*
X032478Y031842D01*
X032585Y032425D01*
Y032426D01*
X032586Y032429D01*
X032587Y032435D01*
X032591Y032443D01*
X032598Y032450D01*
X032600Y032451D01*
X032604Y032455D01*
X032612Y032458D01*
X032621Y032459D01*
X032624D01*
X032631Y032458D01*
D02*
G37*
%LPC*%
G36*
X031951Y027818D02*
X031826D01*
Y027646D01*
Y027645D01*
Y027641D01*
X031827Y027635D01*
X031829Y027626D01*
X031832Y027617D01*
X031836Y027608D01*
X031842Y027598D01*
X031850Y027589D01*
X031851Y027588D01*
X031855Y027585D01*
X031859Y027582D01*
X031867Y027577D01*
X031875Y027573D01*
X031884Y027569D01*
X031895Y027566D01*
X031906Y027565D01*
X031957D01*
X031963Y027566D01*
X031971Y027568D01*
X031980Y027571D01*
X031989Y027575D01*
X032000Y027581D01*
X032009Y027588D01*
X032010Y027589D01*
X032012Y027593D01*
X032016Y027597D01*
X032020Y027605D01*
X032025Y027613D01*
X032029Y027623D01*
X032031Y027634D01*
X032032Y027646D01*
Y027737D01*
Y027738D01*
Y027742D01*
X032031Y027748D01*
X032030Y027756D01*
X032027Y027765D01*
X032022Y027774D01*
X032017Y027784D01*
X032009Y027793D01*
X032008Y027794D01*
X032004Y027797D01*
X032000Y027801D01*
X031992Y027806D01*
X031984Y027810D01*
X031974Y027814D01*
X031963Y027817D01*
X031951Y027818D01*
D02*
G37*
G36*
X037115Y026489D02*
X037064D01*
X037058Y026489D01*
X037050Y026487D01*
X037041Y026484D01*
X037032Y026479D01*
X037022Y026474D01*
X037013Y026466D01*
X037012Y026465D01*
X037009Y026461D01*
X037005Y026457D01*
X037002Y026449D01*
X036997Y026441D01*
X036993Y026431D01*
X036991Y026420D01*
X036990Y026408D01*
Y026049D01*
Y026047D01*
Y026043D01*
X036991Y026037D01*
X036992Y026029D01*
X036995Y026020D01*
X037000Y026011D01*
X037005Y026001D01*
X037013Y025992D01*
X037014Y025991D01*
X037018Y025988D01*
X037023Y025985D01*
X037030Y025980D01*
X037038Y025976D01*
X037048Y025972D01*
X037058Y025969D01*
X037070Y025968D01*
X037120D01*
X037126Y025969D01*
X037134Y025971D01*
X037143Y025974D01*
X037153Y025978D01*
X037163Y025984D01*
X037172Y025991D01*
X037173Y025992D01*
X037176Y025996D01*
X037180Y026000D01*
X037185Y026007D01*
X037188Y026015D01*
X037193Y026025D01*
X037196Y026036D01*
X037197Y026049D01*
Y026408D01*
Y026410D01*
Y026414D01*
X037196Y026420D01*
X037194Y026428D01*
X037190Y026437D01*
X037187Y026446D01*
X037180Y026456D01*
X037172Y026465D01*
X037171Y026466D01*
X037167Y026469D01*
X037163Y026473D01*
X037156Y026478D01*
X037147Y026481D01*
X037137Y026486D01*
X037126Y026489D01*
X037115Y026489D01*
D02*
G37*
G36*
X034419Y032395D02*
X034294D01*
Y031874D01*
X034425D01*
X034431Y031875D01*
X034438Y031877D01*
X034447Y031879D01*
X034457Y031884D01*
X034467Y031889D01*
X034476Y031897D01*
X034477Y031898D01*
X034480Y031901D01*
X034485Y031906D01*
X034489Y031912D01*
X034493Y031920D01*
X034497Y031930D01*
X034500Y031941D01*
X034501Y031954D01*
Y032314D01*
Y032316D01*
Y032319D01*
X034500Y032326D01*
X034498Y032333D01*
X034495Y032342D01*
X034491Y032351D01*
X034485Y032361D01*
X034476Y032370D01*
X034476Y032371D01*
X034472Y032374D01*
X034467Y032379D01*
X034460Y032383D01*
X034452Y032387D01*
X034442Y032391D01*
X034431Y032394D01*
X034419Y032395D01*
D02*
G37*
G36*
X030493Y033150D02*
X030368D01*
Y032979D01*
Y032977D01*
Y032973D01*
X030369Y032967D01*
X030371Y032959D01*
X030373Y032949D01*
X030378Y032940D01*
X030384Y032930D01*
X030392Y032921D01*
X030393Y032920D01*
X030396Y032918D01*
X030401Y032914D01*
X030408Y032909D01*
X030416Y032905D01*
X030425Y032901D01*
X030436Y032898D01*
X030447Y032898D01*
X030498D01*
X030505Y032898D01*
X030513Y032900D01*
X030522Y032903D01*
X030531Y032908D01*
X030541Y032913D01*
X030550Y032920D01*
X030551Y032921D01*
X030554Y032925D01*
X030558Y032929D01*
X030562Y032937D01*
X030567Y032945D01*
X030570Y032955D01*
X030573Y032966D01*
X030574Y032979D01*
Y033069D01*
Y033071D01*
Y033074D01*
X030573Y033081D01*
X030571Y033088D01*
X030568Y033097D01*
X030564Y033106D01*
X030558Y033116D01*
X030550Y033125D01*
X030549Y033126D01*
X030546Y033129D01*
X030541Y033133D01*
X030534Y033138D01*
X030526Y033142D01*
X030516Y033146D01*
X030505Y033149D01*
X030493Y033150D01*
D02*
G37*
G36*
X036439Y026489D02*
X036314D01*
Y026238D01*
X036444D01*
X036450Y026239D01*
X036458Y026241D01*
X036467Y026243D01*
X036477Y026248D01*
X036487Y026254D01*
X036496Y026261D01*
X036497Y026262D01*
X036500Y026265D01*
X036504Y026270D01*
X036509Y026276D01*
X036512Y026284D01*
X036517Y026295D01*
X036520Y026305D01*
X036521Y026318D01*
Y026408D01*
Y026410D01*
Y026414D01*
X036520Y026420D01*
X036518Y026428D01*
X036514Y026437D01*
X036511Y026446D01*
X036504Y026456D01*
X036496Y026465D01*
X036495Y026466D01*
X036491Y026469D01*
X036487Y026473D01*
X036480Y026478D01*
X036471Y026481D01*
X036461Y026486D01*
X036450Y026489D01*
X036439Y026489D01*
D02*
G37*
G36*
X036968Y028862D02*
X036843D01*
Y028340D01*
X036974D01*
X036980Y028341D01*
X036987Y028343D01*
X036997Y028346D01*
X037007Y028350D01*
X037017Y028356D01*
X037026Y028363D01*
X037027Y028364D01*
X037029Y028368D01*
X037034Y028372D01*
X037038Y028379D01*
X037042Y028387D01*
X037047Y028397D01*
X037049Y028408D01*
X037050Y028421D01*
Y028780D01*
Y028782D01*
Y028786D01*
X037049Y028792D01*
X037048Y028800D01*
X037044Y028809D01*
X037040Y028818D01*
X037034Y028828D01*
X037026Y028837D01*
X037025Y028838D01*
X037021Y028841D01*
X037017Y028845D01*
X037009Y028850D01*
X037001Y028853D01*
X036991Y028858D01*
X036980Y028861D01*
X036968Y028862D01*
D02*
G37*
G36*
X036094Y032356D02*
X035969D01*
Y032104D01*
X036100D01*
X036106Y032105D01*
X036113Y032107D01*
X036122Y032110D01*
X036132Y032114D01*
X036142Y032120D01*
X036151Y032127D01*
X036152Y032128D01*
X036155Y032132D01*
X036160Y032136D01*
X036164Y032142D01*
X036168Y032151D01*
X036172Y032161D01*
X036175Y032172D01*
X036176Y032184D01*
Y032275D01*
Y032276D01*
Y032280D01*
X036175Y032286D01*
X036173Y032294D01*
X036170Y032303D01*
X036166Y032312D01*
X036160Y032322D01*
X036151Y032331D01*
X036151Y032332D01*
X036147Y032335D01*
X036142Y032339D01*
X036135Y032344D01*
X036127Y032347D01*
X036117Y032352D01*
X036106Y032355D01*
X036094Y032356D01*
D02*
G37*
G36*
X023118Y032642D02*
X022993D01*
Y032391D01*
X023123D01*
X023130Y032392D01*
X023137Y032393D01*
X023146Y032396D01*
X023156Y032401D01*
X023166Y032406D01*
X023175Y032413D01*
X023176Y032414D01*
X023179Y032418D01*
X023184Y032423D01*
X023188Y032429D01*
X023192Y032437D01*
X023196Y032447D01*
X023199Y032458D01*
X023200Y032471D01*
Y032561D01*
Y032563D01*
Y032567D01*
X023199Y032573D01*
X023197Y032580D01*
X023194Y032589D01*
X023190Y032598D01*
X023184Y032608D01*
X023175Y032618D01*
X023175Y032618D01*
X023171Y032621D01*
X023166Y032626D01*
X023159Y032630D01*
X023151Y032634D01*
X023141Y032638D01*
X023130Y032641D01*
X023118Y032642D01*
D02*
G37*
G36*
X023523Y032373D02*
X023399D01*
Y032202D01*
Y032200D01*
Y032197D01*
X023400Y032190D01*
X023401Y032182D01*
X023404Y032173D01*
X023409Y032164D01*
X023414Y032154D01*
X023422Y032145D01*
X023423Y032144D01*
X023427Y032141D01*
X023431Y032137D01*
X023439Y032133D01*
X023447Y032128D01*
X023456Y032125D01*
X023467Y032122D01*
X023478Y032121D01*
X023529D01*
X023535Y032122D01*
X023543Y032124D01*
X023553Y032127D01*
X023562Y032131D01*
X023572Y032137D01*
X023581Y032144D01*
X023582Y032145D01*
X023584Y032148D01*
X023588Y032153D01*
X023593Y032160D01*
X023597Y032168D01*
X023601Y032178D01*
X023604Y032189D01*
X023605Y032202D01*
Y032292D01*
Y032294D01*
Y032298D01*
X023604Y032304D01*
X023602Y032311D01*
X023599Y032321D01*
X023594Y032330D01*
X023589Y032340D01*
X023581Y032349D01*
X023580Y032350D01*
X023576Y032352D01*
X023572Y032357D01*
X023564Y032362D01*
X023556Y032365D01*
X023546Y032370D01*
X023535Y032372D01*
X023523Y032373D01*
D02*
G37*
G36*
X025347Y032646D02*
X025222D01*
Y032394D01*
X025353D01*
X025359Y032395D01*
X025366Y032397D01*
X025375Y032400D01*
X025385Y032404D01*
X025395Y032410D01*
X025404Y032417D01*
X025405Y032418D01*
X025408Y032422D01*
X025413Y032426D01*
X025417Y032433D01*
X025421Y032441D01*
X025425Y032451D01*
X025428Y032462D01*
X025429Y032475D01*
Y032565D01*
Y032567D01*
Y032570D01*
X025428Y032577D01*
X025426Y032584D01*
X025423Y032593D01*
X025419Y032602D01*
X025413Y032612D01*
X025404Y032621D01*
X025404Y032622D01*
X025400Y032625D01*
X025395Y032629D01*
X025388Y032634D01*
X025380Y032638D01*
X025370Y032642D01*
X025359Y032645D01*
X025347Y032646D01*
D02*
G37*
G36*
X024236Y032645D02*
X024111D01*
Y032394D01*
X024241D01*
X024248Y032395D01*
X024255Y032397D01*
X024264Y032399D01*
X024274Y032404D01*
X024284Y032409D01*
X024293Y032417D01*
X024294Y032418D01*
X024297Y032421D01*
X024302Y032426D01*
X024306Y032432D01*
X024310Y032440D01*
X024314Y032450D01*
X024317Y032461D01*
X024318Y032474D01*
Y032564D01*
Y032566D01*
Y032570D01*
X024317Y032576D01*
X024315Y032583D01*
X024312Y032592D01*
X024308Y032602D01*
X024302Y032612D01*
X024293Y032621D01*
X024292Y032622D01*
X024289Y032624D01*
X024284Y032629D01*
X024277Y032633D01*
X024269Y032637D01*
X024259Y032642D01*
X024248Y032644D01*
X024236Y032645D01*
D02*
G37*
G36*
X020098Y018683D02*
X019949D01*
Y018383D01*
X020105D01*
X020113Y018384D01*
X020121Y018386D01*
X020132Y018389D01*
X020144Y018395D01*
X020156Y018401D01*
X020167Y018410D01*
X020168Y018411D01*
X020172Y018415D01*
X020177Y018421D01*
X020182Y018428D01*
X020187Y018438D01*
X020192Y018450D01*
X020196Y018463D01*
X020197Y018479D01*
Y018587D01*
Y018589D01*
Y018593D01*
X020196Y018600D01*
X020193Y018609D01*
X020189Y018620D01*
X020184Y018631D01*
X020176Y018643D01*
X020166Y018654D01*
X020165Y018655D01*
X020161Y018658D01*
X020155Y018663D01*
X020146Y018669D01*
X020137Y018673D01*
X020125Y018679D01*
X020113Y018682D01*
X020098Y018683D01*
D02*
G37*
G36*
X020071Y019008D02*
X019949D01*
Y018758D01*
X020078D01*
X020085Y018760D01*
X020095Y018762D01*
X020106Y018765D01*
X020117Y018771D01*
X020129Y018777D01*
X020140Y018787D01*
X020141Y018788D01*
X020144Y018792D01*
X020150Y018798D01*
X020155Y018807D01*
X020160Y018816D01*
X020165Y018828D01*
X020168Y018842D01*
X020169Y018856D01*
Y018910D01*
Y018913D01*
Y018917D01*
X020168Y018925D01*
X020166Y018933D01*
X020163Y018944D01*
X020157Y018955D01*
X020151Y018967D01*
X020141Y018978D01*
X020140Y018979D01*
X020135Y018983D01*
X020130Y018988D01*
X020121Y018993D01*
X020111Y018998D01*
X020099Y019003D01*
X020086Y019007D01*
X020071Y019008D01*
D02*
G37*
G36*
X038564Y030504D02*
X038415D01*
Y030202D01*
X038571D01*
X038579Y030203D01*
X038587Y030205D01*
X038598Y030209D01*
X038610Y030214D01*
X038622Y030221D01*
X038633Y030229D01*
X038634Y030231D01*
X038638Y030235D01*
X038643Y030240D01*
X038649Y030248D01*
X038653Y030258D01*
X038658Y030270D01*
X038662Y030283D01*
X038663Y030298D01*
Y030406D01*
Y030409D01*
Y030413D01*
X038662Y030421D01*
X038659Y030429D01*
X038655Y030440D01*
X038651Y030451D01*
X038643Y030463D01*
X038633Y030474D01*
X038632Y030475D01*
X038628Y030479D01*
X038622Y030484D01*
X038614Y030490D01*
X038604Y030494D01*
X038592Y030499D01*
X038579Y030503D01*
X038564Y030504D01*
D02*
G37*
G36*
X037323D02*
X037173D01*
Y030202D01*
X037329D01*
X037337Y030203D01*
X037346Y030205D01*
X037357Y030209D01*
X037369Y030214D01*
X037381Y030221D01*
X037392Y030229D01*
X037393Y030231D01*
X037396Y030235D01*
X037401Y030240D01*
X037407Y030248D01*
X037411Y030258D01*
X037417Y030270D01*
X037420Y030283D01*
X037421Y030298D01*
Y030406D01*
Y030409D01*
Y030413D01*
X037420Y030421D01*
X037418Y030429D01*
X037413Y030440D01*
X037409Y030451D01*
X037401Y030463D01*
X037392Y030474D01*
X037390Y030475D01*
X037386Y030479D01*
X037381Y030484D01*
X037372Y030490D01*
X037362Y030494D01*
X037350Y030499D01*
X037337Y030503D01*
X037323Y030504D01*
D02*
G37*
G36*
X031732Y032384D02*
X031582D01*
Y032082D01*
X031739D01*
X031746Y032083D01*
X031755Y032085D01*
X031766Y032089D01*
X031778Y032094D01*
X031790Y032101D01*
X031801Y032109D01*
X031802Y032110D01*
X031805Y032115D01*
X031811Y032120D01*
X031816Y032128D01*
X031821Y032138D01*
X031826Y032150D01*
X031829Y032163D01*
X031831Y032178D01*
Y032286D01*
Y032289D01*
Y032293D01*
X031829Y032301D01*
X031827Y032309D01*
X031823Y032320D01*
X031818Y032331D01*
X031811Y032343D01*
X031801Y032354D01*
X031800Y032355D01*
X031796Y032359D01*
X031790Y032364D01*
X031781Y032369D01*
X031772Y032374D01*
X031759Y032379D01*
X031746Y032383D01*
X031732Y032384D01*
D02*
G37*
G36*
X022011Y032645D02*
X021886D01*
Y032394D01*
X022016D01*
X022022Y032395D01*
X022030Y032397D01*
X022039Y032399D01*
X022049Y032404D01*
X022059Y032409D01*
X022068Y032417D01*
X022069Y032418D01*
X022072Y032421D01*
X022076Y032426D01*
X022081Y032432D01*
X022084Y032440D01*
X022089Y032450D01*
X022092Y032461D01*
X022093Y032474D01*
Y032564D01*
Y032566D01*
Y032570D01*
X022092Y032576D01*
X022090Y032583D01*
X022086Y032592D01*
X022083Y032602D01*
X022076Y032612D01*
X022068Y032621D01*
X022067Y032622D01*
X022063Y032624D01*
X022059Y032629D01*
X022052Y032633D01*
X022043Y032637D01*
X022033Y032642D01*
X022022Y032644D01*
X022011Y032645D01*
D02*
G37*
G36*
X022416Y032377D02*
X022365D01*
X022359Y032376D01*
X022351Y032374D01*
X022342Y032371D01*
X022333Y032367D01*
X022323Y032361D01*
X022314Y032353D01*
X022313Y032352D01*
X022310Y032348D01*
X022307Y032344D01*
X022303Y032336D01*
X022299Y032328D01*
X022295Y032318D01*
X022292Y032307D01*
X022291Y032295D01*
Y032205D01*
Y032203D01*
Y032200D01*
X022292Y032193D01*
X022294Y032185D01*
X022297Y032176D01*
X022301Y032167D01*
X022307Y032157D01*
X022315Y032148D01*
X022316Y032147D01*
X022319Y032144D01*
X022324Y032141D01*
X022331Y032136D01*
X022339Y032131D01*
X022349Y032128D01*
X022360Y032125D01*
X022370Y032124D01*
X022421D01*
X022428Y032125D01*
X022436Y032127D01*
X022445Y032130D01*
X022454Y032134D01*
X022464Y032140D01*
X022473Y032147D01*
X022474Y032148D01*
X022477Y032152D01*
X022481Y032156D01*
X022485Y032163D01*
X022490Y032172D01*
X022493Y032182D01*
X022496Y032193D01*
X022497Y032205D01*
Y032295D01*
Y032297D01*
Y032301D01*
X022496Y032307D01*
X022494Y032315D01*
X022492Y032324D01*
X022487Y032333D01*
X022482Y032343D01*
X022473Y032352D01*
X022473Y032353D01*
X022469Y032356D01*
X022464Y032360D01*
X022457Y032365D01*
X022449Y032368D01*
X022439Y032373D01*
X022428Y032376D01*
X022416Y032377D01*
D02*
G37*
G36*
X022394Y032645D02*
X022389D01*
X022382Y032644D01*
X022375Y032643D01*
X022366Y032640D01*
X022357Y032635D01*
X022347Y032630D01*
X022338Y032622D01*
X022337Y032621D01*
X022334Y032618D01*
X022330Y032612D01*
X022326Y032606D01*
X022321Y032598D01*
X022318Y032588D01*
X022315Y032577D01*
X022314Y032565D01*
Y032519D01*
Y032517D01*
Y032513D01*
X022315Y032507D01*
X022317Y032499D01*
X022319Y032490D01*
X022324Y032480D01*
X022329Y032471D01*
X022337Y032462D01*
X022338Y032461D01*
X022341Y032459D01*
X022346Y032455D01*
X022353Y032451D01*
X022361Y032447D01*
X022370Y032443D01*
X022381Y032440D01*
X022393Y032439D01*
X022399D01*
X022405Y032440D01*
X022412Y032442D01*
X022421Y032445D01*
X022432Y032449D01*
X022442Y032455D01*
X022451Y032462D01*
X022452Y032463D01*
X022454Y032467D01*
X022459Y032471D01*
X022463Y032478D01*
X022467Y032486D01*
X022472Y032496D01*
X022474Y032507D01*
X022475Y032519D01*
Y032565D01*
Y032567D01*
Y032571D01*
X022474Y032577D01*
X022473Y032584D01*
X022470Y032593D01*
X022465Y032602D01*
X022460Y032612D01*
X022452Y032622D01*
X022451Y032623D01*
X022447Y032625D01*
X022442Y032629D01*
X022435Y032633D01*
X022427Y032638D01*
X022417Y032642D01*
X022406Y032644D01*
X022394Y032645D01*
D02*
G37*
%LPD*%
G54D17*
X054744Y024800D02*
X054791Y024713D01*
X054841Y024626D01*
X054610Y025068D02*
X054653Y024978D01*
X054698Y024889D01*
X054744Y024800D01*
X054610Y025068D02*
X054568Y025159D01*
X054528Y025250D01*
X054489Y025342D01*
X054452Y025434D01*
X054417Y025528D01*
X054383Y025622D01*
X054351Y025716D01*
X054320Y025811D01*
X054291Y025906D01*
X054264Y026002D01*
X054238Y026098D01*
X054214Y026195D01*
X054191Y026292D01*
X054170Y026390D01*
X054151Y026488D01*
X054133Y026586D01*
X054118Y026684D01*
X054103Y026783D01*
X054091Y026882D01*
X054080Y026981D01*
X054070Y027081D01*
X054063Y027180D01*
X054057Y027280D01*
X054053Y027379D01*
X054050Y027479D01*
X054049Y027579D01*
X054050Y027678D01*
X054053Y027778D01*
X054057Y027878D01*
X054063Y027977D01*
X054070Y028077D01*
X054080Y028176D01*
X054091Y028275D01*
X054103Y028374D01*
X054118Y028473D01*
X054133Y028571D01*
X054151Y028670D01*
X054170Y028768D01*
X054191Y028865D01*
X054214Y028962D01*
X054238Y029059D01*
X054264Y029155D01*
X054291Y029251D01*
X054320Y029347D01*
X054351Y029442D01*
X054383Y029536D01*
X054417Y029630D01*
X054452Y029723D01*
X054489Y029816D01*
X054528Y029908D01*
X054568Y029999D01*
X054610Y030090D01*
X054653Y030179D01*
X054698Y030269D01*
X054744Y030357D01*
X054791Y030445D01*
X054841Y030531D01*
G54D39*
X030797Y026732D02*
X031329D01*
X032283Y026506D02*
Y027037D01*
X031959Y028583D02*
X031427D01*
X029961Y028297D02*
Y027766D01*
X025837Y030512D02*
X025325D01*
X024724D02*
X024213D01*
X023612D02*
X023100D01*
X022500D02*
X021988D01*
X036339Y032854D02*
Y033366D01*
X042687Y027756D02*
X043218D01*
X038219Y026467D02*
X037707D01*
G54D40*
X020906Y023795D02*
Y030929D01*
X020894D02*
X018465D01*
Y023795D01*
X020906D01*
X021339Y023362D02*
Y031362D01*
X019685D01*
Y031358D02*
X018032D01*
Y023366D01*
X019685D01*
Y023362D02*
X021339D01*
X021435Y024862D02*
Y025862D01*
X021339D01*
Y024862D02*
X021435D01*
X021339Y026862D02*
X020906D01*
Y027862D02*
X021339D01*
X031126Y032650D02*
Y033650D01*
X033126D01*
Y032650D01*
X031126D01*
G54D41*
X034104Y032904D02*
X034400D01*
X034350Y033002D02*
Y033297D01*
X034163Y033150D01*
X034350Y033002D01*
X034154D02*
Y033297D01*
X034094Y033150D02*
X034400D01*
Y033396D02*
X034104D01*
X037736Y028346D02*
Y028051D01*
X037835Y028100D02*
X038130D01*
X037982Y028287D01*
X037835Y028100D01*
Y028297D02*
X038130D01*
X038228Y028346D02*
Y028051D01*
X037982D02*
Y028356D01*
G54D42*
X044797Y022264D02*
Y022443D01*
Y022264D02*
X048835Y022264D01*
X049812Y022263D02*
X053367Y022262D01*
X054344Y022264D02*
X054837Y022264D01*
Y024591D01*
Y030578D02*
X054837Y033445D01*
X054732D01*
X053757D02*
X044797D01*
Y031571D01*
M02*
