G04 Layer_Physical_Order=1*
G04 Layer_Color=255*
%FSAX24Y24*%
%MOIN*%
G70*
G01*
G75*
%ADD10O,0.0669X0.0394*%
G04:AMPARAMS|DCode=11|XSize=59.1mil|YSize=393.7mil|CornerRadius=14.8mil|HoleSize=0mil|Usage=FLASHONLY|Rotation=0.000|XOffset=0mil|YOffset=0mil|HoleType=Round|Shape=RoundedRectangle|*
%AMROUNDEDRECTD11*
21,1,0.0591,0.3642,0,0,0.0*
21,1,0.0295,0.3937,0,0,0.0*
1,1,0.0295,0.0148,-0.1821*
1,1,0.0295,-0.0148,-0.1821*
1,1,0.0295,-0.0148,0.1821*
1,1,0.0295,0.0148,0.1821*
%
%ADD11ROUNDEDRECTD11*%
%ADD12O,0.0394X0.0669*%
%ADD13R,0.0433X0.0492*%
G04:AMPARAMS|DCode=14|XSize=78.7mil|YSize=78.7mil|CornerRadius=19.7mil|HoleSize=0mil|Usage=FLASHONLY|Rotation=0.000|XOffset=0mil|YOffset=0mil|HoleType=Round|Shape=RoundedRectangle|*
%AMROUNDEDRECTD14*
21,1,0.0787,0.0394,0,0,0.0*
21,1,0.0394,0.0787,0,0,0.0*
1,1,0.0394,0.0197,-0.0197*
1,1,0.0394,-0.0197,-0.0197*
1,1,0.0394,-0.0197,0.0197*
1,1,0.0394,0.0197,0.0197*
%
%ADD14ROUNDEDRECTD14*%
%ADD15O,0.1299X0.0433*%
%ADD16R,0.0492X0.0433*%
%ADD17C,0.0098*%
%ADD18C,0.0295*%
%ADD19C,0.0197*%
%ADD20O,0.0551X0.0630*%
G04:AMPARAMS|DCode=21|XSize=55.1mil|YSize=63mil|CornerRadius=13.8mil|HoleSize=0mil|Usage=FLASHONLY|Rotation=0.000|XOffset=0mil|YOffset=0mil|HoleType=Round|Shape=RoundedRectangle|*
%AMROUNDEDRECTD21*
21,1,0.0551,0.0354,0,0,0.0*
21,1,0.0276,0.0630,0,0,0.0*
1,1,0.0276,0.0138,-0.0177*
1,1,0.0276,-0.0138,-0.0177*
1,1,0.0276,-0.0138,0.0177*
1,1,0.0276,0.0138,0.0177*
%
%ADD21ROUNDEDRECTD21*%
%ADD22O,0.0630X0.0551*%
G04:AMPARAMS|DCode=23|XSize=55.1mil|YSize=63mil|CornerRadius=13.8mil|HoleSize=0mil|Usage=FLASHONLY|Rotation=90.000|XOffset=0mil|YOffset=0mil|HoleType=Round|Shape=RoundedRectangle|*
%AMROUNDEDRECTD23*
21,1,0.0551,0.0354,0,0,90.0*
21,1,0.0276,0.0630,0,0,90.0*
1,1,0.0276,0.0177,0.0138*
1,1,0.0276,0.0177,-0.0138*
1,1,0.0276,-0.0177,-0.0138*
1,1,0.0276,-0.0177,0.0138*
%
%ADD23ROUNDEDRECTD23*%
%ADD24C,0.0787*%
%ADD25C,0.0197*%
%ADD26C,0.0472*%
%ADD27C,0.0236*%
%ADD28C,0.0394*%
%ADD29C,0.0551*%
G36*
X054711Y021998D02*
X050187Y021998D01*
Y019892D01*
X049951D01*
Y015669D01*
X049842D01*
X049816Y015719D01*
X049819Y015724D01*
X049827Y015766D01*
X049819Y015808D01*
X049795Y015844D01*
X049759Y015868D01*
X049717Y015876D01*
X049674Y015868D01*
X049638Y015844D01*
X049621Y015826D01*
X049597Y015790D01*
X049588Y015748D01*
X049594Y015719D01*
X049572Y015680D01*
X049561Y015669D01*
X049499D01*
X049450Y015716D01*
X049468Y016486D01*
X049498Y016516D01*
Y019892D01*
X049291D01*
X049291Y021998D01*
X046614Y021998D01*
Y022854D01*
X053632Y022854D01*
X053632Y033356D01*
X038447Y033356D01*
Y033622D01*
X032008D01*
X032008Y032697D01*
X019566Y032697D01*
Y029065D01*
X018614D01*
Y025672D01*
X019566D01*
Y025049D01*
X018258D01*
Y029584D01*
X018898D01*
X018898Y033543D01*
X031417D01*
Y033874D01*
X054711D01*
Y021998D01*
D02*
G37*
G36*
X032096Y028425D02*
Y026417D01*
X031634D01*
X031634Y026919D01*
X030679Y026919D01*
Y027677D01*
X030148Y027677D01*
X030148Y028421D01*
X030157Y028425D01*
X032096Y028425D01*
D02*
G37*
%LPC*%
G36*
X019157Y029601D02*
X019077Y029584D01*
X019008Y029539D01*
X018963Y029470D01*
X018947Y029390D01*
X018963Y029309D01*
X019008Y029241D01*
X019036Y029213D01*
X019104Y029168D01*
X019185Y029151D01*
X019266Y029168D01*
X019334Y029213D01*
X019380Y029282D01*
X019396Y029362D01*
X019380Y029443D01*
X019334Y029511D01*
X019306Y029539D01*
X019238Y029584D01*
X019157Y029601D01*
D02*
G37*
%LPD*%
G54D10*
X025581Y030118D02*
D03*
Y030906D02*
D03*
X024469D02*
D03*
Y030118D02*
D03*
X023356D02*
D03*
Y030906D02*
D03*
X022244D02*
D03*
Y030118D02*
D03*
X031063Y027126D02*
D03*
Y026339D02*
D03*
X031693Y028189D02*
D03*
Y028976D02*
D03*
X037963Y026073D02*
D03*
Y026860D02*
D03*
X042953Y027362D02*
D03*
Y028150D02*
D03*
G54D11*
X020699Y015748D02*
D03*
X021699D02*
D03*
X022699D02*
D03*
X023699D02*
D03*
X024699D02*
D03*
X025699D02*
D03*
X026699D02*
D03*
X027699D02*
D03*
X028699D02*
D03*
X029699D02*
D03*
X030699D02*
D03*
X031699D02*
D03*
X032699D02*
D03*
X033699D02*
D03*
X034699D02*
D03*
X035699D02*
D03*
X036699D02*
D03*
X037699D02*
D03*
X038699D02*
D03*
X039699D02*
D03*
X040699D02*
D03*
X041699D02*
D03*
X042699D02*
D03*
X043699D02*
D03*
X044699D02*
D03*
X045699D02*
D03*
X046699D02*
D03*
X047699D02*
D03*
X048699D02*
D03*
X049699D02*
D03*
X050699D02*
D03*
G54D12*
X029567Y028031D02*
D03*
X030354D02*
D03*
X031890Y026772D02*
D03*
X032677D02*
D03*
X035945Y033110D02*
D03*
X036732D02*
D03*
G54D13*
X037982Y027736D02*
D03*
Y028661D02*
D03*
G54D14*
X049325Y022402D02*
D03*
X053853D02*
D03*
X054246Y033386D02*
D03*
G54D15*
X044601Y022756D02*
D03*
X044606Y023740D02*
D03*
Y024409D02*
D03*
Y025354D02*
D03*
Y026339D02*
D03*
Y027323D02*
D03*
Y028307D02*
D03*
Y029291D02*
D03*
Y030276D02*
D03*
X044601Y031260D02*
D03*
G54D16*
X033789Y033150D02*
D03*
X034715D02*
D03*
G54D17*
X020699Y015748D02*
X020717Y015766D01*
Y020276D01*
X021717D02*
Y015766D01*
X021699Y015748D01*
X022699D02*
X022717Y015766D01*
Y020276D01*
X023219Y020778D01*
Y023593D01*
X023858Y024232D01*
X026880D01*
X026270Y024813D02*
Y030807D01*
X026604Y029281D02*
Y032411D01*
X026663Y032470D01*
X040463D01*
X039774Y031713D02*
X041171D01*
X040984Y031230D02*
X041929Y030285D01*
X044596D01*
X044606Y030276D01*
X044606Y029291D02*
X044606Y029291D01*
X044606Y029291D02*
X043543D01*
X044606Y026339D02*
X045846D01*
X046998Y026102D02*
Y030669D01*
X047362Y030492D02*
X048002Y031132D01*
X048307Y029823D02*
X047756Y029272D01*
Y026339D01*
X046565Y028514D02*
Y030059D01*
X047362Y030492D02*
Y025994D01*
X045108Y023740D01*
X044606D01*
X045571Y021949D02*
X046083Y022461D01*
Y022904D01*
X046545Y023366D01*
X045305Y024409D02*
X046998Y026102D01*
X045305Y024409D02*
X044606D01*
X042156D01*
X040384Y026181D01*
Y030640D01*
X039852D01*
X038671Y031821D01*
X027746D01*
Y027402D01*
X026929Y028661D02*
Y032205D01*
X039281D01*
X039774Y031713D01*
X039754Y031230D02*
X040984D01*
X039754D02*
X038976Y032008D01*
X027372D01*
Y027697D01*
X026870Y026319D02*
Y025640D01*
X028199Y024311D01*
X033415D01*
X034665Y025561D01*
Y027047D01*
X034449Y027264D01*
X034055Y027146D02*
Y029085D01*
X034252Y029281D01*
X035354Y028671D02*
Y030217D01*
X034518Y031053D01*
X031526D01*
X031388Y030915D01*
X032136Y030866D02*
X034380D01*
X035069Y030177D01*
Y025285D01*
X032825Y023041D01*
Y022490D01*
X032500Y022077D02*
Y022982D01*
X034911Y025394D01*
Y030098D01*
X034409Y030600D01*
X032333D01*
X031063Y031220D02*
X034665D01*
X035630Y030256D01*
Y025344D01*
X033169Y022884D01*
X032205Y023435D02*
Y020764D01*
X031717Y020276D01*
Y015766D01*
X031699Y015748D01*
X032699D02*
X032717Y015766D01*
Y020276D01*
Y021276D02*
X036329Y024888D01*
Y027126D01*
X037963Y026073D02*
Y024793D01*
X039862Y022894D01*
X040522D01*
X040827Y022589D01*
X042953D01*
X043593Y021949D01*
X045571D01*
X045717Y020276D02*
Y015766D01*
X045699Y015748D01*
X046699D02*
X046717Y015766D01*
Y020276D01*
X044717D02*
Y015766D01*
X044699Y015748D01*
X043717Y015766D02*
Y020276D01*
Y021276D02*
X042640Y022352D01*
X040738D01*
X040384Y022707D01*
X039291D01*
X038238Y023760D01*
Y024045D01*
X037844Y023819D02*
Y024291D01*
Y023819D02*
X039163Y022500D01*
X040226D01*
X040591Y022136D01*
X041856D01*
X042717Y021276D01*
X041717D02*
X041063Y021929D01*
X040443D01*
X040079Y022293D01*
X038996D01*
X037539Y023750D01*
Y024498D01*
X037195Y024744D02*
Y023829D01*
X038986Y022037D01*
X039955D01*
X040717Y021276D01*
Y020276D02*
Y015766D01*
X040699Y015748D01*
X043699D02*
X043717Y015766D01*
X047699Y015748D02*
X047717Y015766D01*
X049699Y015748D02*
X049717Y015766D01*
X044606Y026339D02*
X041073D01*
X037963Y027717D02*
X037982Y027736D01*
X037963Y027717D02*
Y026860D01*
X035797Y024882D02*
Y030443D01*
X034774Y031467D01*
X030738D01*
X032008Y030738D02*
X032136Y030866D01*
X033789Y033150D02*
X033789Y033150D01*
X033789Y033150D02*
X032626D01*
X034715Y033150D02*
X035906D01*
X035945Y033110D01*
X034055Y027146D02*
X034311Y026890D01*
Y025778D01*
X033120Y024587D01*
X028435D01*
X027274Y025748D01*
X025573Y025362D02*
Y030110D01*
X025581Y030118D01*
X024469D02*
X024453Y030102D01*
Y026362D01*
X020185D01*
Y027362D02*
X023346D01*
X023356Y027372D01*
Y030118D01*
X022244D02*
Y029390D01*
X022217Y029362D01*
X020185D01*
Y025362D02*
X025573D01*
X026280Y023110D02*
X026555Y023386D01*
X026280Y023110D02*
Y020839D01*
X025717Y020276D01*
Y015766D01*
X025699Y015748D01*
X026699D02*
X026717Y015766D01*
Y020276D01*
X027254Y020813D01*
Y022982D01*
X028268Y023691D02*
Y020827D01*
X027717Y020276D01*
Y015766D01*
X027699Y015748D01*
X028699D02*
X028717Y015766D01*
Y020276D01*
X029311Y020870D01*
Y023543D01*
X030217Y023307D02*
Y020776D01*
X029717Y020276D01*
Y015766D01*
X029699Y015748D01*
X030699D02*
X030717Y015766D01*
Y020276D01*
X031260Y020819D01*
Y023415D01*
X033717Y020276D02*
Y015766D01*
X033699Y015748D01*
X034699D02*
X034717Y015766D01*
Y020276D01*
X035717D02*
Y015766D01*
X035699Y015748D01*
X036699D02*
X036717Y015766D01*
Y020276D01*
X037717D02*
Y015766D01*
X037699Y015748D01*
X038699D02*
X038717Y015766D01*
Y020276D01*
X038209Y020783D01*
Y022067D01*
X036585Y023691D01*
X035797Y024882D02*
X034104Y023189D01*
X043740Y031270D02*
X044591D01*
X044601Y031260D01*
X046270Y030531D02*
Y028091D01*
X024717Y020276D02*
Y015766D01*
X024699Y015748D01*
X023717Y015766D02*
Y020276D01*
Y015766D02*
X023699Y015748D01*
G54D18*
X029587Y026339D02*
Y028012D01*
X029567Y028031D01*
Y028986D01*
Y030207D01*
X028396Y031378D01*
X029567Y028986D02*
X031683D01*
X031693Y028976D01*
X032638D01*
X032677Y028937D01*
X033789Y030049D01*
X034321D01*
X032677Y028937D02*
Y026772D01*
X031063Y026339D02*
X029587D01*
X025581Y030906D02*
X025531Y030955D01*
Y031644D01*
X025581Y030906D02*
X024469D01*
X023356D01*
X022244D01*
X019157Y029390D02*
X019185Y029362D01*
X036732Y033110D02*
X037313D01*
X037549Y032874D01*
X050423D01*
Y023720D01*
X046900D01*
X046545Y023366D01*
X047717Y020276D02*
Y015766D01*
X044606Y025354D02*
X043159D01*
Y025906D01*
X044606Y027323D02*
X044616Y027313D01*
X045591D01*
X044606Y028307D02*
X043898D01*
X043740Y028150D01*
X042953D01*
Y028573D01*
X042933Y028593D01*
X042953Y027362D02*
X044567D01*
X044606Y027323D01*
X042953Y027362D02*
X040718D01*
X037982Y028661D02*
Y031496D01*
G54D19*
X028228Y028031D02*
X029567D01*
X031063Y026339D02*
Y024961D01*
X033780Y026772D02*
X032677D01*
X031693Y028976D02*
Y030433D01*
G54D20*
X021717Y020276D02*
D03*
Y021276D02*
D03*
X022717D02*
D03*
Y020276D02*
D03*
X023717D02*
D03*
X023717Y021276D02*
D03*
X024717D02*
D03*
X024717Y020276D02*
D03*
X025717D02*
D03*
X025717Y021276D02*
D03*
X026717Y021276D02*
D03*
Y020276D02*
D03*
X027717D02*
D03*
Y021276D02*
D03*
X028717Y021276D02*
D03*
X028717Y020276D02*
D03*
X029717D02*
D03*
Y021276D02*
D03*
X030717Y021276D02*
D03*
Y020276D02*
D03*
X031717D02*
D03*
Y021276D02*
D03*
X032717Y021276D02*
D03*
Y020276D02*
D03*
X033717D02*
D03*
X033717Y021276D02*
D03*
X034717D02*
D03*
Y020276D02*
D03*
X035717D02*
D03*
Y021276D02*
D03*
X036717Y021276D02*
D03*
Y020276D02*
D03*
X037717D02*
D03*
X037717Y021276D02*
D03*
X038717Y021276D02*
D03*
Y020276D02*
D03*
X039717D02*
D03*
Y021276D02*
D03*
X040717D02*
D03*
Y020276D02*
D03*
X041717D02*
D03*
Y021276D02*
D03*
X042717D02*
D03*
X042717Y020276D02*
D03*
X043717D02*
D03*
Y021276D02*
D03*
X044717Y021276D02*
D03*
Y020276D02*
D03*
X045717D02*
D03*
Y021276D02*
D03*
X046717D02*
D03*
X046717Y020276D02*
D03*
X047717D02*
D03*
X048717D02*
D03*
Y021276D02*
D03*
X047717Y021276D02*
D03*
X049717Y021276D02*
D03*
Y020276D02*
D03*
X050717D02*
D03*
Y021276D02*
D03*
G54D21*
X020717Y020276D02*
D03*
Y021276D02*
D03*
G54D22*
X019185Y025362D02*
D03*
Y026362D02*
D03*
Y027362D02*
D03*
X020185D02*
D03*
Y026362D02*
D03*
Y028362D02*
D03*
X019185D02*
D03*
Y029362D02*
D03*
X020185D02*
D03*
G54D23*
X020185Y025362D02*
D03*
G54D24*
X032626Y033150D02*
D03*
X031626D02*
D03*
G54D25*
X037982Y031496D02*
D03*
X037313Y033110D02*
D03*
X038632Y033504D02*
D03*
X040463Y032470D02*
D03*
X043543Y029291D02*
D03*
X042933Y028593D02*
D03*
X045591Y027313D02*
D03*
X045846Y026339D02*
D03*
X046565Y028514D02*
D03*
X047756Y026339D02*
D03*
X046270Y028091D02*
D03*
X048307Y029823D02*
D03*
X048002Y031132D02*
D03*
X046998Y030669D02*
D03*
X046565Y030059D02*
D03*
X046270Y030531D02*
D03*
X043740Y031270D02*
D03*
X040718Y027362D02*
D03*
X041073Y026339D02*
D03*
X043159Y025906D02*
D03*
G54D26*
X028396Y031378D02*
D03*
X025531Y031644D02*
D03*
X034321Y030049D02*
D03*
X040532Y023337D02*
D03*
G54D27*
X026555Y023386D02*
D03*
X027254Y022982D02*
D03*
X028268Y023691D02*
D03*
X029311Y023543D02*
D03*
X030217Y023307D02*
D03*
X031260Y023415D02*
D03*
X032825Y022490D02*
D03*
X032500Y022077D02*
D03*
X034104Y023189D02*
D03*
X033169Y022884D02*
D03*
X032205Y023435D02*
D03*
X031063Y024961D02*
D03*
X033780Y026772D02*
D03*
X034449Y027264D02*
D03*
X036329Y027126D02*
D03*
X037195Y024744D02*
D03*
X037539Y024498D02*
D03*
X037844Y024291D02*
D03*
X038238Y024045D02*
D03*
X036585Y023691D02*
D03*
X035354Y028671D02*
D03*
X034252Y029281D02*
D03*
X032333Y030600D02*
D03*
X031063Y031220D02*
D03*
X031388Y030915D02*
D03*
X031693Y030433D02*
D03*
X032008Y030738D02*
D03*
X030738Y031467D02*
D03*
X028228Y028031D02*
D03*
X027746Y027402D02*
D03*
X026929Y028661D02*
D03*
X026604Y029281D02*
D03*
X027372Y027697D02*
D03*
X026870Y026319D02*
D03*
X027274Y025748D02*
D03*
X026880Y024232D02*
D03*
X026270Y024813D02*
D03*
X025571Y027106D02*
D03*
X024459Y028976D02*
D03*
X023327Y027392D02*
D03*
X022234Y029390D02*
D03*
X026270Y030807D02*
D03*
X040384Y030640D02*
D03*
X041171Y031713D02*
D03*
X041929Y030285D02*
D03*
X046545Y023366D02*
D03*
G54D28*
X053268Y027746D02*
D03*
Y030896D02*
D03*
G54D29*
X031024Y027736D02*
D03*
X047047Y022421D02*
D03*
X054065Y023376D02*
D03*
M02*
