G04 Layer_Color=8388736*
%FSAX24Y24*%
%MOIN*%
G70*
G01*
G75*
%ADD43O,0.0749X0.0474*%
G04:AMPARAMS|DCode=44|XSize=67.1mil|YSize=401.7mil|CornerRadius=18.8mil|HoleSize=0mil|Usage=FLASHONLY|Rotation=0.000|XOffset=0mil|YOffset=0mil|HoleType=Round|Shape=RoundedRectangle|*
%AMROUNDEDRECTD44*
21,1,0.0671,0.3642,0,0,0.0*
21,1,0.0295,0.4017,0,0,0.0*
1,1,0.0375,0.0148,-0.1821*
1,1,0.0375,-0.0148,-0.1821*
1,1,0.0375,-0.0148,0.1821*
1,1,0.0375,0.0148,0.1821*
%
%ADD44ROUNDEDRECTD44*%
%ADD45O,0.0474X0.0749*%
%ADD46R,0.0513X0.0572*%
G04:AMPARAMS|DCode=47|XSize=86.6mil|YSize=86.6mil|CornerRadius=23.6mil|HoleSize=0mil|Usage=FLASHONLY|Rotation=0.000|XOffset=0mil|YOffset=0mil|HoleType=Round|Shape=RoundedRectangle|*
%AMROUNDEDRECTD47*
21,1,0.0866,0.0394,0,0,0.0*
21,1,0.0394,0.0866,0,0,0.0*
1,1,0.0472,0.0197,-0.0197*
1,1,0.0472,-0.0197,-0.0197*
1,1,0.0472,-0.0197,0.0197*
1,1,0.0472,0.0197,0.0197*
%
%ADD47ROUNDEDRECTD47*%
G04:AMPARAMS|DCode=48|XSize=86.7mil|YSize=86.7mil|CornerRadius=23.7mil|HoleSize=0mil|Usage=FLASHONLY|Rotation=0.000|XOffset=0mil|YOffset=0mil|HoleType=Round|Shape=RoundedRectangle|*
%AMROUNDEDRECTD48*
21,1,0.0867,0.0394,0,0,0.0*
21,1,0.0394,0.0867,0,0,0.0*
1,1,0.0474,0.0197,-0.0197*
1,1,0.0474,-0.0197,-0.0197*
1,1,0.0474,-0.0197,0.0197*
1,1,0.0474,0.0197,0.0197*
%
%ADD48ROUNDEDRECTD48*%
%ADD49O,0.1378X0.0512*%
%ADD50R,0.0572X0.0513*%
%ADD51O,0.0631X0.0710*%
G04:AMPARAMS|DCode=52|XSize=63.1mil|YSize=71mil|CornerRadius=17.8mil|HoleSize=0mil|Usage=FLASHONLY|Rotation=0.000|XOffset=0mil|YOffset=0mil|HoleType=Round|Shape=RoundedRectangle|*
%AMROUNDEDRECTD52*
21,1,0.0631,0.0354,0,0,0.0*
21,1,0.0276,0.0710,0,0,0.0*
1,1,0.0356,0.0138,-0.0177*
1,1,0.0356,-0.0138,-0.0177*
1,1,0.0356,-0.0138,0.0177*
1,1,0.0356,0.0138,0.0177*
%
%ADD52ROUNDEDRECTD52*%
%ADD53O,0.0710X0.0631*%
G04:AMPARAMS|DCode=54|XSize=63.1mil|YSize=71mil|CornerRadius=17.8mil|HoleSize=0mil|Usage=FLASHONLY|Rotation=90.000|XOffset=0mil|YOffset=0mil|HoleType=Round|Shape=RoundedRectangle|*
%AMROUNDEDRECTD54*
21,1,0.0631,0.0354,0,0,90.0*
21,1,0.0276,0.0710,0,0,90.0*
1,1,0.0356,0.0177,0.0138*
1,1,0.0356,0.0177,-0.0138*
1,1,0.0356,-0.0177,-0.0138*
1,1,0.0356,-0.0177,0.0138*
%
%ADD54ROUNDEDRECTD54*%
%ADD55C,0.0080*%
%ADD56C,0.0867*%
%ADD57C,0.0277*%
%ADD58C,0.0552*%
%ADD59C,0.0316*%
%ADD60C,0.0474*%
%ADD61C,0.0631*%
G54D43*
X025581Y030118D02*
D03*
Y030906D02*
D03*
X024469D02*
D03*
Y030118D02*
D03*
X023356D02*
D03*
Y030906D02*
D03*
X022244D02*
D03*
Y030118D02*
D03*
X031063Y027126D02*
D03*
Y026339D02*
D03*
X031693Y028189D02*
D03*
Y028976D02*
D03*
X037963Y026073D02*
D03*
Y026860D02*
D03*
X042953Y027362D02*
D03*
Y028150D02*
D03*
G54D44*
X020699Y015748D02*
D03*
X021699D02*
D03*
X022699D02*
D03*
X023699D02*
D03*
X024699D02*
D03*
X025699D02*
D03*
X026699D02*
D03*
X027699D02*
D03*
X028699D02*
D03*
X029699D02*
D03*
X030699D02*
D03*
X031699D02*
D03*
X032699D02*
D03*
X033699D02*
D03*
X034699D02*
D03*
X035699D02*
D03*
X036699D02*
D03*
X037699D02*
D03*
X038699D02*
D03*
X039699D02*
D03*
X040699D02*
D03*
X041699D02*
D03*
X042699D02*
D03*
X043699D02*
D03*
X044699D02*
D03*
X045699D02*
D03*
X046699D02*
D03*
X047699D02*
D03*
X048699D02*
D03*
X049699D02*
D03*
X050699D02*
D03*
G54D45*
X029567Y028031D02*
D03*
X030354D02*
D03*
X031890Y026772D02*
D03*
X032677D02*
D03*
X035945Y033110D02*
D03*
X036732D02*
D03*
G54D46*
X037982Y027736D02*
D03*
Y028661D02*
D03*
G54D47*
X053853Y022402D02*
D03*
G54D48*
X049325Y022402D02*
D03*
X054246Y033386D02*
D03*
G54D49*
X044601Y022756D02*
D03*
X044606Y023740D02*
D03*
Y024409D02*
D03*
Y025354D02*
D03*
Y026339D02*
D03*
Y027323D02*
D03*
Y028307D02*
D03*
Y029291D02*
D03*
Y030276D02*
D03*
X044601Y031260D02*
D03*
G54D50*
X033789Y033150D02*
D03*
X034715D02*
D03*
G54D51*
X021717Y020276D02*
D03*
Y021276D02*
D03*
X022717D02*
D03*
Y020276D02*
D03*
X023717D02*
D03*
X023717Y021276D02*
D03*
X024717D02*
D03*
X024717Y020276D02*
D03*
X025717D02*
D03*
X025717Y021276D02*
D03*
X026717Y021276D02*
D03*
Y020276D02*
D03*
X027717D02*
D03*
Y021276D02*
D03*
X028717Y021276D02*
D03*
X028717Y020276D02*
D03*
X029717D02*
D03*
Y021276D02*
D03*
X030717Y021276D02*
D03*
Y020276D02*
D03*
X031717D02*
D03*
Y021276D02*
D03*
X032717Y021276D02*
D03*
Y020276D02*
D03*
X033717D02*
D03*
X033717Y021276D02*
D03*
X034717D02*
D03*
Y020276D02*
D03*
X035717D02*
D03*
Y021276D02*
D03*
X036717Y021276D02*
D03*
Y020276D02*
D03*
X037717D02*
D03*
X037717Y021276D02*
D03*
X038717Y021276D02*
D03*
Y020276D02*
D03*
X039717D02*
D03*
Y021276D02*
D03*
X040717D02*
D03*
Y020276D02*
D03*
X041717D02*
D03*
Y021276D02*
D03*
X042717D02*
D03*
X042717Y020276D02*
D03*
X043717D02*
D03*
Y021276D02*
D03*
X044717Y021276D02*
D03*
Y020276D02*
D03*
X045717D02*
D03*
Y021276D02*
D03*
X046717D02*
D03*
X046717Y020276D02*
D03*
X047717D02*
D03*
X048717D02*
D03*
Y021276D02*
D03*
X047717Y021276D02*
D03*
X049717Y021276D02*
D03*
Y020276D02*
D03*
X050717D02*
D03*
Y021276D02*
D03*
G54D52*
X020717Y020276D02*
D03*
Y021276D02*
D03*
G54D53*
X019185Y025362D02*
D03*
Y026362D02*
D03*
Y027362D02*
D03*
X020185D02*
D03*
Y026362D02*
D03*
Y028362D02*
D03*
X019185D02*
D03*
Y029362D02*
D03*
X020185D02*
D03*
G54D54*
X020185Y025362D02*
D03*
G54D55*
X045979Y031831D02*
D03*
G54D56*
X032626Y033150D02*
D03*
X031626D02*
D03*
G54D57*
X037982Y031496D02*
D03*
X037313Y033110D02*
D03*
X038632Y033504D02*
D03*
X040463Y032470D02*
D03*
X043543Y029291D02*
D03*
X042933Y028593D02*
D03*
X045591Y027313D02*
D03*
X045846Y026339D02*
D03*
X046565Y028514D02*
D03*
X047756Y026339D02*
D03*
X046270Y028091D02*
D03*
X048307Y029823D02*
D03*
X048002Y031132D02*
D03*
X046998Y030669D02*
D03*
X046565Y030059D02*
D03*
X046270Y030531D02*
D03*
X043740Y031270D02*
D03*
X040718Y027362D02*
D03*
X041073Y026339D02*
D03*
X043159Y025906D02*
D03*
G54D58*
X028396Y031378D02*
D03*
X025531Y031644D02*
D03*
X034321Y030049D02*
D03*
X040532Y023337D02*
D03*
G54D59*
X026555Y023386D02*
D03*
X027254Y022982D02*
D03*
X028268Y023691D02*
D03*
X029311Y023543D02*
D03*
X030217Y023307D02*
D03*
X031260Y023415D02*
D03*
X032825Y022490D02*
D03*
X032500Y022077D02*
D03*
X034104Y023189D02*
D03*
X033169Y022884D02*
D03*
X032205Y023435D02*
D03*
X031063Y024961D02*
D03*
X033780Y026772D02*
D03*
X034449Y027264D02*
D03*
X036329Y027126D02*
D03*
X037195Y024744D02*
D03*
X037539Y024498D02*
D03*
X037844Y024291D02*
D03*
X038238Y024045D02*
D03*
X036585Y023691D02*
D03*
X035354Y028671D02*
D03*
X034252Y029281D02*
D03*
X032333Y030600D02*
D03*
X031063Y031220D02*
D03*
X031388Y030915D02*
D03*
X031693Y030433D02*
D03*
X032008Y030738D02*
D03*
X030738Y031467D02*
D03*
X028228Y028031D02*
D03*
X027746Y027402D02*
D03*
X026929Y028661D02*
D03*
X026604Y029281D02*
D03*
X027372Y027697D02*
D03*
X026870Y026319D02*
D03*
X027274Y025748D02*
D03*
X026880Y024232D02*
D03*
X026270Y024813D02*
D03*
X025571Y027106D02*
D03*
X024459Y028976D02*
D03*
X023327Y027392D02*
D03*
X022234Y029390D02*
D03*
X026270Y030807D02*
D03*
X040384Y030640D02*
D03*
X041171Y031713D02*
D03*
X041929Y030285D02*
D03*
X046545Y023366D02*
D03*
G54D60*
X053268Y027746D02*
D03*
Y030896D02*
D03*
G54D61*
X031024Y027736D02*
D03*
X047047Y022421D02*
D03*
X054065Y023376D02*
D03*
M02*
